<svg width="125" height="21" viewBox="0 0 125 21" fill="none" xmlns="http://www.w3.org/2000/svg">
<path d="M34.4854 16.632C33.4614 16.632 32.537 16.4187 31.7121 15.992C30.8872 15.5654 30.233 14.9467 29.7494 14.136C29.2801 13.3254 29.0454 12.3511 29.0454 11.2134V10.9147C29.0454 9.77691 29.2801 8.80269 29.7494 7.99202C30.233 7.18136 30.8872 6.56269 31.7121 6.13603C32.537 5.70936 33.4614 5.49603 34.4854 5.49603C35.4952 5.49603 36.3556 5.6738 37.0667 6.02936C37.7921 6.38491 38.3752 6.87558 38.8161 7.50136C39.257 8.11291 39.5414 8.80269 39.6694 9.57069L37.3014 10.0614C37.2445 9.62047 37.1094 9.22225 36.8961 8.86669C36.6827 8.49691 36.377 8.20536 35.9787 7.99202C35.5947 7.77869 35.1183 7.67203 34.5494 7.67203C33.9663 7.67203 33.4401 7.80003 32.9707 8.05603C32.5156 8.2978 32.153 8.66758 31.8827 9.16536C31.6267 9.66314 31.4987 10.2605 31.4987 10.9574V11.1707C31.4987 11.8676 31.6267 12.4649 31.8827 12.9627C32.153 13.4462 32.5156 13.816 32.9707 14.072C33.4401 14.328 33.9663 14.456 34.5494 14.456C35.417 14.456 36.0712 14.2356 36.5121 13.7947C36.9672 13.3396 37.2516 12.7565 37.3654 12.0454L39.7334 12.6C39.5627 13.3396 39.257 14.0151 38.8161 14.6267C38.3752 15.2382 37.7921 15.7289 37.0667 16.0987C36.3556 16.4542 35.4952 16.632 34.4854 16.632Z" fill="#121923"/>
<path d="M42.7599 16.3334V5.79469H45.1706V7.01069H45.5332C45.6897 6.5698 45.9528 6.2498 46.3226 6.05069C46.6924 5.85158 47.1332 5.75203 47.6452 5.75203H48.9252V7.92803H47.6026C46.8915 7.92803 46.3155 8.12003 45.8746 8.50403C45.4337 8.8738 45.2132 9.4498 45.2132 10.232V16.3334H42.7599Z" fill="#121923"/>
<path d="M56.1796 16.632C55.1271 16.632 54.1956 16.4116 53.3849 15.9707C52.5885 15.5156 51.9627 14.8827 51.5076 14.072C51.0667 13.2471 50.8462 12.2871 50.8462 11.192V10.936C50.8462 9.82669 51.0667 8.86669 51.5076 8.05603C51.9485 7.24536 52.5671 6.61958 53.3636 6.17869C54.16 5.72358 55.0774 5.49603 56.1156 5.49603C57.1396 5.49603 58.0356 5.72358 58.8036 6.17869C59.5716 6.61958 60.1689 7.24536 60.5956 8.05603C61.0222 8.86669 61.2356 9.81247 61.2356 10.8934V11.768H53.3209C53.3494 12.5929 53.6409 13.2542 54.1956 13.752C54.7502 14.2498 55.4329 14.4987 56.2436 14.4987C57.04 14.4987 57.6302 14.328 58.0142 13.9867C58.3982 13.6311 58.6898 13.2329 58.8889 12.792L60.9156 13.8374C60.7165 14.2214 60.4249 14.6338 60.0409 15.0747C59.6711 15.5014 59.1734 15.8711 58.5476 16.184C57.9218 16.4827 57.1325 16.632 56.1796 16.632ZM53.3422 9.91203H58.7396C58.6827 9.21514 58.4125 8.66047 57.9289 8.24803C57.4596 7.83558 56.848 7.62936 56.0942 7.62936C55.312 7.62936 54.6862 7.83558 54.2169 8.24803C53.7476 8.66047 53.456 9.21514 53.3422 9.91203Z" fill="#121923"/>
<path d="M69.3861 16.632C68.3336 16.632 67.3879 16.4187 66.5487 15.992C65.7239 15.5511 65.0696 14.9325 64.5861 14.136C64.1167 13.3254 63.8821 12.3582 63.8821 11.2347V10.8934C63.8821 9.7698 64.1167 8.80269 64.5861 7.99202C65.0696 7.18136 65.7239 6.56269 66.5487 6.13603C67.3879 5.70936 68.3336 5.49603 69.3861 5.49603C70.4385 5.49603 71.3772 5.70936 72.2021 6.13603C73.027 6.56269 73.6741 7.18136 74.1434 7.99202C74.627 8.80269 74.8687 9.7698 74.8687 10.8934V11.2347C74.8687 12.3582 74.627 13.3254 74.1434 14.136C73.6741 14.9325 73.027 15.5511 72.2021 15.992C71.3772 16.4187 70.4385 16.632 69.3861 16.632ZM69.3861 14.456C70.2821 14.456 71.0145 14.1716 71.5834 13.6027C72.1523 13.0196 72.4367 12.2089 72.4367 11.1707V10.9574C72.4367 9.91914 72.1523 9.11558 71.5834 8.54669C71.0145 7.96358 70.2821 7.67203 69.3861 7.67203C68.4901 7.67203 67.7576 7.96358 67.1887 8.54669C66.6199 9.11558 66.3354 9.91914 66.3354 10.9574V11.1707C66.3354 12.2089 66.6199 13.0196 67.1887 13.6027C67.7576 14.1716 68.4901 14.456 69.3861 14.456Z" fill="#121923"/>
<path d="M82.1921 16.3334C81.6374 16.3334 81.2178 16.1911 80.9334 15.9067C80.6632 15.6222 80.5281 15.224 80.5281 14.712V7.11736H77.2001V5.96536H80.5281V2.08269H81.8081V5.96536H85.4347V7.11736H81.8081V14.5414C81.8081 14.968 82.0214 15.1814 82.4481 15.1814H84.8801V16.3334H82.1921Z" fill="#121923"/>
<path d="M93.3352 16.632C92.2686 16.632 91.337 16.4116 90.5406 15.9707C89.7584 15.5156 89.1468 14.8827 88.7059 14.072C88.265 13.2614 88.0446 12.3298 88.0446 11.2774V11.0214C88.0446 9.95469 88.265 9.02314 88.7059 8.22669C89.1468 7.41603 89.7512 6.79025 90.5192 6.34936C91.3015 5.89425 92.1904 5.66669 93.1859 5.66669C94.153 5.66669 95.0063 5.87291 95.7459 6.28536C96.4997 6.68358 97.0899 7.26669 97.5166 8.03469C97.9432 8.78847 98.1566 9.69158 98.1566 10.744V11.4267H89.3246C89.3672 12.7209 89.7584 13.7236 90.4979 14.4347C91.2517 15.1316 92.1975 15.48 93.3352 15.48C94.3024 15.48 95.049 15.2596 95.5752 14.8187C96.1157 14.3778 96.5281 13.8374 96.8126 13.1974L97.9646 13.7094C97.7512 14.1787 97.4526 14.6409 97.0686 15.096C96.6988 15.5369 96.2152 15.9067 95.6179 16.2054C95.0206 16.4898 94.2597 16.632 93.3352 16.632ZM89.3459 10.3174H96.8552C96.7984 9.1938 96.4357 8.33336 95.7672 7.73602C95.0988 7.12447 94.2383 6.81869 93.1859 6.81869C92.1477 6.81869 91.2872 7.12447 90.6046 7.73602C89.9219 8.33336 89.5024 9.1938 89.3459 10.3174Z" fill="#121923"/>
<path d="M106.683 16.632C105.673 16.632 104.77 16.4187 103.973 15.992C103.191 15.5511 102.572 14.9254 102.117 14.1147C101.662 13.304 101.435 12.3511 101.435 11.256V11.0427C101.435 9.93336 101.662 8.98047 102.117 8.18402C102.572 7.37336 103.191 6.75469 103.973 6.32803C104.77 5.88714 105.673 5.66669 106.683 5.66669C107.678 5.66669 108.517 5.85869 109.2 6.24269C109.897 6.61247 110.437 7.10314 110.821 7.71469C111.219 8.31203 111.468 8.94491 111.568 9.61336L110.309 9.86936C110.238 9.31469 110.06 8.8098 109.776 8.35469C109.491 7.88536 109.093 7.51558 108.581 7.24536C108.069 6.96091 107.436 6.81869 106.683 6.81869C105.929 6.81869 105.253 6.99647 104.656 7.35203C104.059 7.69336 103.582 8.18403 103.227 8.82403C102.885 9.4498 102.715 10.1965 102.715 11.064V11.2347C102.715 12.1022 102.885 12.856 103.227 13.496C103.582 14.1218 104.059 14.6125 104.656 14.968C105.253 15.3094 105.929 15.48 106.683 15.48C107.82 15.48 108.688 15.1885 109.285 14.6054C109.883 14.008 110.252 13.2827 110.395 12.4294L111.653 12.6854C111.525 13.3538 111.255 13.9938 110.843 14.6054C110.444 15.2027 109.897 15.6934 109.2 16.0774C108.517 16.4471 107.678 16.632 106.683 16.632Z" fill="#121923"/>
<path d="M115.441 16.3334V1.40002H116.721V7.77869H116.977C117.147 7.43736 117.382 7.11736 117.681 6.81869C117.994 6.5058 118.392 6.25691 118.875 6.07202C119.373 5.87291 119.992 5.77336 120.731 5.77336C121.485 5.77336 122.175 5.9298 122.801 6.24269C123.427 6.55558 123.924 7.02491 124.294 7.65069C124.678 8.27647 124.87 9.0658 124.87 10.0187V16.3334H123.59V10.104C123.59 8.96625 123.306 8.15558 122.737 7.67203C122.168 7.17425 121.407 6.92536 120.454 6.92536C119.387 6.92536 118.499 7.2738 117.787 7.97069C117.076 8.66758 116.721 9.72714 116.721 11.1494V16.3334H115.441Z" fill="#121923"/>
<path fill-rule="evenodd" clip-rule="evenodd" d="M10 19.4822C14.7865 19.4822 18.6667 15.602 18.6667 10.8156C18.6667 6.02908 14.7865 2.14889 10 2.14889C5.21353 2.14889 1.33333 6.02908 1.33333 10.8156C1.33333 15.602 5.21353 19.4822 10 19.4822ZM10 20.8156C15.5228 20.8156 20 16.3384 20 10.8156C20 5.2927 15.5228 0.815552 10 0.815552C4.47715 0.815552 0 5.2927 0 10.8156C0 16.3384 4.47715 20.8156 10 20.8156Z" fill="#121923"/>
<path fill-rule="evenodd" clip-rule="evenodd" d="M7.33316 9.48224V15.7161L4.52041 19.232L3.47925 18.3991L5.99983 15.2484V9.48224H7.33316Z" fill="#121923"/>
<path fill-rule="evenodd" clip-rule="evenodd" d="M13.3333 12.8156V6.58174L16.146 3.0658L17.1872 3.89872L14.6666 7.04945V12.8156H13.3333Z" fill="#121923"/>
<path d="M8.6665 8.14884C8.6665 9.25341 7.77107 10.1488 6.6665 10.1488C5.56193 10.1488 4.6665 9.25341 4.6665 8.14884C4.6665 7.04427 5.56193 6.14884 6.6665 6.14884C7.77107 6.14884 8.6665 7.04427 8.6665 8.14884Z" fill="#121923"/>
<path d="M11.9999 14.1488C11.9999 13.0443 12.8954 12.1488 13.9999 12.1488C15.1045 12.1488 15.9999 13.0443 15.9999 14.1488C15.9999 15.2534 15.1045 16.1488 13.9999 16.1488C12.8954 16.1488 11.9999 15.2534 11.9999 14.1488Z" fill="#121923"/>
</svg>
