<?xml version="1.0" encoding="UTF-8" standalone="no"?>
<svg
   width="79"
   height="28"
   viewBox="0 0 79 28"
   fill="none"
   version="1.1"
   id="svg1"
   sodipodi:docname="IQM.svg"
   inkscape:version="1.3.2 (091e20ef0f, 2023-11-25, custom)"
   xmlns:inkscape="http://www.inkscape.org/namespaces/inkscape"
   xmlns:sodipodi="http://sodipodi.sourceforge.net/DTD/sodipodi-0.dtd"
   xmlns="http://www.w3.org/2000/svg"
   xmlns:svg="http://www.w3.org/2000/svg">
  <defs
     id="defs1" />
  <sodipodi:namedview
     id="namedview1"
     pagecolor="#ffffff"
     bordercolor="#000000"
     borderopacity="0.25"
     inkscape:showpageshadow="2"
     inkscape:pageopacity="0.0"
     inkscape:pagecheckerboard="0"
     inkscape:deskcolor="#d1d1d1"
     inkscape:zoom="11.974684"
     inkscape:cx="39.5"
     inkscape:cy="14.029598"
     inkscape:window-width="1920"
     inkscape:window-height="1043"
     inkscape:window-x="0"
     inkscape:window-y="0"
     inkscape:window-maximized="1"
     inkscape:current-layer="svg1" />
  <g
     id="logo"
     style="fill:#000000;fill-opacity:1">
    <path
       id="Vector"
       d="M2.49875 27.5534C2.78995 27.2753 2.93671 26.9292 2.93671 26.5228V1.47718C2.93671 1.07157 2.78918 0.724684 2.49875 0.446554C2.22069 0.155289 1.87387 0.00772572 1.46836 0.00772572C1.06284 0.00772572 0.715254 0.155289 0.437958 0.446554C0.147531 0.724684 0 1.07157 0 1.47718V26.522C0 26.9284 0.147531 27.2745 0.437958 27.5527C0.715254 27.8432 1.06284 27.9907 1.46836 27.9907C1.87387 27.9907 2.22069 27.8432 2.49875 27.5527M25.3482 1.62243V1.56217C25.3482 0.764859 24.6979 0.145246 23.9401 0.146018C23.8351 0.146018 23.7277 0.157607 23.6204 0.183103C21.0977 0.768722 18.7827 2.04812 16.9058 3.92473C14.2587 6.57237 12.8012 10.093 12.8012 13.837C12.8012 15.1689 12.9912 16.4908 13.3596 17.7586C13.6153 18.6386 14.631 19.0434 15.4243 18.5853L15.4761 18.5552C16.0376 18.2307 16.3095 17.5655 16.1287 16.9428C15.8375 15.9376 15.6869 14.8908 15.6869 13.837C15.6869 10.8641 16.8448 8.06887 18.9465 5.9659C20.4311 4.48099 22.2617 3.46659 24.2568 2.99994C24.8964 2.85006 25.3482 2.2799 25.3482 1.6232M33.9854 22.3462C32.0072 24.0111 29.4776 24.9676 26.8158 24.9676C23.6768 24.9676 20.7184 23.6372 18.6352 21.3813C18.3633 21.0869 17.9872 20.9339 17.6064 20.9339C17.3631 20.9339 17.1174 20.9965 16.895 21.1248L16.8448 21.1534C16.0592 21.6069 15.8978 22.6723 16.5134 23.339C17.4318 24.3349 18.4939 25.1986 19.6648 25.8947C21.8199 27.1764 24.2924 27.854 26.8151 27.854C29.3378 27.854 31.8102 27.1764 33.9653 25.8947C34.6334 25.4976 35.2652 25.0456 35.8561 24.5458C36.6054 23.9115 36.505 22.7279 35.6545 22.2365L35.5989 22.2048C35.0845 21.9074 34.4388 21.963 33.9838 22.3455M40.6497 16.0698C40.7687 15.3335 40.8289 14.5864 40.8289 13.8354C40.8289 10.0915 39.3714 6.57083 36.7243 3.92318C34.8481 2.0458 32.5325 0.767176 30.0105 0.181557C29.9032 0.156834 29.7958 0.144473 29.6908 0.144473C28.933 0.144473 28.2826 0.763313 28.2826 1.56062V1.62088C28.2826 2.27758 28.7345 2.84775 29.3741 2.99763C31.3684 3.46504 33.199 4.47867 34.6844 5.96358C36.7861 8.06578 37.944 10.861 37.944 13.8347C37.944 14.4203 37.8976 15.0044 37.8065 15.5792C37.7138 16.1625 37.9826 16.7427 38.4939 17.0386L38.5472 17.0695C39.4054 17.5647 40.4929 17.0471 40.6513 16.069M44.4353 23.7979C44.8262 23.1211 44.5937 22.2566 43.9178 21.8657L32.3872 15.2068C32.1648 15.0778 31.9215 15.0167 31.6813 15.0167C31.1923 15.0167 30.7173 15.2701 30.4554 15.7244L30.3774 15.8588C29.9866 16.5356 30.2183 17.4001 30.8949 17.7911L42.4255 24.45C43.1021 24.8409 43.9665 24.6091 44.3573 23.9323L44.4353 23.7979ZM78.9969 26.5298V1.46714C78.9969 0.743226 78.6238 0.258816 77.9202 0.067215C77.2296 -0.125158 76.6619 0.101981 76.2773 0.727002L65.1607 19.1029L54.0434 0.724684C53.7483 0.245682 53.3451 0 52.8608 0C52.7156 0 52.5634 0.022405 52.4043 0.0664423C51.6991 0.258816 51.326 0.743226 51.326 1.46714V26.5313C51.326 26.9338 51.465 27.2846 51.7393 27.5743C51.7431 27.5789 51.7478 27.5828 51.7516 27.5867C52.0413 27.8609 52.3927 28 52.7951 28C53.1976 28 53.5297 27.8609 53.8194 27.5874C53.824 27.5828 53.8279 27.5789 53.8325 27.5743C54.1067 27.2838 54.245 26.9331 54.245 26.5313V6.71221L63.9094 22.6792C63.9248 22.7171 63.948 22.7511 63.9774 22.7812C63.9851 22.7889 63.9982 22.8036 64.016 22.8299C64.0276 22.8469 64.0407 22.8623 64.0546 22.877C64.0809 22.9033 64.1071 22.9295 64.1303 22.9527C64.1566 22.9797 64.1828 23.006 64.2099 23.0323C64.2238 23.0462 64.24 23.0593 64.257 23.0701C64.2832 23.0879 64.2979 23.1003 64.3056 23.108C64.3242 23.1265 64.345 23.142 64.3667 23.1559C64.3728 23.1598 64.379 23.1628 64.3852 23.1667C64.4269 23.2007 64.4771 23.2247 64.5319 23.2347C64.5605 23.2494 64.5899 23.2625 64.6192 23.2733C64.654 23.2896 64.6926 23.305 64.7359 23.3181C64.7853 23.3351 64.8363 23.346 64.8873 23.3514C64.9212 23.3614 64.9575 23.3684 64.9954 23.3714C65.1059 23.4 65.2209 23.4 65.3314 23.3714C65.3692 23.3684 65.4055 23.3614 65.4395 23.3514C65.4905 23.346 65.5407 23.3351 65.5894 23.3189C65.6334 23.3042 65.672 23.2896 65.7076 23.2726C65.7485 23.2579 65.7887 23.2386 65.8281 23.2162C65.8682 23.2038 65.9122 23.1845 65.9594 23.1559C65.9825 23.142 66.0042 23.1258 66.0227 23.1065C66.0281 23.101 66.0412 23.0887 66.0698 23.0701C66.0868 23.0585 66.103 23.0454 66.1177 23.0307L66.2706 22.8778C66.2861 22.8623 66.2992 22.8461 66.3108 22.8283C66.3278 22.8036 66.3394 22.7897 66.3471 22.782C66.3772 22.7526 66.4004 22.7171 66.4166 22.6792L76.0811 6.71221V26.5313C76.0811 26.9338 76.2201 27.2846 76.4943 27.5743C76.4982 27.5789 76.5028 27.5828 76.5067 27.5867C76.7963 27.8609 77.1408 28 77.5309 28C77.9209 28 78.2832 27.8594 78.5613 27.5805C78.8525 27.29 79 26.9362 79 26.5305"
       fill="white"
       fill-opacity="0.95"
       style="fill:#000000;fill-opacity:1" />
  </g>
</svg>
