<?xml version="1.0" encoding="UTF-8" standalone="no"?>
<!-- Created with Inkscape (http://www.inkscape.org/) -->
<svg xmlns:inkscape="http://www.inkscape.org/namespaces/inkscape" xmlns:sodipodi="http://sodipodi.sourceforge.net/DTD/sodipodi-0.dtd" xmlns="http://www.w3.org/2000/svg" xmlns:svg="http://www.w3.org/2000/svg" width="409.04874mm" height="118.2075mm" viewBox="0 0 409.04873 118.2075" version="1.1" id="svg1" xml:space="preserve" inkscape:version="1.3 (0e150ed, 2023-07-21)" sodipodi:docname="levelQuantum logo set.svg" inkscape:export-filename="levelQuantum logo set.pdf" inkscape:export-xdpi="150" inkscape:export-ydpi="150">
  <defs id="defs1">
    <clipPath id="clipPath4">
      <path d="M 0,1792 H 1920 V 0 H 0 Z" transform="translate(-785.24934,-1008.2924)" id="path4"></path>
    </clipPath>
    <clipPath id="clipPath6">
      <path d="M 0,1792 H 1920 V 0 H 0 Z" transform="translate(-831.8926,-1037.5643)" id="path6"></path>
    </clipPath>
    <clipPath id="clipPath8">
      <path d="M 0,1792 H 1920 V 0 H 0 Z" transform="translate(-954.2917,-1008.2924)" id="path8"></path>
    </clipPath>
    <clipPath id="clipPath10">
      <path d="M 0,1792 H 1920 V 0 H 0 Z" transform="translate(0,-2.5000001e-5)" id="path10"></path>
    </clipPath>
    <clipPath id="clipPath14">
      <path d="M 0,1792 H 1920 V 0 H 0 Z" transform="translate(-490.01951,-903.22512)" id="path14"></path>
    </clipPath>
    <clipPath id="clipPath16">
      <path d="M 0,1792 H 1920 V 0 H 0 Z" transform="translate(-490.01951,-903.22512)" id="path16"></path>
    </clipPath>
  </defs>
  <g id="layer-MC0" inkscape:groupmode="layer" inkscape:label="Livello 1" transform="matrix(0.26458333,0,0,0.26458334,-140.58177,-247.82637)">
    <path id="path1" d="m 58.183578,-122.82516 v 69.187502 c 0,15.164063 7.338867,22.746094 22.019531,22.746094 14.686524,0 22.031251,-7.582031 22.031251,-22.746094 v -69.187502 h 43.33594 v 77.578127 c 0,16.59375 -5.46973,29.044922 -16.40625,37.3476564 C 118.23338,0.39749844 101.91209,4.5459359 80.203109,4.5459359 58.499984,4.5459359 42.178695,0.39749844 31.242172,-7.8993766 20.311508,-16.202111 14.847641,-28.653283 14.847641,-45.247033 v -77.578127 z m 133.116212,61.05469 c 0,3.993164 0.71777,7.705078 2.15625,11.132812 1.43555,3.430664 3.38965,6.421875 5.85937,8.976563 2.47559,2.554687 5.42872,4.552734 8.85938,5.988281 3.43652,1.438477 7.15137,2.15625 11.14453,2.15625 3.82617,0 7.45606,-0.717773 10.88672,-2.15625 3.42773,-1.435547 6.38086,-3.433594 8.85937,-5.988281 2.47559,-2.554688 4.47071,-5.507813 5.98829,-8.859375 1.51464,-3.351563 2.27343,-6.94043 2.27343,-10.769532 0,-3.83496 -0.75879,-7.467773 -2.27343,-10.898437 -1.51758,-3.427734 -3.5127,-6.421875 -5.98829,-8.976563 -2.47851,-2.554687 -5.43164,-4.549804 -8.85937,-5.988281 -3.43066,-1.435547 -7.06055,-2.15625 -10.88672,-2.15625 -3.99316,0 -7.70801,0.720703 -11.14453,2.15625 -3.43066,1.438477 -6.38379,3.433594 -8.85938,5.988281 -2.46972,2.554688 -4.42382,5.469727 -5.85937,8.742188 -1.43848,3.266602 -2.15625,6.817383 -2.15625,10.652344 z m 54.58594,-61.05469 h 43.58203 V -9.390625e-4 H 245.88573 V -13.653283 c -9.25782,11.6572268 -21.78516,17.4843752 -37.58203,17.4843752 -8.93848,0 -17.16211,-1.6376953 -24.66797,-4.9101563 -7.5,-3.2724609 -14.04493,-7.8632812 -19.62891,-13.7695309 -5.58691,-5.90625 -9.9375,-12.84668 -13.05469,-20.824219 -3.11133,-7.983398 -4.66406,-16.681641 -4.66406,-26.097656 0,-8.780274 1.51465,-17.121094 4.54688,-25.019532 3.02929,-7.904296 7.25976,-14.806638 12.6914,-20.707028 5.42871,-5.90625 11.89453,-10.57324 19.39453,-14.00391 7.5,-3.43652 15.79981,-5.15625 24.90235,-5.15625 15.31933,0 28.00781,5.34961 38.0625,16.04297 z m 49.09277,0 h 43.33594 v 15.5625 c 5.90625,-7.17773 11.88867,-12.00586 17.95312,-14.48437 6.06153,-2.47559 13.16309,-3.71485 21.30469,-3.71485 8.625,0 16.00781,1.40039 22.14844,4.19532 6.14648,2.78906 11.3789,6.73828 15.6914,11.84765 3.50684,4.14844 5.89746,8.77735 7.17188,13.886721 1.28027,5.109375 1.92187,10.933594 1.92187,17.472656 V -9.390625e-4 H 381.16991 V -62.016564 c 0,-6.061523 -0.44239,-10.96875 -1.32422,-14.71875 -0.87598,-3.75 -2.43164,-6.741211 -4.66406,-8.976563 -1.91602,-1.913085 -4.07227,-3.269531 -6.46875,-4.066406 -2.39063,-0.802734 -4.94239,-1.207031 -7.65235,-1.207031 -7.34473,0 -12.97265,2.197266 -16.88672,6.585937 -3.9082,4.391602 -5.85937,10.658204 -5.85937,18.796875 V -9.390625e-4 H 294.9785 Z m 183.40137,36.152346 V -9.390625e-4 H 435.04393 V -86.672814 h -14.36719 v -36.152346 h 14.36719 v -36.86719 h 43.33594 v 36.86719 h 24.65625 v 36.152346 z m 60.33691,-36.152346 v 69.187502 c 0,15.164063 7.33887,22.746094 22.01953,22.746094 14.68653,0 22.03125,-7.582031 22.03125,-22.746094 v -69.187502 h 43.33594 v 77.578127 c 0,16.59375 -5.46973,29.044922 -16.40625,37.3476564 -10.93066,8.29687504 -27.25195,12.4453125 -48.96094,12.4453125 -21.70312,0 -38.02441,-4.14843746 -48.96093,-12.4453125 -10.93067,-8.3027344 -16.39454,-20.7539064 -16.39454,-37.3476564 v -77.578127 z m 92.89746,0 h 43.33594 v 15.08203 c 11.8125,-11.33496 25.05762,-17.0039 39.73828,-17.0039 18.19336,0 32.08008,7.66406 41.66016,22.99218 9.74121,-15.48339 23.62793,-23.22656 41.66015,-23.22656 5.74805,0 11.17383,0.84082 16.27735,2.51953 5.10937,1.67286 9.49804,4.30664 13.17187,7.89844 3.6709,3.58594 6.58594,8.25586 8.74219,14.00391 2.15625,5.742185 3.23437,12.685544 3.23437,20.824216 V -9.390625e-4 H 796.09862 V -60.575158 c 0,-6.225586 -0.44239,-11.332031 -1.32422,-15.316406 -0.87598,-3.990234 -2.15332,-7.104492 -3.83203,-9.339844 -1.67285,-2.232422 -3.62696,-3.75 -5.85938,-4.546875 -2.23535,-0.802734 -4.6289,-1.207031 -7.18359,-1.207031 -13.88379,0 -20.82422,10.136719 -20.82422,30.410156 V -9.390625e-4 H 713.73924 V -60.575158 c 0,-6.225586 -0.40429,-11.373047 -1.20703,-15.445312 -0.79687,-4.069336 -1.9541,-7.300782 -3.46875,-9.691407 -1.51758,-2.396484 -3.47461,-4.034179 -5.87109,-4.910156 -2.39063,-0.881836 -5.17969,-1.324219 -8.36719,-1.324219 -2.71875,0 -5.2793,0.404297 -7.67578,1.207032 -2.39063,0.796875 -4.50586,2.352539 -6.33985,4.664062 -1.83691,2.314453 -3.27539,5.504883 -4.3125,9.574219 -1.03125,4.072266 -1.54687,9.380859 -1.54687,15.925781 V -9.390625e-4 h -43.33594 z m 0,0" style="fill:#385592;fill-opacity:1;fill-rule:nonzero;stroke:none" aria-label="uantum" transform="matrix(1.3333333,0,0,1.3333333,900.69533,1297.3645)" inkscape:export-filename="../../../../../OneDrive/levelQuantum/Logos/levelQuantum - positive.png" inkscape:export-xdpi="150" inkscape:export-ydpi="150"></path>
    <path id="path2" d="m 721.076,955.054 h -29.112 v 133.497 h 29.112 z" style="fill:#385592;fill-opacity:1;fill-rule:nonzero;stroke:none" transform="matrix(1.3333333,0,0,-1.3333333,0,2389.3333)"></path>
    <path id="path3" d="m 0,0 c -0.965,4.073 -2.95,7.343 -5.951,9.81 -3.003,2.466 -6.65,3.7 -10.937,3.7 -4.503,0 -8.178,-1.181 -11.017,-3.539 C -30.748,7.612 -32.545,4.287 -33.294,0 Z m -34.098,-16.889 c 0,-12.545 5.896,-18.818 17.693,-18.818 6.325,0 11.098,2.574 14.314,7.72 h 28.147 c -5.684,-18.872 -19.891,-28.307 -42.623,-28.307 -6.97,0 -13.349,1.046 -19.139,3.136 -5.791,2.091 -10.751,5.067 -14.878,8.927 -4.129,3.86 -7.318,8.469 -9.57,13.832 -2.252,5.361 -3.377,11.365 -3.377,18.014 0,6.86 1.07,13.053 3.217,18.576 2.143,5.523 5.199,10.214 9.167,14.075 3.966,3.86 8.766,6.835 14.396,8.926 5.629,2.091 11.982,3.137 19.059,3.137 6.969,0 13.241,-1.046 18.818,-3.137 C 6.7,27.101 11.42,24.07 15.28,20.104 c 3.86,-3.968 6.808,-8.82 8.846,-14.555 2.035,-5.738 3.056,-12.199 3.056,-19.381 v -3.057 z" style="fill:#385592;fill-opacity:1;fill-rule:nonzero;stroke:none" transform="matrix(1.3333333,0,0,-1.3333333,1046.9991,1044.9435)" clip-path="url(#clipPath4)"></path>
    <path id="path5" d="M 0,0 19.623,-42.3 39.567,0 H 72.056 L 29.112,-82.51 H 9.65 L -32.811,0 Z" style="fill:#385592;fill-opacity:1;fill-rule:nonzero;stroke:none" transform="matrix(1.3333333,0,0,-1.3333333,1109.1901,1005.9143)" clip-path="url(#clipPath6)"></path>
    <path id="path7" d="m 0,0 c -0.965,4.073 -2.95,7.343 -5.951,9.81 -3.003,2.466 -6.65,3.7 -10.937,3.7 -4.503,0 -8.178,-1.181 -11.017,-3.539 C -30.748,7.612 -32.545,4.287 -33.294,0 Z m -34.098,-16.889 c 0,-12.545 5.896,-18.818 17.693,-18.818 6.325,0 11.098,2.574 14.314,7.72 h 28.147 c -5.684,-18.872 -19.891,-28.307 -42.622,-28.307 -6.971,0 -13.35,1.046 -19.14,3.136 -5.791,2.091 -10.751,5.067 -14.878,8.927 -4.129,3.86 -7.318,8.469 -9.57,13.832 -2.251,5.361 -3.377,11.365 -3.377,18.014 0,6.86 1.07,13.053 3.217,18.576 2.143,5.523 5.199,10.214 9.167,14.075 3.966,3.86 8.766,6.835 14.396,8.926 5.629,2.091 11.982,3.137 19.059,3.137 6.969,0 13.241,-1.046 18.818,-3.137 C 6.7,27.101 11.42,24.07 15.28,20.104 c 3.86,-3.968 6.808,-8.82 8.846,-14.555 2.035,-5.738 3.056,-12.199 3.056,-19.381 v -3.057 z" style="fill:#385592;fill-opacity:1;fill-rule:nonzero;stroke:none" transform="matrix(1.3333333,0,0,-1.3333333,1272.3889,1044.9435)" clip-path="url(#clipPath8)"></path>
    <path id="path9" d="m 1011.067,955.054 h -29.112 v 133.497 h 29.112 z" style="fill:#385592;fill-opacity:1;fill-rule:nonzero;stroke:none" transform="matrix(1.3333333,0,0,-1.3333333,0,2389.3333)" clip-path="url(#clipPath10)"></path>
    <path id="path11" d="m 18.51565,-17.61422 h 0.65625 c 1.927734,0 2.894531,-0.673828 2.894531,-2.027344 0,-1.327148 -0.966797,-1.992188 -2.894531,-1.992188 H 18.51565 Z M 30.410181,-6.5282828 H 23.01565 l -4.5,-6.5390622 v 6.5390622 H 12.585962 V -26.086877 h 8.53125 c 2.077149,0 3.764649,0.556641 5.0625,1.664063 1.294922,1.110352 1.945313,2.619141 1.945313,4.523437 0,2.853516 -1.388672,4.684571 -4.160156,5.496094 z M 3.2461187,-16.184533 c 0,-2.390625 0.4511719,-4.643554 1.359375,-6.761719 0.9052735,-2.124023 2.1445313,-3.972656 3.7148438,-5.542968 1.5761719,-1.570313 3.4160155,-2.806641 5.5195315,-3.714844 2.109375,-0.914063 4.359375,-1.371094 6.75,-1.371094 2.396484,0 4.655273,0.457031 6.773437,1.371094 2.124024,0.908203 3.972656,2.144531 5.542969,3.714844 1.570312,1.570312 2.806641,3.418945 3.714844,5.542968 0.914062,2.118165 1.371093,4.371094 1.371093,6.761719 0,2.399414 -0.457031,4.652344 -1.371093,6.7617189 -0.908203,2.1035157 -2.144532,3.9375 -3.714844,5.5078125 -1.570313,1.5703125 -3.418945,2.8125 -5.542969,3.72656254 -2.118164,0.90527344 -4.376953,1.35937496 -6.773437,1.35937496 -2.390625,0 -4.640625,-0.45410152 -6.75,-1.35937496 C 11.736353,-1.1025016 9.8965094,-2.3446891 8.3203375,-3.9150016 6.750025,-5.4853141 5.5107672,-7.3192984 4.6054937,-9.4228141 3.6972906,-11.532189 3.2461187,-13.785119 3.2461187,-16.184533 Z m 3.375,0 c 0,1.939453 0.366211,3.75 1.1015625,5.4375 0.7324219,1.6875002 1.734375,3.1640627 2.9999998,4.4296877 1.271485,1.265625 2.753906,2.2705078 4.441406,3.0117187 1.6875,0.7353516 3.495118,1.1015625 5.425782,1.1015625 1.936523,0 3.75,-0.3662109 5.4375,-1.1015625 1.6875,-0.7412109 3.164062,-1.7460937 4.429687,-3.0117187 1.271485,-1.265625 2.276367,-2.7421875 3.011719,-4.4296877 0.732422,-1.6875 1.101562,-3.498047 1.101562,-5.4375 0,-1.927734 -0.36914,-3.738281 -1.101562,-5.425781 -0.735352,-1.6875 -1.740234,-3.164063 -3.011719,-4.429688 -1.265625,-1.271484 -2.742187,-2.276367 -4.429687,-3.011718 -1.6875,-0.732422 -3.500977,-1.101563 -5.4375,-1.101563 -1.930664,0 -3.738282,0.369141 -5.425782,1.101563 -1.6875,0.735351 -3.169921,1.740234 -4.441406,3.011718 -1.2656248,1.265625 -2.2675779,2.742188 -2.9999998,4.429688 -0.7353515,1.6875 -1.1015625,3.498047 -1.1015625,5.425781 z m 0,0" style="fill:#385592;fill-opacity:1;fill-rule:nonzero;stroke:none" aria-label="®" transform="matrix(1.3333333,0,0,1.3333333,2026.6875,1168.1145)"></path>
    <path id="path13" d="m 0,0 c -6.57,6.336 -11.776,13.807 -15.623,22.416 -3.853,8.602 -5.773,17.999 -5.773,28.188 0,10.189 1.92,19.583 5.773,28.189 3.847,8.602 9.053,16.073 15.623,22.415 6.564,6.336 14.206,11.261 22.924,14.774 8.714,3.507 17.942,5.264 27.68,5.264 9.732,0 18.96,-1.757 27.679,-5.264 8.714,-3.513 16.414,-8.438 23.095,-14.774 6.675,-6.342 11.939,-13.813 15.792,-22.415 3.848,-8.606 5.773,-18 5.773,-28.189 0,-10.189 -1.925,-19.586 -5.773,-28.188 C 113.317,13.807 108.053,6.336 101.378,0 94.697,-6.341 86.997,-11.265 78.283,-14.773 c -8.719,-3.513 -17.947,-5.266 -27.679,-5.266 -9.738,0 -18.966,1.753 -27.68,5.266 C 14.206,-11.265 6.564,-6.341 0,0 m 152.661,-45.509 c 12.566,12.226 22.357,26.543 29.378,42.963 7.014,16.413 10.527,34.131 10.527,53.15 0,19.018 -3.513,36.733 -10.527,53.152 -7.021,16.412 -16.812,30.735 -29.378,42.962 -12.566,12.227 -27.568,21.789 -45,28.698 -17.438,6.903 -36.457,10.359 -57.057,10.359 -20.834,0 -39.906,-3.456 -57.227,-10.359 -17.321,-6.909 -32.211,-16.471 -44.661,-28.698 -12.454,-12.227 -22.192,-26.55 -29.207,-42.962 -7.021,-16.419 -10.529,-34.134 -10.529,-53.152 0,-19.019 3.508,-36.737 10.529,-53.15 7.015,-16.42 16.753,-30.737 29.207,-42.963 12.45,-12.227 27.34,-21.795 44.661,-28.699 17.321,-6.904 36.393,-10.357 57.227,-10.357 2.305,0 4.587,0.049 6.853,0.136 h 134.645 v 43.076 l -54.003,-16.35 c 5.169,3.72 10.026,7.782 14.562,12.194" style="fill:#385592;fill-opacity:1;fill-rule:nonzero;stroke:none" transform="matrix(1.3333333,0,0,-1.3333333,653.35933,1185.0332)" clip-path="url(#clipPath14)"></path>
    <path id="path15" d="m 0,0 c -6.57,6.336 -11.776,13.807 -15.623,22.416 -3.853,8.602 -5.773,17.999 -5.773,28.188 0,10.189 1.92,19.583 5.773,28.189 3.847,8.602 9.053,16.073 15.623,22.415 6.564,6.336 14.206,11.261 22.924,14.774 8.714,3.507 17.942,5.264 27.68,5.264 9.732,0 18.96,-1.757 27.679,-5.264 8.714,-3.513 16.414,-8.438 23.095,-14.774 6.675,-6.342 11.939,-13.813 15.792,-22.415 3.848,-8.606 5.773,-18 5.773,-28.189 0,-10.189 -1.925,-19.586 -5.773,-28.188 C 113.317,13.807 108.053,6.336 101.378,0 94.697,-6.341 86.997,-11.265 78.283,-14.773 c -8.719,-3.513 -17.947,-5.266 -27.679,-5.266 -9.738,0 -18.966,1.753 -27.68,5.266 C 14.206,-11.265 6.564,-6.341 0,0 Z m 152.661,-45.509 c 12.566,12.226 22.357,26.543 29.378,42.963 7.014,16.413 10.527,34.131 10.527,53.15 0,19.018 -3.513,36.733 -10.527,53.152 -7.021,16.412 -16.812,30.735 -29.378,42.962 -12.566,12.227 -27.568,21.789 -45,28.698 -17.438,6.903 -36.457,10.359 -57.057,10.359 -20.834,0 -39.906,-3.456 -57.227,-10.359 -17.321,-6.909 -32.211,-16.471 -44.661,-28.698 -12.454,-12.227 -22.192,-26.55 -29.207,-42.962 -7.021,-16.419 -10.529,-34.134 -10.529,-53.152 0,-19.019 3.508,-36.737 10.529,-53.15 7.015,-16.42 16.753,-30.737 29.207,-42.963 12.45,-12.227 27.34,-21.795 44.661,-28.699 17.321,-6.904 36.393,-10.357 57.227,-10.357 2.305,0 4.587,0.049 6.853,0.136 h 134.645 v 43.076 l -54.003,-16.35 c 5.169,3.72 10.026,7.782 14.562,12.194 z" style="fill:none;stroke:#ffffff;stroke-width:1;stroke-linecap:butt;stroke-linejoin:miter;stroke-miterlimit:10;stroke-dasharray:none;stroke-opacity:1" transform="matrix(1.3333333,0,0,-1.3333333,653.35933,1185.0332)" clip-path="url(#clipPath16)"></path>
    <path style="font-weight:bold;font-size:65.283px;font-family:COUTURE;-inkscape-font-specification:'COUTURE Bold';fill:#385592;stroke-width:1.0932;stroke-miterlimit:3.25" d="m 1036.9528,1215.2681 -14.8193,0.065 v -8.6174 h 39.7574 v 8.6174 l -14.6887,-0.065 v 37.9947 h -10.2494 z m 61.4965,18.0181 h -21.6086 v 19.8461 h -9.9883 v -46.7427 h 9.9883 v 16.9083 h 21.6086 v -16.7777 h 10.0536 v 46.6121 h -10.0536 z m 26.4396,1.371 v 0 0 9.923 h 26.3091 v 8.6173 h -36.2321 v -46.7426 h 34.0124 v 8.6174 h -24.0894 v 10.5105 h 21.2823 v 9.0744 z m 97.7285,17.6264 h -17.2347 q -3.1336,0.9792 -6.5936,0.9792 -4.8962,0 -9.2049,-1.8279 -4.3086,-1.8932 -7.5728,-5.0921 -3.1989,-3.2641 -5.0921,-7.5728 -1.8279,-4.3087 -1.8279,-9.2049 0,-4.9615 1.8279,-9.2702 1.8932,-4.374 5.0921,-7.5728 3.2642,-3.2642 7.5728,-5.0921 4.3087,-1.8932 9.2049,-1.8932 4.9616,0 9.2702,1.8932 4.374,1.8279 7.5729,5.0921 3.2641,3.1988 5.092,7.5728 1.8932,4.3087 1.8932,9.2702 0,4.3087 -1.5015,8.1604 -1.4362,3.7864 -3.9822,6.92 h 5.4837 z m -23.8283,-36.6238 q -2.8724,0 -5.4184,1.1098 -2.5461,1.0445 -4.4393,2.9378 -1.8932,1.8932 -3.003,4.4392 -1.1098,2.4808 -1.1098,5.4185 0,2.8724 1.1098,5.4185 1.1098,2.4807 3.003,4.3739 1.8932,1.828 4.4393,2.9378 2.546,1.0445 5.4184,1.0445 2.9378,0 5.4185,-1.0445 2.5461,-1.1098 4.4393,-2.9378 1.8932,-1.8932 2.9377,-4.3739 1.1098,-2.5461 1.1098,-5.4185 0,-2.9377 -1.1098,-5.4185 -1.0445,-2.546 -2.9377,-4.4392 -1.8932,-1.8933 -4.4393,-2.9378 -2.4807,-1.1098 -5.4185,-1.1098 z m 69.7876,19.9766 q 0,9.466 -5.288,14.1011 -5.2879,4.6351 -14.6234,4.6351 -9.466,0 -14.6886,-4.5698 -5.1574,-4.6351 -5.1574,-14.1664 v -28.9856 h 10.2494 v 28.9856 q 0,1.8932 0.3265,3.7211 0.3264,1.828 1.3709,3.2642 1.0445,1.4362 2.8725,2.2849 1.8932,0.8487 5.0267,0.8487 5.4838,0 7.5729,-2.4155 2.089,-2.4808 2.089,-7.7034 v -28.9856 h 10.2495 z m 4.3739,17.6264 21.1517,-46.5468 h 10.3147 l 20.8252,46.5468 h -9.5966 l -4.8962,-10.3147 h -23.5671 l -4.8963,10.3147 z m 26.4396,-37.7988 -7.834,18.0181 h 15.4721 l -7.5728,-18.0181 z m 37.8641,3.7211 v 34.143 h -8.0951 v -46.8079 h 8.0951 3.6558 l 20.8253,29.1162 v -29.1162 h 8.6826 v 46.8079 h -8.6826 z m 53.0097,-3.917 -14.8192,0.065 v -8.6174 h 39.7573 v 8.6174 l -14.6887,-0.065 v 37.9947 h -10.2494 z m 70.3751,20.3683 q 0,9.466 -5.2879,14.1011 -5.288,4.6351 -14.6234,4.6351 -9.4661,0 -14.6887,-4.5698 -5.1574,-4.6351 -5.1574,-14.1664 v -28.9856 h 10.2495 v 28.9856 q 0,1.8932 0.3264,3.7211 0.3264,1.828 1.3709,3.2642 1.0446,1.4362 2.8725,2.2849 1.8932,0.8487 5.0268,0.8487 5.4837,0 7.5728,-2.4155 2.0891,-2.4808 2.0891,-7.7034 v -28.9856 h 10.2494 z m 9.9229,-28.9856 h 13.3178 l 10.6411,32.315 10.7064,-32.315 h 13.5136 v 46.612 h -8.6827 v -33.0332 h -0.1305 l -11.4245,33.0332 h -7.8993 l -11.4245,-32.7068 h -0.1306 v 32.7068 h -8.4868 z m 84.8679,31.1399 q 0,2.3502 0.8486,3.9823 0.8487,1.6321 2.2197,2.6766 1.4362,0.9793 3.2641,1.5015 1.8932,0.457 3.9823,0.457 1.3709,0 2.9377,-0.1958 1.5668,-0.2612 2.9378,-0.914 1.3709,-0.6528 2.2849,-1.7626 0.9139,-1.1751 0.9139,-2.9378 0,-1.8932 -1.2404,-3.0683 -1.175,-1.1751 -3.1335,-1.9585 -1.9585,-0.8487 -4.4393,-1.3709 -2.4807,-0.5876 -5.0268,-1.3057 -2.6113,-0.6528 -5.092,-1.5668 -2.4808,-0.9792 -4.4393,-2.4807 -1.9585,-1.5015 -3.1989,-3.7212 -1.1751,-2.2196 -1.1751,-5.4837 0,-3.5906 1.5016,-6.2019 1.5667,-2.6766 4.0475,-4.4393 2.4808,-1.7626 5.6143,-2.6113 3.1336,-0.8487 6.2672,-0.8487 3.6559,0 6.9853,0.8487 3.3947,0.7834 6.006,2.6113 2.6113,1.828 4.1129,4.7004 1.5667,2.8072 1.5667,6.8547 h -9.923 q -0.1305,-2.089 -0.9139,-3.46 -0.7181,-1.3709 -1.9585,-2.1543 -1.2404,-0.7834 -2.8725,-1.1098 -1.632,-0.3264 -3.46,-0.3264 -1.2404,0 -2.4807,0.2611 -1.2404,0.2611 -2.2849,0.914 -0.9793,0.6528 -1.6321,1.6973 -0.6528,0.9793 -0.6528,2.4155 0,1.3709 0.5222,2.2196 0.5223,0.8487 2.0238,1.5668 1.5668,0.6528 4.2434,1.4362 2.7419,0.7181 7.1158,1.828 0.8487,0.1958 2.2197,0.5875 1.3709,0.3264 2.8724,0.9793 1.5668,0.5875 3.0683,1.5667 1.5668,0.9793 2.8072,2.4155 1.3056,1.4362 2.089,3.46 0.7834,1.9585 0.7834,4.5698 0,3.1989 -1.2403,5.9408 -1.2404,2.7419 -3.7212,4.7656 -2.4154,1.9585 -6.0713,3.1336 -3.5906,1.1098 -8.3562,1.1098 -3.8517,0 -7.5076,-0.9792 -3.5905,-0.9793 -6.3324,-3.003 -2.7419,-2.0238 -4.4393,-5.1574 -1.632,-3.1336 -1.5667,-7.4423 z m 44.1311,-3.1335 v 0 0 9.923 h 26.3091 v 8.6173 h -36.2321 v -46.7426 h 34.0125 v 8.6174 h -24.0895 v 10.5105 h 21.2823 v 9.0744 z m 75.5977,6.1366 q -1.5015,2.8071 -3.6558,5.1573 -2.1544,2.2849 -4.831,3.9823 -2.6766,1.6321 -5.8754,2.546 -3.1336,0.914 -6.5283,0.914 -4.8963,0 -9.2049,-1.8279 -4.3087,-1.8932 -7.5076,-5.0921 -3.1989,-3.1989 -5.0921,-7.5076 -1.8279,-4.3086 -1.8279,-9.2049 0,-4.8309 1.8279,-9.1396 1.8932,-4.3087 5.0921,-7.5075 3.1989,-3.2642 7.5076,-5.0921 4.3086,-1.8932 9.2049,-1.8932 3.3294,0 6.3977,0.914 3.0683,0.8486 5.6796,2.4807 2.6766,1.5668 4.7657,3.7864 2.1543,2.2196 3.6558,4.8962 -1.5015,0.7834 -2.4155,1.3057 -0.9139,0.457 -1.7626,0.914 -0.8487,0.3917 -1.8932,0.9139 -1.0445,0.5223 -2.6766,1.3057 -1.6974,-3.003 -4.8309,-4.831 -3.1336,-1.8932 -6.92,-1.8932 -2.8725,0 -5.4185,1.1099 -2.4808,1.1098 -4.374,3.003 -1.8932,1.8279 -3.003,4.3739 -1.0445,2.5461 -1.0445,5.3532 0,2.8725 1.0445,5.4185 1.1098,2.4808 3.003,4.374 1.8932,1.8932 4.374,3.003 2.546,1.0445 5.4185,1.0445 3.9169,0 7.1158,-1.9585 3.2642,-2.0237 5.0268,-5.2879 1.6321,0.8487 2.6113,1.371 1.0445,0.5222 1.8932,0.9792 0.8487,0.457 1.7627,0.914 0.9139,0.457 2.4807,1.1751 z m 45.8939,-5.1574 q 0,9.466 -5.2879,14.1011 -5.288,4.6351 -14.6234,4.6351 -9.4661,0 -14.6887,-4.5698 -5.1573,-4.6351 -5.1573,-14.1664 v -28.9856 h 10.2494 v 28.9856 q 0,1.8932 0.3264,3.7211 0.3264,1.828 1.3709,3.2642 1.0446,1.4362 2.8725,2.2849 1.8932,0.8487 5.0268,0.8487 5.4838,0 7.5728,-2.4155 2.0891,-2.4808 2.0891,-7.7034 v -28.9856 h 10.2494 z m 34.9916,0.3917 h 0.3917 l 12.0774,17.3 h -11.5551 l -11.751,-16.7777 h -5.0268 v 16.7777 h -10.3147 v -46.6773 h 21.0212 q 4.3739,0 7.4422,1.3056 3.1336,1.2404 5.0921,3.3295 1.9585,2.089 2.8072,4.8309 0.9139,2.6766 0.9139,5.4838 0,2.3502 -0.6528,4.7003 -0.6528,2.2849 -2.0238,4.2434 -1.3056,1.9585 -3.3947,3.3948 -2.0891,1.4362 -5.0268,2.089 z m -7.8992,-21.4128 h -7.9646 v 14.0358 h 7.9646 q 1.8279,0 3.46,-0.2611 1.632,-0.2611 2.8071,-1.0445 1.2404,-0.7834 1.9585,-2.1544 0.7181,-1.3709 0.7181,-3.5905 0,-2.2849 -0.7181,-3.6559 -0.7181,-1.3709 -1.9585,-2.089 -1.1751,-0.7834 -2.8071,-0.9793 -1.6321,-0.2611 -3.46,-0.2611 z m 28.8549,-7.9645 h 10.2495 v 46.612 h -10.2495 z m 31.0746,8.6173 -14.8192,0.065 v -8.6174 h 39.7573 v 8.6174 l -14.6886,-0.065 v 37.9947 h -10.2495 z m 42.891,19.846 -17.1694,-28.4633 h 11.555 l 10.9023,18.4098 10.837,-18.4098 h 11.4245 l -17.3,28.7245 v 17.8875 h -10.2494 z m 93.2893,5.6797 q -1.5015,2.8071 -3.6558,5.1573 -2.1543,2.2849 -4.8309,3.9823 -2.6766,1.6321 -5.8755,2.546 -3.1336,0.914 -6.5283,0.914 -4.8962,0 -9.2049,-1.8279 -4.3087,-1.8932 -7.5076,-5.0921 -3.1988,-3.1989 -5.092,-7.5076 -1.828,-4.3086 -1.828,-9.2049 0,-4.8309 1.828,-9.1396 1.8932,-4.3087 5.092,-7.5075 3.1989,-3.2642 7.5076,-5.0921 4.3087,-1.8932 9.2049,-1.8932 3.3294,0 6.3977,0.914 3.0683,0.8486 5.6796,2.4807 2.6766,1.5668 4.7657,3.7864 2.1543,2.2196 3.6558,4.8962 -1.5015,0.7834 -2.4154,1.3057 -0.914,0.457 -1.7627,0.914 -0.8486,0.3917 -1.8932,0.9139 -1.0445,0.5223 -2.6766,1.3057 -1.6973,-3.003 -4.8309,-4.831 -3.1336,-1.8932 -6.92,-1.8932 -2.8725,0 -5.4185,1.1099 -2.4808,1.1098 -4.374,3.003 -1.8932,1.8279 -3.003,4.3739 -1.0445,2.5461 -1.0445,5.3532 0,2.8725 1.0445,5.4185 1.1098,2.4808 3.003,4.374 1.8932,1.8932 4.374,3.003 2.546,1.0445 5.4185,1.0445 3.917,0 7.1158,-1.9585 3.2642,-2.0237 5.0268,-5.2879 1.6321,0.8487 2.6113,1.371 1.0446,0.5222 1.8933,0.9792 0.8486,0.457 1.7626,0.914 0.914,0.457 2.4807,1.1751 z m 51.2471,-11.0329 q 0,5.0268 -1.9585,9.4008 -1.8932,4.374 -5.1573,7.6381 -3.2642,3.2642 -7.7034,5.1574 -4.374,1.8932 -9.3355,1.8932 -5.0268,0 -9.4007,-1.8932 -4.374,-1.8932 -7.6381,-5.1574 -3.2642,-3.2641 -5.1574,-7.6381 -1.8932,-4.374 -1.8932,-9.4008 0,-5.0268 1.8932,-9.4007 1.8932,-4.4393 5.1574,-7.7034 3.2641,-3.2642 7.6381,-5.1574 4.3739,-1.8932 9.4007,-1.8932 4.9615,0 9.3355,1.8932 4.4392,1.8932 7.7034,5.1574 3.2641,3.2641 5.1573,7.7034 1.9585,4.3739 1.9585,9.4007 z m -24.1547,-14.2969 q -2.9377,0 -5.549,1.1751 -2.5461,1.1098 -4.5046,3.0683 -1.8932,1.9584 -3.0683,4.5698 -1.1098,2.546 -1.1098,5.4837 0,2.9378 1.1098,5.5491 1.1751,2.546 3.0683,4.5045 1.9585,1.8932 4.5046,3.0683 2.6113,1.1098 5.549,1.1098 2.9378,0 5.4838,-1.1098 2.546,-1.1751 4.4392,-3.0683 1.9585,-1.9585 3.0683,-4.5045 1.1098,-2.6113 1.1098,-5.5491 0,-2.9377 -1.1098,-5.4837 -1.1098,-2.6114 -3.0683,-4.5698 -1.8932,-1.9585 -4.4392,-3.0683 -2.546,-1.1751 -5.4838,-1.1751 z m 31.14,-8.8132 h 13.3177 l 10.6412,32.315 10.7064,-32.315 h 13.5136 v 46.612 h -8.6827 v -33.0332 h -0.1306 l -11.4245,33.0332 h -7.8992 l -11.4245,-32.7068 h -0.1306 v 32.7068 h -8.4868 z m 58.1019,0 h 21.0211 q 4.3739,0 7.4422,1.3056 3.0683,1.2404 4.9616,3.3295 1.9584,2.089 2.8071,4.8309 0.914,2.6766 0.914,5.4838 0,2.8724 -0.914,5.549 -0.8487,2.6766 -2.8071,4.7657 -1.8933,2.089 -4.9616,3.3947 -3.0683,1.2404 -7.4422,1.2404 h -10.7717 v 16.7124 h -10.2494 z m 10.2494,21.935 h 7.9645 q 1.7627,0 3.3947,-0.2611 1.6321,-0.2611 2.8725,-0.9792 1.2404,-0.7834 1.9585,-2.1544 0.7834,-1.3709 0.7834,-3.5905 0,-2.2197 -0.7834,-3.5906 -0.7181,-1.3709 -1.9585,-2.0891 -1.2404,-0.7834 -2.8725,-1.0445 -1.632,-0.2611 -3.3947,-0.2611 h -7.9645 z m 24.024,24.677 21.1517,-46.5468 h 10.3147 l 20.8252,46.5468 h -9.5966 l -4.8962,-10.3147 h -23.5671 l -4.8963,10.3147 z m 26.4396,-37.7988 -7.834,18.0181 h 15.4721 l -7.5728,-18.0181 z m 37.8641,3.7211 v 34.143 h -8.0951 v -46.8079 h 8.0951 3.6558 l 20.8253,29.1162 v -29.1162 h 8.6826 v 46.8079 h -8.6826 z m 53.2708,15.929 -17.1694,-28.4633 h 11.5551 l 10.9023,18.4098 10.8369,-18.4098 h 11.4246 l -17.3,28.7245 v 17.8875 h -10.2495 z" id="text5" transform="scale(0.90670872,1.10289)" aria-label="THE QUANTUM SECURITY COMPANY"></path>
  </g>
</svg>
