<?xml version="1.0" encoding="UTF-8" standalone="no"?>
<svg
   xmlns:dc="http://purl.org/dc/elements/1.1/"
   xmlns:cc="http://creativecommons.org/ns#"
   xmlns:rdf="http://www.w3.org/1999/02/22-rdf-syntax-ns#"
   xmlns:svg="http://www.w3.org/2000/svg"
   xmlns="http://www.w3.org/2000/svg"
   xmlns:sodipodi="http://sodipodi.sourceforge.net/DTD/sodipodi-0.dtd"
   xmlns:inkscape="http://www.inkscape.org/namespaces/inkscape"
   version="1.1"
   id="svg2"
   xml:space="preserve"
   width="485"
   height="485"
   viewBox="0 0 485 485"
   sodipodi:docname="MIM_logo_sygnet.svg"
   inkscape:version="0.92.5 (0.92.5+68)"><metadata
     id="metadata8"><rdf:RDF><cc:Work
         rdf:about=""><dc:format>image/svg+xml</dc:format><dc:type
           rdf:resource="http://purl.org/dc/dcmitype/StillImage" /><dc:title></dc:title></cc:Work></rdf:RDF></metadata><defs
     id="defs6" /><sodipodi:namedview
     pagecolor="#ffffff"
     bordercolor="#666666"
     borderopacity="1"
     objecttolerance="10"
     gridtolerance="10"
     guidetolerance="10"
     inkscape:pageopacity="0"
     inkscape:pageshadow="2"
     inkscape:window-width="1855"
     inkscape:window-height="933"
     id="namedview4"
     showgrid="false"
     units="px"
     inkscape:zoom="1.3080435"
     inkscape:cx="377.95334"
     inkscape:cy="269.94004"
     inkscape:window-x="65"
     inkscape:window-y="24"
     inkscape:window-maximized="1"
     inkscape:current-layer="g10" /><g
     id="g10"
     inkscape:groupmode="layer"
     inkscape:label="ink_ext_XXXXXX"
     transform="matrix(1.3333333,0,0,-1.3333333,0,485)"><g
       id="g12"
       transform="matrix(0.1,0,0,0.1,-100.42771,-45.475903)"><path
         d="m 2636.41,2561.34 -318.37,-680.06 -426.7,877.1 c -6.97,15.34 -12.55,20.92 -20.92,20.92 -8.36,0 -13.95,-9.76 -15.33,-25.1 l -100.4,-909.17 c -5.58,-52.99 -9.76,-107.36 -55.78,-115.73 -20.91,-4.18 -56.02,-4.18 -67.18,-4.18 -6.97,0 -13.94,-2.8 -13.94,-6.98 0,-9.77 9.76,-12.54 23.69,-12.54 37.67,0 129.94,4.18 142.48,4.18 11.17,0 78.1,-4.18 129.7,-4.18 16.73,0 25.09,2.77 25.09,12.54 0,4.18 -5.57,6.98 -11.15,6.98 -8.37,0 -29.28,1.38 -53,6.96 -20.91,4.18 -36.25,22.31 -36.25,43.23 0,23.7 0,48.8 1.4,71.12 l 55.78,647.01 h 5.57 c 15.34,-37.65 171.52,-372.31 184.07,-397.4 6.97,-13.96 126.89,-255.19 163.15,-323.52 26.48,-50.2 33.47,-64.15 43.23,-64.15 12.55,0 16.73,12.56 46.01,73.92 l 298.85,634.28 v 144.77"
         style="fill:#231f20;fill-opacity:1;fill-rule:nonzero;stroke:none"
         id="path14"
         inkscape:connector-curvature="0" /><path
         d="m 2979.49,2748.02 c 0,8.37 -6.97,11.16 -22.31,11.16 -41.83,0 -129.68,-4.19 -136.65,-4.19 -6.98,0 -94.83,4.19 -140.84,4.19 -15.34,0 -22.31,-2.79 -22.31,-11.16 0,-5.58 5.57,-8.37 11.15,-8.37 9.76,0 27.89,-1.39 43.23,-5.57 30.68,-6.98 44.62,-30.68 47.41,-78.09 2.79,-44.62 2.79,-83.67 2.79,-301.2 v -161.9 -83.52 c 0,-78.43 -0.01,-148.61 -1.41,-205.16 h 1.14 c -0.32,-49.54 -1.02,-72.01 -2.52,-96.05 -2.79,-47.4 -16.73,-71.1 -47.41,-78.08 -15.34,-4.18 -33.47,-5.57 -43.23,-5.57 -5.58,0 -11.15,-2.79 -11.15,-8.37 0,-8.38 6.97,-11.16 22.31,-11.16 46.01,0 133.86,4.19 140.84,4.19 6.97,0 94.82,-4.19 136.65,-4.19 15.34,0 22.31,2.78 22.31,11.16 0,5.58 -5.58,8.37 -11.16,8.37 -9.77,0 -18.12,1.39 -34.86,4.18 -37.65,6.96 -48.8,30.68 -51.59,79.47 -1.5,24.04 -2.2,46.51 -2.52,96.05 h 1.14 c -1.4,56.55 -1.41,126.73 -1.41,205.16 v 83.52 161.9 c 0,217.53 0,256.58 2.79,301.2 2.79,48.8 13.94,72.51 51.59,79.48 16.74,2.79 25.09,4.18 34.86,4.18 5.58,0 11.16,2.79 11.16,8.37"
         style="fill:#231f20;fill-opacity:1;fill-rule:nonzero;stroke:none"
         id="path16"
         inkscape:connector-curvature="0" /><path
         d="m 3035.32,2561.34 318.37,-680.06 426.7,877.1 c 6.97,15.34 12.55,20.92 20.91,20.92 8.37,0 13.95,-9.76 15.34,-25.1 l 100.4,-909.17 c 5.58,-52.99 9.76,-107.36 55.78,-115.73 20.91,-4.18 56.02,-4.18 67.18,-4.18 6.97,0 13.95,-2.8 13.95,-6.98 0,-9.77 -9.77,-12.54 -23.71,-12.54 -37.66,0 -129.93,4.18 -142.48,4.18 -11.16,0 -78.09,-4.18 -129.68,-4.18 -16.74,0 -25.11,2.77 -25.11,12.54 0,4.18 5.58,6.98 11.16,6.98 8.37,0 29.28,1.38 52.99,6.96 20.93,4.18 36.25,22.31 36.25,43.23 0,23.7 0,48.8 -1.39,71.12 l -55.78,647.01 h -5.57 c -15.34,-37.65 -171.52,-372.31 -184.07,-397.4 -6.97,-13.96 -126.89,-255.19 -163.15,-323.52 -26.49,-50.2 -33.47,-64.15 -43.22,-64.15 -12.55,0 -16.74,12.56 -46.02,73.92 l -298.85,634.28 v 144.77"
         style="fill:#231f20;fill-opacity:1;fill-rule:nonzero;stroke:none"
         id="path18"
         inkscape:connector-curvature="0" /><path
         d="m 1846.65,3563.44 c 25.83,0 46.76,20.94 46.76,46.77 0,25.83 -20.93,46.77 -46.76,46.77 -25.83,0 -46.78,-20.94 -46.78,-46.77 0,-25.83 20.95,-46.77 46.78,-46.77"
         style="fill:#231f20;fill-opacity:1;fill-rule:nonzero;stroke:none"
         id="path20"
         inkscape:connector-curvature="0" /><path
         d="m 3897.58,3563.44 c 25.83,0 46.78,20.94 46.78,46.77 0,25.83 -20.95,46.77 -46.78,46.77 -25.83,0 -46.77,-20.94 -46.77,-46.77 0,-25.83 20.94,-46.77 46.77,-46.77"
         style="fill:#231f20;fill-opacity:1;fill-rule:nonzero;stroke:none"
         id="path22"
         inkscape:connector-curvature="0" /><path
         d="m 1627.81,3150.65 c 5.76,-4.07 8.71,-5.19 10.43,-3.24 1.7,1.94 0.72,4.76 -0.79,8.06 l -102.9,234.73 249.37,-68.22 c 4.26,-1.29 6.35,-1.16 7.82,0.51 1.45,1.67 0.49,4.49 -2.33,7.44 l -163.65,178.88 c -9.58,10.37 -19.7,20.71 -13.32,31.34 2.81,4.9 4.53,6.84 6.48,9.07 1.22,1.39 1.88,3.26 1.04,3.99 -1.94,1.71 -4.2,0.25 -6.64,-2.53 -6.58,-7.5 -17.45,-21.57 -19.63,-24.07 -1.95,-2.23 -14.49,-14.84 -23.5,-25.12 -2.92,-3.33 -3.83,-5.49 -1.88,-7.19 0.83,-0.73 2.35,-0.11 3.34,1 1.46,1.67 5.39,5.59 10.64,9.34 4.49,3.44 10.79,3.33 14.96,-0.32 4.72,-4.15 9.72,-8.53 13.93,-12.71 l 119.2,-124.17 -0.98,-1.11 c -10.19,3.52 -104.17,30.87 -111.36,32.75 -4,1.05 -73.04,19.3 -92.99,24.02 -14.63,3.49 -18.63,4.53 -20.33,2.59 -2.2,-2.5 -0.42,-5.53 6.69,-22.09 l 84.82,-194.79 -0.73,-0.83 -155.94,113.12 c -5.49,3.83 -9.98,8.25 -9.03,9.88 0.93,1.63 0.87,2.68 -0.24,3.65 -1.39,1.22 -3.44,0.56 -9.61,-5.34 -9.85,-9.55 -36.43,-39.33 -41.79,-45.44 -2.92,-3.33 -4.29,-6.57 -2.63,-8.03 1.13,-0.97 2.12,-0.38 3.34,1.01 2.45,2.78 8.77,10 18.34,15.87 14.37,8.54 31.64,-3.16 42.63,-10.82 z m -250.63,56.79 c -10.4,13.56 -16.68,24.65 -10.67,38.28 1.01,2.41 3.17,6.72 4.31,8.62 0.76,1.27 0.57,3.11 -0.7,3.87 -1.58,0.95 -3.36,-0.57 -5.45,-4.06 -6.84,-11.41 -14.25,-25.93 -15.96,-28.78 -1.9,-3.17 -11.97,-17.82 -15.97,-24.48 -1.51,-2.53 -1.82,-4.5 -0.24,-5.45 1.26,-0.76 2.6,-0.7 3.93,1.52 l 1.51,2.54 c 2.86,4.76 7.61,8.37 13,5.14 4.75,-2.85 10.47,-8.43 15.6,-14.95 l 33.62,-41.69 c 1.2,-1.59 1.26,-2.92 0.49,-4.19 l -38.57,-64.35 c -0.94,-1.59 -1.45,-1.71 -3.1,-1.59 l -76.82,12.01 c -5.58,0.76 -6.1,4.94 -5.77,6.91 0.11,1.64 0.49,2.28 -0.77,3.04 -1.58,0.95 -4.24,-3.49 -7.79,-8.69 -12.22,-18.96 -24.57,-39.56 -27.04,-43.68 -1.9,-3.17 -3.17,-6.72 -1.6,-7.67 1.6,-0.95 3.36,0.57 4.32,2.15 1.7,2.86 4.5,6.79 8.24,10.15 5.51,4.88 13.56,10.4 43.72,6.1 51.17,-7.39 189.23,-29.39 203.69,-31.15 7.72,-0.76 12.09,-2.09 13.8,0.76 1.15,1.91 0.33,4.12 -6.47,12.93 z m 32.3,-74.08 c 0.56,0.95 1.38,0.89 2.46,-0.19 l 58.29,-70.27 c 3.18,-4.06 2.23,-5.64 -2.84,-4.76 l -90.4,16.7 c -1.46,0.44 -2.09,0.82 -1.34,2.09 z m -8.66,-281.71 -16.75,-37.06 c -12.95,-28.23 -22.18,-31.9 -31.44,-29.12 l -3.21,0.97 c -4.21,1.42 -5.52,1.18 -6.11,-0.18 -0.59,-1.36 0.19,-3.3 2.56,-4.33 3.41,-1.46 23.68,-11.38 32.5,-15.18 1.7,-0.73 3.4,-1.46 3.97,-0.1 0.59,1.35 1.09,4.36 2.3,9.07 1.37,5.04 3.62,12.13 7.85,21.97 l 48.49,112.72 c 1.46,3.4 6.76,14.79 11.44,22.84 4.51,7.71 8.21,9.75 9.08,11.78 0.44,1.02 -2.55,4.33 -4.11,5.4 -2.08,1.7 -25.4,18.57 -28.46,19.88 -1.69,0.73 -2.96,-0.33 -3.26,-1.01 -0.57,-1.36 -0.67,-2.52 1.41,-4.22 1.6,-1.9 3.49,-3.11 7.11,-8.7 4.91,-7.34 3.88,-15.34 -3.82,-34.16 l -17.87,-43.41 -121.22,52.14 c -27.83,11.98 -50.57,21.76 -61.88,28.23 -8.04,4.67 -13.08,8.85 -11.81,15.55 0.49,3.01 1.27,6.7 2.43,9.41 0.74,1.7 0,2.82 -1.02,3.25 -1.7,0.74 -2.96,-0.33 -4.42,-3.73 -3.79,-8.82 -11.68,-29.97 -12.27,-31.33 -0.72,-1.7 -9.92,-20.27 -16.93,-36.57 -1.46,-3.39 -1.03,-5.19 0.33,-5.77 1.01,-0.44 2.52,-0.69 3.4,1.35 1.17,2.72 4.77,9.21 7.19,13 5.31,8.58 11.33,7.6 20.25,4.97 12.46,-3.76 35.22,-13.54 63.05,-25.52 z m -178.04,-98.22 c -29.21,8.1 -53.06,14.71 -65.04,19.95 -8.5,3.89 -14.37,6.29 -13.76,12.64 0.43,2.94 0.45,7.16 1.24,10.01 0.51,1.78 -0.72,2.89 -1.79,3.18 -1.78,0.5 -3,-1.09 -3.88,-4.29 -1.39,-4.99 -3,-12.21 -4.33,-18.36 -1.51,-6.87 -3.19,-12.93 -3.39,-13.64 -1.28,-4.63 -3.55,-12.82 -7.92,-25.8 -3.91,-12.72 -9.66,-30.69 -16.19,-54.2 -3.35,-12.11 -4.24,-15.31 3.01,-19.62 5.91,-3.56 25.88,-11.78 28.02,-12.37 2.12,-0.6 4.73,-0.93 5.21,0.85 0.5,1.78 -0.38,2.79 -3.74,4.49 -11.62,5.14 -15.76,10.89 -17.06,20.07 -0.93,9.08 3.22,24.04 5.49,32.23 8.59,30.99 14.08,35.6 34.59,30.68 6.14,-1.32 41.32,-11.45 51.64,-14.32 l 25.29,-7.01 c 1.07,-0.29 2.04,-0.95 1.54,-2.73 -1.49,-5.34 -11.12,-38.72 -14.55,-46.97 -4.79,-11.72 -9.14,-13.58 -13.71,-13.46 -4.31,-0.34 -7.52,0.55 -10.37,1.34 -1.79,0.49 -3.05,0.08 -3.45,-1.35 -0.58,-2.13 2.43,-3.74 4.92,-4.43 2.13,-0.59 13.34,-4.46 19.19,-6.85 9.78,-3.48 14.27,-6.64 16.05,-7.14 1.78,-0.49 2.69,0.02 2.99,1.09 0.3,1.07 -1.1,2.99 -2.63,5.72 -2.32,4.09 -1.4,8.82 -0.03,16.5 1.26,7.32 12.72,48.63 13.8,52.55 0.49,1.78 1.57,1.49 3.7,0.89 l 82.28,-22.81 c 2.13,-0.59 3.1,-1.25 2.71,-2.67 -0.99,-3.56 -11.42,-39.79 -13.62,-44.94 -6.88,-16.5 -9.9,-19.11 -15.48,-19.87 -3.95,-0.43 -9.04,0.59 -11.18,1.18 -2.5,0.7 -4.11,0.38 -4.61,-1.4 -0.4,-1.43 1.1,-2.99 2.42,-3.74 3.37,-1.7 16.7,-6.17 19.44,-7.31 8.35,-3.08 11.43,-5.85 13.56,-6.45 1.43,-0.39 2.95,-0.43 3.25,0.64 0.4,1.42 -0.29,3.14 -0.24,4.67 0.33,2.59 0.85,8.58 2.17,14.74 1.62,7.22 20.15,72.65 20.74,74.79 0.5,1.78 6.83,21.89 10.78,36.13 0.99,3.56 0.68,5.19 -1.1,5.68 -1.07,0.3 -2.9,-0.73 -3.19,-1.8 -0.79,-2.85 -2.63,-8.09 -3.67,-10.49 -4.29,-9.93 -9.78,-10.33 -20.3,-8.18 -9.81,1.96 -18.36,4.33 -65.37,17.36 z m 63.74,-436.16 c 5.97,0.1 8.73,1.66 8.98,3.86 0.24,2.21 -1.81,3.91 -4.59,5.7 l -183.5,114.97 204.57,76.81 c 3.86,1.44 5.25,3.89 5.49,6.1 0.2,1.83 -1.85,3.54 -5.12,4.27 l -201.4,45.53 c -11.6,2.74 -22.95,4.33 -23.65,15.19 -0.22,4.85 -0.34,7.1 -0.06,9.67 0.2,1.84 -0.75,3.43 -1.85,3.55 -2.21,0.23 -3.17,-1.89 -3.53,-5.2 -0.95,-8.82 -1.52,-24.37 -1.84,-27.31 -0.27,-2.57 -3.04,-17.89 -4.36,-30.01 -0.4,-3.68 0.11,-5.96 2.31,-6.2 1.11,-0.12 2.37,1.23 2.48,2.33 0.25,2.21 1.13,6.95 3.19,12.3 1.61,4.66 4.88,7.28 9.66,6.76 5.14,-0.55 11.02,-1.19 15.76,-2.07 l 139.76,-27.72 -0.16,-1.47 c -13.46,-4.13 -68.83,-24.55 -89.7,-31.96 -17.77,-6.26 -60.13,-23.25 -76.47,-30.03 -12.07,-5.02 -15.21,-6.54 -15.52,-9.48 -0.32,-2.94 2.41,-5.09 15.3,-13.18 l 151.06,-95.11 -0.06,-0.74 -160.42,1.7 c -5.96,-0.1 -10.69,0.79 -10.86,2.66 -0.21,1.51 -1.23,2.37 -2.33,2.49 -1.48,0.15 -2.75,-1.2 -4.3,-8.83 -2.39,-11.64 -6.63,-47.62 -7.43,-54.97 -0.4,-3.67 0.4,-6.73 2.23,-6.93 1.47,-0.16 2.33,0.87 2.49,2.34 0.35,3.3 1.26,11.76 5.2,20.63 5.83,12.75 22.97,13.13 34.12,13.04 z m -199.75,-91.66 c -16.22,5.37 -27.65,11.01 -30.33,25.67 -0.52,2.56 -1.16,7.34 -1.29,9.55 -0.08,1.48 -1.28,2.89 -2.75,2.8 -1.85,-0.1 -2.46,-2.36 -2.23,-6.42 0.76,-13.28 2.78,-29.45 2.97,-32.77 0.21,-3.69 0.13,-21.47 0.57,-29.22 0.17,-2.95 1.01,-4.75 2.86,-4.65 1.47,0.09 2.54,0.9 2.39,3.47 l -0.18,2.95 c -0.3,5.54 1.59,11.2 7.87,11.56 5.53,0.31 13.38,-1.09 21.29,-3.6 l 51.24,-15.59 c 1.89,-0.63 2.7,-1.7 2.78,-3.17 l 4.27,-74.91 c 0.11,-1.84 -0.24,-2.23 -1.67,-3.06 l -70.3,-33.25 c -5.04,-2.51 -7.81,0.67 -8.65,2.47 -0.82,1.43 -0.86,2.17 -2.34,2.08 -1.85,-0.1 -1.56,-5.27 -1.57,-11.56 0.55,-22.55 1.92,-46.54 2.19,-51.33 0.22,-3.69 1.15,-7.34 3,-7.24 1.85,0.11 2.47,2.36 2.36,4.21 -0.19,3.32 -0.09,8.14 1.11,13.02 1.81,7.14 5.37,16.22 32.74,29.63 46.46,22.64 173,82.06 185.96,88.72 6.81,3.72 11.18,5.08 10.99,8.4 -0.12,2.22 -2.05,3.59 -12.61,7.06 z m 68.36,-43.11 c -0.06,1.1 0.65,1.51 2.15,1.23 l 87.7,-25.36 c 4.91,-1.57 5.01,-3.41 0.32,-5.53 l -84.15,-37.01 c -1.45,-0.45 -2.19,-0.49 -2.27,0.98 z m 150.2,-236.9 7.17,-40.02 c 5.31,-30.6 -0.21,-38.85 -9.43,-41.81 l -3.19,-1.01 c -4.28,-1.22 -5.22,-2.16 -4.93,-3.61 0.28,-1.45 2.02,-2.61 4.56,-2.11 3.62,0.72 25.95,4.01 35.38,5.88 1.81,0.36 3.63,0.72 3.34,2.17 -0.29,1.45 -1.58,4.2 -3.24,8.77 -1.73,4.93 -3.91,12.04 -5.99,22.56 l -23.83,120.36 c -0.72,3.63 -2.8,16.03 -3.51,25.31 -0.64,8.91 1.26,12.68 0.82,14.86 -0.21,1.08 -4.56,2.11 -6.44,2.11 -2.69,0.22 -31.46,0.93 -34.72,0.28 -1.82,-0.36 -2.25,-1.95 -2.12,-2.68 0.3,-1.44 0.88,-2.46 3.55,-2.69 2.4,-0.65 4.65,-0.59 10.79,-3.13 8.2,-3.28 11.88,-10.46 16.19,-30.33 l 9.85,-45.9 -129.43,-25.64 c -29.73,-5.89 -54.02,-10.71 -67.01,-11.77 -9.27,-0.71 -15.8,-0.12 -18.54,6.12 -1.29,2.76 -2.74,6.24 -3.32,9.14 -0.35,1.82 -1.58,2.32 -2.68,2.11 -1.8,-0.36 -2.24,-1.95 -1.52,-5.58 1.87,-9.43 7.32,-31.33 7.62,-32.78 0.35,-1.81 3.3,-22.33 6.74,-39.73 0.72,-3.63 2.1,-4.86 3.55,-4.57 1.07,0.21 2.46,0.86 2.03,3.04 -0.57,2.9 -1.28,10.29 -1.42,14.79 -0.49,10.07 5.02,12.67 13.87,15.56 12.4,3.96 36.69,8.77 66.41,14.66 z m -112.85,-236.61 c -4.91,-1.63 -17.54,-5.82 -30.05,-9.19 -9,-2.2 -15.33,-1.96 -18.81,3.89 -1.63,2.58 -3.5,5.85 -4.44,8.66 -0.58,1.75 -2.21,1.99 -3.26,1.64 -1.75,-0.58 -1.99,-2.22 -0.83,-5.73 3.03,-9.12 10.58,-28.41 11.06,-29.82 0.57,-1.75 6.15,-22.1 11.86,-39.29 1.04,-3.16 2.67,-4.56 4.07,-4.1 1.05,0.35 2.23,1.52 1.65,3.27 -0.93,2.81 -2.55,10.06 -3.26,14.5 -1.61,9.59 3.3,13.56 11.83,17.16 11.94,5.13 24.57,9.31 29.49,10.94 l 25.61,8.49 c 9.82,3.26 18.83,7.8 31.09,6.03 14.73,-2.13 99.31,-22.37 114.62,-28.59 10.26,-3.99 14.36,-5.75 19.84,-10.55 4.44,-3.98 7.47,-9.6 8.64,-13.1 0.81,-2.46 3.02,-3.28 4.43,-2.82 1.05,0.35 1.17,2.34 0.47,4.44 -1.97,5.97 -10.01,27.84 -10.7,29.94 -0.81,2.46 -3.72,13.57 -6.4,21.64 -1.05,3.15 -2.32,4.67 -3.37,4.33 -1.42,-0.47 -2.24,-2.69 -2.01,-5.73 0.12,-3.86 -1.88,-6.07 -6.09,-7.47 -3.85,-1.28 -9.22,-1.5 -17.17,0.15 -11.68,2.35 -88.33,19.78 -103.05,21.9 l 74.36,86.96 c 3.15,3.38 5.97,6.65 10.18,8.04 2.46,0.82 4.33,-0.12 6.19,-2.23 1.98,-2.45 3.73,-4.21 4.79,-3.86 1.39,0.46 1.87,1.4 0.71,4.91 -3.96,11.92 -8.85,24.32 -9.55,26.43 -0.46,1.4 -7.44,24.79 -9.41,30.75 -0.93,2.81 -1.98,3.63 -3.39,3.16 -1.4,-0.46 -2.34,-2.33 -1.77,-4.09 0.82,-2.45 1.4,-8.88 0.11,-14.37 -2,-6.89 -6.22,-16.47 -15.01,-27.56 -12.3,-15.76 -64.76,-79.49 -68.51,-83.46 -6.9,-7.35 -12.18,-11.43 -28.31,-16.78 z m 98.18,-158.22 c -27.06,-13.65 -49.17,-24.8 -61.54,-28.98 -8.92,-2.84 -14.54,-4.85 -18.69,0.1 -1.98,2.3 -4.47,5.6 -5.82,8.24 -0.83,1.65 -2.48,1.64 -3.46,1.14 -1.65,-0.83 -1.48,-2.81 0.02,-5.78 4.49,-8.91 14.3,-25.9 15.47,-28.21 1.17,-2.31 8.99,-20.3 16.16,-34.49 1.67,-3.3 3.32,-4.12 4.64,-3.45 0.99,0.5 1.97,1.82 1.14,3.47 -1.32,2.64 -2.99,7.6 -4.33,11.89 -3.19,9.57 1.43,13.56 9.19,18.71 10.88,7.15 32.99,18.3 60.05,31.95 l 27.37,13.82 0.68,-1.32 c -9.51,-22.18 -43.05,-115.69 -46.62,-134.05 -3.25,-17.37 -5.68,-28.12 0.65,-43.97 2.67,-6.93 5.34,-12.21 9.5,-20.45 l 7.48,-14.86 c 2.5,-4.95 4.16,-5.77 5.49,-5.1 1.32,0.66 1.47,2.81 0.47,4.79 -1,1.98 -4.17,10.73 -5.03,19.82 -1.39,16.69 0.59,21.82 10.04,57.23 4.9,17.37 34.81,108.22 39.23,119.98 10.1,-2.78 82.59,-28.3 92.85,-32.23 18.71,-6.71 27.81,-9.15 39.08,-18.37 5.13,-4.44 9.94,-9.88 12.12,-14.17 1.15,-2.31 2.48,-2.47 3.8,-1.81 1.31,0.67 1.31,2.32 -0.18,5.29 -3.66,7.26 -13.98,26.07 -14.81,27.72 -3.51,6.93 -7.33,16.17 -10.34,22.11 -0.99,1.98 -2.32,2.97 -3.63,2.3 -1,-0.5 -1.82,-2.15 -1.31,-3.97 0.83,-2.48 -0.15,-4.63 -3.78,-6.46 -4.63,-2.33 -15.72,1.6 -28.12,5.68 -16.72,5.23 -94.01,31.23 -101.61,33.19 l -0.67,1.32 16.82,8.49 c 43.57,21.97 51.49,25.97 60.73,29.81 10.23,4.33 15.19,4.35 20.67,-2.41 2.49,-3.3 3.33,-4.95 4.32,-6.93 0.67,-1.31 2.49,-1.64 3.48,-1.14 1.65,0.83 1.63,2.49 -0.03,5.79 -4.32,8.58 -13.81,25.73 -15.14,28.37 -0.83,1.65 -9.16,19.8 -15.82,33 -1.66,3.3 -3,4.29 -4.64,3.46 -0.99,-0.5 -1.64,-2.49 -1.14,-3.48 1.32,-2.64 3.5,-7.76 4.33,-10.23 3.51,-10.24 -0.29,-14.22 -9.52,-19.71 -8.57,-5.15 -16.49,-9.15 -60.05,-31.12 z m 184.71,-216.05 c 40.59,27.06 47.96,31.98 56.48,37.21 9.63,5.54 14.35,6.46 20.81,0.11 2.67,-2.67 3.9,-4.51 5.13,-6.36 0.6,-0.92 2.65,-1.33 3.58,-0.71 1.54,1.02 1.34,2.66 -0.72,5.74 -5.53,8.3 -17.83,25.42 -18.65,26.65 -1.03,1.53 -11.69,18.86 -17.64,27.77 -2.06,3.08 -3.5,3.9 -5.02,2.87 -0.93,-0.61 -1.54,-2.35 -0.72,-3.58 1.22,-1.85 3.18,-5.44 4.61,-8.92 2.66,-6.66 0.1,-11.48 -8.41,-18.04 -7.89,-6.16 -15.26,-11.08 -55.86,-38.15 l -46.12,-30.75 c -25.21,-16.82 -46.02,-30.25 -57.61,-36.2 -8.3,-4.2 -13.83,-6.56 -18.55,-2.14 -2.26,2.04 -5.12,5.01 -6.76,7.47 -1.03,1.54 -2.67,1.33 -3.59,0.72 -1.54,-1.03 -1.13,-2.98 0.72,-5.74 5.54,-8.31 17.74,-24.6 18.76,-26.14 0.82,-1.23 11.59,-19.37 21.64,-34.44 2.05,-3.08 3.79,-3.69 5.02,-2.87 0.91,0.61 1.73,2.05 0.71,3.59 -1.63,2.46 -4.91,8.71 -6.97,13.12 -4.11,8.81 0.21,13.02 7.28,19.07 9.94,8.4 30.53,22.14 55.76,38.97 z m -53.96,-175.89 c -5.56,-4.3 -13.86,-7.47 -26.18,-9.08 -1.61,-0.32 -4.5,-0.22 -5.66,-1.13 -1.18,-0.9 -1.14,-2.75 -0.46,-3.63 0.9,-1.17 3.2,-1.72 5.57,-1.76 15.4,-1.15 36.77,3.28 45.74,5.57 4.94,1.48 11.33,4.1 13.66,5.92 2.62,2.04 5.81,6.38 8.69,14.71 2.42,6.54 2.61,8.1 1.48,9.56 -5.9,7.59 -21.64,12.21 -29.83,5.86 -3.49,-2.72 0.41,-15.59 -13.01,-26.02 m 321.95,-98.84 c 39.04,42.43 46.04,50.05 54.59,58.25 9.31,9.02 15.74,11.65 24.34,6.25 3.75,-2.46 5.63,-3.69 7.54,-5.44 1.09,-1 2.67,-1.46 3.68,-0.37 1.5,1.64 0.65,3.43 -2.35,6.18 -8.16,7.51 -26.05,22.46 -27.41,23.71 -1.36,1.25 -17.74,17.83 -26.72,26.09 -2.99,2.75 -4.85,3.46 -6.36,1.82 -0.99,-1.09 -0.42,-2.63 0.68,-3.63 1.91,-1.75 5.19,-5.28 7.42,-8.85 4.75,-6.86 3.21,-13.99 -4.76,-23.74 -7.45,-9.2 -14.46,-16.82 -53.49,-59.25 l -44.05,-47.87 c -24.01,-26.12 -43.78,-47.609 -55.65,-57.788 -8.34,-6.891 -15.21,-11.622 -21.65,-7.704 -2.95,1.711 -6.71,4.161 -9.17,6.422 -1.63,1.5 -2.92,1.18 -3.67,0.371 -1.51,-1.64 -0.65,-3.429 2.35,-6.179 8.16,-7.512 26.05,-22.461 27.4,-23.711 1.37,-1.25 17.76,-17.832 32.71,-31.59 3,-2.742 5.11,-3.191 6.36,-1.832 0.76,0.82 0.95,2.133 -0.67,3.633 -2.45,2.258 -7.93,8.308 -11.24,12.347 -7.17,8.602 -3.29,16.082 3.15,24.723 9.15,12.68 28.92,34.168 52.94,60.278 z m 107.55,-70.24 c 1.8,-14.809 9.65,-67.289 17.78,-121.32 7.53,-49.09 19.4,-113.879 20.42,-118.211 5.27,-24.02 6.5,-28.047 9.22,-29.957 1.82,-1.274 3.17,0.027 15.08,16.968 l 106.37,150.211 c 10.83,15.43 15.04,20.141 25.09,15.801 3.45,-1.523 5.56,-3.012 6.78,-3.851 1.82,-1.282 4.09,-0.621 4.72,0.289 1.07,1.511 -0.84,3.3 -3.56,5.211 -10.9,7.648 -20.1,13.199 -23.11,15.328 -3.03,2.121 -15.32,11.652 -27.41,20.14 -3.02,2.133 -5.36,3.313 -6.42,1.801 -0.64,-0.91 -1.39,-2.629 0.42,-3.91 2.12,-1.488 7.96,-6.039 12.16,-10.34 7.11,-7.25 4.59,-14.058 -6.79,-30.91 L 1913.9,766.23 c -2.23,14.211 -9.2,64.719 -16.4,110.422 -11.41,71.239 -21.25,139.558 -22.5,146.768 -0.82,4.63 -1.74,12.96 -4.77,15.08 -2.11,1.49 -5.53,-0.17 -12.75,-10.45 L 1754.04,880.742 c -16.35,-23.301 -22.15,-29.621 -30.08,-26.762 -4.78,1.551 -9.83,4.649 -11.94,6.141 -1.21,0.848 -2.76,0.578 -3.61,-0.629 -1.28,-1.82 0.03,-3.183 2.75,-5.101 12.1,-8.493 23.93,-15.442 26.34,-17.141 2.43,-1.699 12.38,-10.039 27.5,-20.66 3.03,-2.121 5.26,-2.789 6.33,-1.281 0.85,1.211 0.57,2.75 -0.64,3.601 -2.41,1.699 -8.25,6.25 -12.24,10.86 -5.98,6.91 -3.94,14.96 10.31,36.562 z m 190.32,-241.359 c -13.33,-27.219 -24.21,-49.469 -31.56,-60.27 -5.39,-7.652 -8.82,-12.973 -14.94,-11.211 -2.83,0.969 -6.97,1.762 -9.62,3.059 -1.66,0.82 -2.98,-0.188 -3.46,-1.18 -0.82,-1.66 0.53,-3.141 3.51,-4.598 8.97,-4.39 27.71,-12.332 29.37,-13.14 1.32,-0.649 19.77,-10.91 36.03,-18.871 3.32,-1.621 5.14,-1.282 5.79,0.05 0.49,1 0.47,2.649 -1.19,3.461 -2.66,1.301 -8.65,5.051 -12.64,7.829 -7.31,5.23 -6.37,11.351 -3.31,20.14 4.04,11.602 14.93,33.852 28.56,61.731 l 11.06,22.578 c 0.97,1.992 1.62,2.492 3.28,1.679 4.98,-2.437 39.68,-19 46.49,-23.566 8.31,-5.723 11.18,-11.641 10.56,-16.281 -0.3,-3.969 -1.91,-8.11 -3.04,-11.262 -0.66,-1.328 -0.97,-2.82 0.69,-3.629 1.98,-0.98 4.12,1.68 5.42,4.34 0.97,1.992 6.83,13.121 10.25,18.43 5.22,8.98 9.48,12.652 10.28,14.312 0.66,1.328 0.81,2.477 -0.51,3.129 -1,0.488 -2.97,-0.191 -5.12,-1.199 -4.27,-2.024 -8.75,-1.063 -16.05,1.68 -4.15,1.617 -8.45,3.73 -13.43,6.168 l -40,19.171 c -2,0.969 -1.51,1.969 -0.69,3.629 l 37.68,77.012 c 1.14,2.328 2.13,2.668 3.79,1.859 l 47.48,-24.05 c 11.29,-5.539 15.98,-13.602 15.86,-18.059 -0.13,-4.461 -1.41,-9.602 -2.55,-11.922 -0.97,-2 -0.63,-3.808 0.71,-4.461 1.32,-0.648 3.13,0.52 4.11,1.692 2.29,2.988 8.8,15.449 10.43,17.941 4.9,7.477 7.84,10.148 8.82,12.137 0.65,1.332 0.64,2.98 -0.69,3.633 -1,0.488 -2.98,-0.192 -4.8,0.289 -3.14,0.3 -8.12,2.738 -13.92,5.168 -6.81,2.921 -70.05,34.281 -75.71,37.043 -1.66,0.82 -19.59,10.41 -32.86,16.91 -3.32,1.629 -4.97,1.609 -5.78,-0.051 -0.49,-0.992 0.19,-2.969 1.18,-3.461 2.65,-1.301 7.47,-4.07 9.64,-5.539 8.97,-6.031 8.36,-11.492 4.31,-21.449 -3.72,-9.293 -7.62,-17.25 -29.06,-61.071 z m 157.09,-48.582 c -17.13,-53.887 -1.11,-129.168 83.77,-156.161 74.68,-23.726 141.91,15.793 163.2,82.711 22.16,69.743 -17.14,129.161 -86.87,151.321 -85.59,27.211 -144.76,-29.61 -160.1,-77.871 m 34.62,-2.079 c 20.72,65.161 68.35,85.7 120.14,69.239 48.96,-15.559 80.66,-67.129 57.81,-138.989 -27.54,-86.648 -88.24,-83.64 -116.08,-74.8 -55.99,17.8 -84.03,74.8 -61.87,144.55 M 2506.3,581.531 c -4.39,-29.992 -7.97,-54.492 -11.68,-67.019 -2.79,-8.93 -4.39,-14.672 -10.82,-15.231 -3.02,-0.301 -7.15,-0.441 -10.08,-0.011 -1.84,0.261 -2.77,-1.09 -2.93,-2.188 -0.27,-1.832 1.45,-2.832 4.74,-3.312 9.88,-1.438 31.6,-3.508 31.97,-3.551 1.46,-0.219 21.79,-4.321 39.35,-6.887 3.65,-0.531 5.27,0.348 5.48,1.809 0.17,1.101 0.01,2.621 -2.17,2.941 -2.93,0.43 -9.77,2.18 -14.06,3.547 -9.65,2.91 -10.64,9.031 -10.38,18.332 0.41,13.008 3.94,37.148 8.33,67.141 l 1.07,7.308 c 0.27,1.832 1.1,2.449 2.57,2.242 l 40.85,-6.73 c 2.19,-0.32 2.87,-0.793 4.12,-2.473 5.71,-9.429 17.04,-31.629 28.1,-50.429 14.86,-26.079 24.37,-42.79 37.19,-52.141 7.41,-5.559 15.18,-8.57 33.47,-11.238 l 20.12,-2.95 c 5.85,-0.851 7.79,-0.39 8.04,1.438 0.17,1.101 -0.71,2.723 -2.54,2.992 -1.83,0.258 -5.13,0.75 -11.18,2.75 -7.89,2.277 -18.06,6.758 -32.69,26.828 -15.81,22.11 -34,53.531 -55.5,90.301 33.74,21.211 46.5,42.121 49.87,65.16 3.17,21.582 -8.9,38.66 -16.09,45.692 -15.11,14.168 -37.51,19.308 -57.99,22.308 -9.89,1.449 -37.05,4.672 -40.34,5.16 -1.84,0.262 -23.31,4.149 -37.92,6.289 -3.66,0.539 -5.23,0.02 -5.5,-1.808 -0.16,-1.09 1.09,-2.77 2.18,-2.93 2.92,-0.43 8.35,-1.601 10.86,-2.34 10.39,-3.011 11.47,-8.402 10.65,-19.109 -0.7,-9.981 -1.99,-18.762 -9.05,-67.031 z m 46.59,124.289 c 0.26,1.828 1.51,2.77 3.09,3.289 3.4,0.25 13.8,-0.14 23.31,-1.55 34.38,-5.028 52.32,-30.438 46.65,-69.2 -3.48,-23.777 -14.3,-39 -26.35,-44.711 -8.42,-4 -17.26,-3.078 -24.93,-1.949 -14.26,2.09 -30.4,6.692 -34.78,9.942 -1.31,1.308 -1.87,2.519 -1.6,4.351 z m 419.39,-8.449 c -0.93,5.879 -2.86,8.41 -5.07,8.34 -2.22,-0.07 -3.63,-2.332 -5.01,-5.332 l -88.4,-197.68 -104.44,191.942 c -1.97,3.629 -4.59,4.66 -6.82,4.589 -1.83,-0.058 -3.24,-2.32 -3.52,-5.66 l -17.14,-205.769 c -1.1,-11.871 -1.1,-23.332 -11.76,-25.52 -4.78,-0.89 -6.99,-1.332 -9.57,-1.41 -1.85,-0.062 -3.29,-1.211 -3.26,-2.32 0.07,-2.219 2.31,-2.891 5.63,-2.781 8.88,0.281 24.36,1.878 27.3,1.968 2.6,0.082 18.14,-0.527 30.34,-0.148 3.69,0.129 5.89,0.93 5.82,3.14 -0.04,1.11 -1.56,2.172 -2.66,2.141 -2.23,-0.07 -7.04,0.149 -12.63,1.449 -4.84,0.95 -7.87,3.821 -8.03,8.621 -0.16,5.168 -0.35,11.079 -0.14,15.899 l 8.08,142.25 1.48,0.051 c 5.95,-12.762 33.85,-64.75 44.08,-84.399 8.66,-16.73 31.37,-56.32 40.35,-71.57 6.64,-11.25 8.59,-14.152 11.55,-14.051 2.95,0.09 4.7,3.098 10.92,16.981 l 73.24,162.808 0.74,0.02 20.57,-159.098 c 0.92,-5.883 0.71,-10.703 -1.14,-11.121 -1.45,-0.422 -2.16,-1.551 -2.13,-2.66 0.05,-1.481 1.57,-2.539 9.35,-3.031 11.86,-0.739 48.07,0.039 55.46,0.269 3.69,0.121 6.61,1.32 6.54,3.172 -0.04,1.48 -1.16,2.18 -2.64,2.141 -3.33,-0.11 -11.82,-0.383 -21.16,2.277 -13.43,4.019 -16.2,20.941 -17.65,31.992 z m 118.61,-186.16 c -3.09,-16.813 -7.09,-28.902 -21.23,-33.59 -2.47,-0.859 -7.11,-2.16 -9.29,-2.59 -1.44,-0.289 -2.68,-1.66 -2.39,-3.109 0.36,-1.82 2.67,-2.113 6.67,-1.32 13.05,2.578 28.78,6.828 32.05,7.48 3.61,0.719 21.24,3.078 28.85,4.59 2.9,0.57 4.57,1.648 4.21,3.469 -0.29,1.449 -1.22,2.39 -3.76,1.89 l -2.9,-0.582 c -5.44,-1.07 -11.31,0.02 -12.53,6.192 -1.09,5.441 -0.78,13.41 0.61,21.597 l 8.37,52.903 c 0.35,1.949 1.31,2.89 2.75,3.179 l 73.61,14.578 c 1.8,0.364 2.23,0.071 3.26,-1.238 l 42.64,-65.019 c 3.19,-4.649 0.43,-7.832 -1.24,-8.922 -1.31,-1.008 -2.04,-1.149 -1.75,-2.59 0.36,-1.82 5.44,-0.82 11.67,0.043 22.25,3.66 45.83,8.316 50.54,9.258 3.63,0.718 7.1,2.16 6.74,3.968 -0.36,1.821 -2.67,2.114 -4.49,1.75 -3.26,-0.648 -8.05,-1.218 -13.05,-0.699 -7.31,0.813 -16.8,3.071 -33.86,28.332 -28.85,42.891 -105.19,160.02 -113.57,171.918 -4.63,6.242 -6.57,10.383 -9.83,9.731 -2.19,-0.43 -3.27,-2.532 -5.26,-13.461 z m 33.26,73.66 c -1.09,-0.211 -1.6,0.438 -1.52,1.961 l 12.99,90.367 c 0.87,5.071 2.69,5.43 5.43,1.071 l 48.29,-78.219 c 0.65,-1.379 0.79,-2.11 -0.67,-2.391 z m 214.29,181.34 38.67,12.57 c 29.59,9.438 38.52,5.09 42.69,-3.633 l 1.45,-3.019 c 1.79,-4.078 2.85,-4.879 4.25,-4.399 1.39,0.481 2.31,2.36 1.46,4.809 -1.21,3.492 -7.52,25.16 -10.64,34.25 -0.62,1.742 -1.21,3.492 -2.62,3.012 -1.39,-0.481 -3.94,-2.153 -8.24,-4.422 -4.65,-2.379 -11.4,-5.488 -21.52,-8.988 L 3267.95,756.34 c -3.51,-1.211 -15.5,-4.961 -24.59,-6.93 -8.75,-1.851 -12.74,-0.488 -14.83,-1.211 -1.05,-0.359 -1.47,-4.808 -1.23,-6.679 0.15,-2.68 3.38,-31.282 4.47,-34.43 0.6,-1.75 2.24,-1.961 2.95,-1.719 1.38,0.481 2.31,1.188 2.16,3.879 0.34,2.461 -0.04,4.68 1.65,11.121 2.12,8.559 8.74,13.188 27.83,20.168 l 44.13,16.02 43.06,-124.719 c 9.9,-28.649 17.97,-52.059 20.81,-64.77 1.96,-9.09 2.26,-15.629 -3.54,-19.199 -2.56,-1.672 -5.8,-3.57 -8.6,-4.539 -1.75,-0.602 -2.08,-1.891 -1.72,-2.941 0.59,-1.743 2.23,-1.961 5.74,-0.75 9.07,3.129 30.03,11.539 31.43,12.019 1.73,0.602 21.67,6.309 38.43,12.102 3.5,1.207 4.53,2.738 4.05,4.14 -0.36,1.039 -1.19,2.317 -3.29,1.598 -2.8,-0.969 -10.02,-2.68 -14.46,-3.43 -9.91,-1.859 -13.24,3.25 -17.3,11.621 -5.63,11.739 -13.7,35.149 -23.6,63.797 z m 249.31,-79.723 c 2.34,-4.617 8.32,-16.496 13.5,-28.379 3.5,-8.578 4.18,-14.859 -1.09,-19.179 -2.32,-1.989 -5.28,-4.309 -7.91,-5.649 -1.65,-0.832 -1.65,-2.48 -1.16,-3.472 0.83,-1.649 2.49,-1.649 5.79,0.023 8.59,4.328 26.57,14.637 27.89,15.309 1.65,0.828 20.94,9.328 37.11,17.488 2.97,1.5 4.13,3.32 3.46,4.641 -0.5,0.992 -1.82,1.972 -3.47,1.14 -2.64,-1.328 -9.58,-4 -13.86,-5.34 -9.25,-3.011 -13.9,1.27 -18.72,9.192 -6.81,11.047 -12.82,22.929 -15.14,27.547 l -12.16,24.089 c -4.66,9.243 -10.48,17.481 -10.52,29.883 -0.05,14.867 7.56,101.508 11.48,117.559 2.44,10.75 3.57,15.058 7.53,21.191 3.29,4.969 8.4,8.789 11.7,10.449 2.3,1.172 2.78,3.489 2.13,4.801 -0.5,0.989 -2.49,0.821 -4.48,-0.179 -5.59,-2.832 -26.05,-13.981 -28.03,-14.981 -2.32,-1.152 -12.87,-5.66 -20.46,-9.48 -2.97,-1.512 -4.29,-3 -3.79,-3.989 0.66,-1.32 2.98,-1.812 5.96,-1.14 3.78,0.679 6.28,-0.973 8.28,-4.93 1.82,-3.633 2.84,-8.91 2.37,-17.012 -0.62,-11.91 -6.61,-90.281 -6.56,-105.148 l -96.92,60.797 c -3.8,2.633 -7.46,4.933 -9.45,8.89 -1.16,2.313 -0.52,4.301 1.3,6.461 2.14,2.321 3.61,4.309 3.11,5.301 -0.65,1.32 -1.66,1.641 -4.95,-0.019 -11.22,-5.661 -22.76,-12.321 -24.74,-13.313 -1.32,-0.668 -23.43,-11 -29.05,-13.82 -2.63,-1.34 -3.3,-2.5 -2.62,-3.821 0.65,-1.316 2.64,-1.968 4.29,-1.136 2.32,1.16 8.59,2.668 14.21,2.199 7.11,-0.973 17.21,-3.742 29.47,-10.801 17.39,-9.859 88.11,-52.41 92.59,-55.539 8.29,-5.75 13.1,-10.359 20.76,-25.539 z m 143.81,119.844 c 17.12,-25.023 31.11,-45.453 36.89,-57.172 3.99,-8.461 6.73,-13.758 2.38,-18.519 -2.02,-2.289 -4.96,-5.192 -7.4,-6.86 -1.54,-1.051 -1.3,-2.679 -0.68,-3.601 1.05,-1.52 2.98,-1.09 5.74,0.789 8.23,5.633 23.77,17.613 25.9,19.07 2.13,1.461 18.93,11.613 32.05,20.602 3.04,2.078 3.64,3.828 2.81,5.05 -0.64,0.911 -2.07,1.707 -3.61,0.668 -2.44,-1.668 -7.12,-3.98 -11.2,-5.879 -9.07,-4.41 -13.62,-0.371 -19.76,6.629 -8.53,9.84 -22.51,30.282 -39.63,55.289 l -17.33,25.321 1.23,0.832 c 23.25,-6.481 120.38,-27.34 139.05,-28.449 17.63,-0.911 28.61,-1.911 43.48,6.468 6.53,3.571 11.41,6.91 19.03,12.129 l 13.73,9.391 c 4.57,3.129 5.16,4.879 4.32,6.101 -0.83,1.219 -2.97,1.09 -4.8,-0.16 -1.84,-1.25 -10.1,-5.562 -18.98,-7.609 -16.36,-3.582 -21.7,-2.32 -58.05,2.367 -17.87,2.551 -111.9,20.18 -124.12,22.992 1.4,10.367 17.1,85.598 19.64,96.301 4.17,19.418 5.39,28.77 13.02,41.158 3.72,5.69 8.49,11.18 12.44,13.9 2.14,1.45 2.12,2.78 1.29,4 -0.84,1.22 -2.48,1 -5.21,-0.88 -6.71,-4.59 -24,-17.31 -25.52,-18.35 -6.4,-4.39 -15.06,-9.41 -20.55,-13.168 -1.82,-1.25 -2.62,-2.703 -1.79,-3.922 0.62,-0.91 2.38,-1.511 4.11,-0.769 2.34,1.16 4.61,0.469 6.9,-2.891 2.92,-4.269 0.5,-15.781 -1.9,-28.621 -2.97,-17.258 -18.51,-97.309 -19.43,-105.109 l -1.23,-0.84 -10.64,15.558 c -27.56,40.262 -32.57,47.582 -37.6,56.243 -5.64,9.558 -6.32,14.468 -0.34,20.8 2.94,2.911 4.45,3.95 6.29,5.2 1.22,0.839 1.3,2.679 0.67,3.597 -1.04,1.524 -2.68,1.301 -5.74,-0.789 -7.93,-5.429 -23.66,-17.097 -26.1,-18.769 -1.54,-1.039 -18.42,-11.7 -30.63,-20.039 -3.04,-2.102 -3.84,-3.551 -2.8,-5.071 0.63,-0.922 2.68,-1.3 3.59,-0.679 2.45,1.668 7.23,4.5 9.57,5.66 9.68,4.828 14.13,1.597 20.8,-6.821 6.24,-7.82 11.25,-15.14 38.8,-55.398 z m 189.34,212.438 c -32.17,36.69 -38.01,43.36 -44.32,51.11 -6.76,8.82 -8.28,13.37 -2.83,20.61 2.29,2.99 3.96,4.46 5.63,5.92 0.83,0.73 0.96,2.81 0.24,3.65 -1.22,1.39 -2.82,0.97 -5.61,-1.47 -7.5,-6.58 -22.86,-21.02 -23.96,-21.99 -1.4,-1.22 -17.16,-14.07 -25.23,-21.13 -2.77,-2.44 -3.39,-3.97 -2.18,-5.36 0.73,-0.83 2.54,-1.22 3.65,-0.24 1.67,1.46 4.97,3.86 8.23,5.74 6.25,3.52 11.38,1.61 19,-5.96 7.12,-7.01 12.97,-13.68 45.13,-50.369 l 36.56,-41.691 c 19.98,-22.781 36.03,-41.649 43.44,-52.352 5.26,-7.679 8.32,-12.859 4.57,-18.109 -1.74,-2.508 -4.3,-5.738 -6.52,-7.688 -1.4,-1.222 -0.98,-2.82 -0.24,-3.652 1.22,-1.391 3.09,-0.73 5.59,1.461 7.51,6.582 22.05,20.82 23.45,22.039 1.1,0.973 17.68,14.031 31.3,25.961 2.78,2.441 3.15,4.25 2.18,5.359 -0.73,0.832 -2.25,1.461 -3.65,0.243 -2.22,-1.954 -7.99,-6.02 -12.09,-8.633 -8.19,-5.227 -12.94,-1.508 -19.85,4.711 -9.64,8.75 -25.98,27.371 -45.95,50.16 z m 190.46,200.04 c -37.82,30.83 -44.68,36.43 -52.19,43.02 -8.13,7.58 -10.39,11.82 -6.22,19.86 1.76,3.33 3.15,5.05 4.57,6.77 0.69,0.86 0.48,2.94 -0.38,3.64 -1.44,1.17 -2.93,0.49 -5.27,-2.37 -6.31,-7.74 -19.05,-24.53 -19.99,-25.68 -1.17,-1.43 -14.58,-16.72 -21.35,-25.03 -2.34,-2.86 -2.7,-4.48 -1.26,-5.64 0.86,-0.7 2.69,-0.78 3.64,0.37 1.4,1.72 4.25,4.63 7.16,7.03 5.58,4.51 10.95,3.48 19.72,-2.72 8.2,-5.73 15.07,-11.34 52.89,-42.17 l 42.96,-35.03 c 23.5,-19.15 42.46,-35.08 51.55,-44.39 6.45,-6.71 10.34,-11.31 7.52,-17.11 -1.3,-2.76 -3.29,-6.38 -5.16,-8.67 -1.17,-1.43 -0.5,-2.94 0.36,-3.64 1.44,-1.17 3.18,-0.2 5.28,2.37 6.3,7.74 18.3,24.19 19.46,25.63 0.94,1.14 15.11,16.77 26.54,30.81 2.35,2.86 2.41,4.71 1.27,5.64 -0.86,0.7 -2.46,1.06 -3.63,-0.37 -1.88,-2.29 -6.89,-7.27 -10.49,-10.52 -7.23,-6.52 -12.5,-3.64 -20.36,1.34 -10.97,7.03 -30.17,22.68 -53.65,41.83 z m 135.35,479.69 c -6.66,2.35 -9.82,2.61 -10.91,0.27 -1.11,-2.33 0.59,-4.78 2.96,-7.54 l 163.13,-197.65 -258.5,-2.55 c -4.47,0.07 -6.45,-0.63 -7.39,-2.63 -0.95,-2.01 0.75,-4.45 4.26,-6.53 l 206.32,-127.32 c 12.06,-7.36 24.6,-14.54 21.39,-26.51 -1.38,-5.48 -2.48,-7.82 -3.75,-10.49 -0.79,-1.67 -0.92,-3.66 0.08,-4.13 2.34,-1.11 4.12,0.91 5.7,4.25 4.28,9.02 10.88,25.52 12.3,28.53 1.26,2.67 9.88,18.22 15.74,30.58 1.89,4 2.17,6.32 -0.15,7.43 -1.01,0.48 -2.31,-0.54 -2.95,-1.88 -0.95,-2 -3.65,-6.85 -7.68,-11.89 -3.38,-4.54 -9.47,-6.15 -14.48,-3.78 -5.67,2.7 -11.69,5.55 -16.86,8.42 l -148.62,86.85 0.64,1.34 c 10.75,-0.6 108.64,-1.22 116.07,-1.07 4.13,0.09 75.54,1.4 96.02,2.32 15.03,0.65 19.16,0.73 20.26,3.07 1.44,3 -1.09,5.43 -12.47,19.41 l -134.83,164.19 0.48,1 180.91,-66.18 c 6.32,-2.19 11.85,-5.21 11.38,-7.04 -0.46,-1.83 -0.11,-2.81 1.23,-3.45 1.67,-0.79 3.47,0.4 7.78,7.77 6.87,11.88 24.3,47.79 27.79,55.13 1.89,4.01 2.32,7.49 0.33,8.44 -1.35,0.63 -2.16,-0.21 -2.95,-1.88 -1.58,-3.34 -5.69,-12.02 -13.29,-20.28 -11.49,-12.14 -31.31,-5.61 -43.95,-1.24 z m 206.47,47.63 c 29.2,-8.1 53.07,-14.72 65.04,-19.96 8.51,-3.89 14.37,-6.28 13.75,-12.63 -0.43,-2.95 -0.45,-7.17 -1.24,-10.02 -0.5,-1.78 0.73,-2.88 1.81,-3.18 1.78,-0.49 2.99,1.09 3.88,4.3 1.37,4.98 2.99,12.2 4.31,18.36 1.53,6.86 3.21,12.92 3.41,13.63 1.28,4.63 3.55,12.82 7.91,25.8 3.92,12.72 9.67,30.69 16.18,54.2 3.36,12.11 4.26,15.31 -3,19.62 -5.9,3.56 -25.87,11.78 -28.01,12.38 -2.13,0.59 -4.73,0.92 -5.23,-0.86 -0.49,-1.78 0.38,-2.79 3.74,-4.49 11.62,-5.14 15.77,-10.89 17.06,-20.07 0.95,-9.08 -3.2,-24.04 -5.48,-32.23 -8.58,-30.99 -14.09,-35.6 -34.59,-30.68 -6.15,1.32 -41.3,11.45 -51.64,14.32 l -25.28,7.01 c -1.07,0.3 -2.04,0.95 -1.55,2.73 1.48,5.34 11.12,38.72 14.56,46.97 4.78,11.72 9.14,13.58 13.71,13.46 4.31,0.34 7.52,-0.55 10.37,-1.34 1.78,-0.49 3.04,-0.08 3.44,1.35 0.58,2.14 -2.42,3.74 -4.91,4.43 -2.14,0.59 -13.34,4.46 -19.19,6.86 -9.79,3.47 -14.27,6.64 -16.06,7.13 -1.78,0.49 -2.68,-0.02 -2.99,-1.09 -0.29,-1.07 1.1,-2.99 2.65,-5.72 2.3,-4.09 1.38,-8.82 0.02,-16.5 -1.26,-7.32 -12.72,-48.63 -13.8,-52.55 -0.51,-1.78 -1.57,-1.48 -3.7,-0.89 l -82.29,22.81 c -2.12,0.6 -3.09,1.25 -2.7,2.67 0.99,3.56 11.42,39.79 13.6,44.94 6.89,16.5 9.92,19.12 15.49,19.87 3.96,0.44 9.04,-0.59 11.17,-1.18 2.5,-0.69 4.12,-0.38 4.61,1.4 0.4,1.43 -1.08,2.99 -2.4,3.74 -3.38,1.7 -16.71,6.17 -19.45,7.31 -8.35,3.09 -11.43,5.86 -13.57,6.45 -1.41,0.39 -2.95,0.43 -3.23,-0.64 -0.4,-1.42 0.27,-3.14 0.23,-4.67 -0.34,-2.59 -0.85,-8.58 -2.16,-14.74 -1.62,-7.22 -20.15,-72.65 -20.75,-74.79 -0.49,-1.78 -6.83,-21.88 -10.79,-36.13 -0.98,-3.56 -0.66,-5.18 1.12,-5.68 1.07,-0.29 2.89,0.74 3.19,1.8 0.78,2.85 2.62,8.1 3.66,10.49 4.3,9.93 9.78,10.33 20.3,8.18 9.82,-1.95 18.36,-4.32 65.38,-17.36 z m 158.14,300.09 c 2.52,20.91 3.6,45.35 0.07,59.18 -1.55,5.77 -2.55,6.64 -8.21,9.18 -10.23,4.59 -36.86,12.27 -39.07,12.53 -2.2,0.27 -4.58,-0.93 -4.75,-2.4 -0.27,-2.2 0.8,-2.7 4.01,-3.83 5.73,-1.81 18.42,-7.81 24.55,-15.62 11.29,-14.4 11.16,-30.76 8.24,-54.98 -8.33,-68.99 -67.24,-109.9 -127.06,-102.68 -31.54,3.81 -58.82,12.31 -77.96,38.82 -9.26,12.66 -17.88,33.81 -12.88,75.27 3.47,28.62 14.01,51.17 24.91,61.4 7.63,7.64 20.73,11.27 32.84,9.81 4.4,-0.53 6.65,-0.43 6.92,1.77 0.21,1.84 -1.45,3.52 -6.17,4.47 -4.37,0.9 -21.6,2.98 -31.84,4.58 -11.29,2.11 -14.86,3.29 -17.43,3.6 -1.84,0.22 -3.4,-0.34 -3.8,-3.64 -1.64,-10.6 -5.09,-20.6 -8.75,-32.45 -4.47,-15.47 -7.78,-33.68 -9.33,-46.52 -5.98,-49.54 5.14,-80.67 21.52,-102.37 24.42,-31.99 59.82,-44.08 80.73,-46.61 29.73,-3.58 66.25,-0.17 97.22,28.1 25.07,22.67 40.39,53.95 46.24,102.39 m -146.05,362.53 c -48.74,-2.16 -57.59,-2.55 -67.6,-2.26 -11.12,0.25 -15.62,1.9 -17.85,10.31 -0.91,4.03 -0.99,5.88 -1.09,8.09 -0.08,1.48 -1.61,2.89 -2.72,2.84 -1.84,-0.08 -2.5,-1.96 -2.35,-5.65 0.43,-9.6 2.09,-30.25 2.18,-32.09 0.06,-1.48 0.25,-22.56 0.9,-36.96 0.15,-3.69 0.96,-5.14 2.81,-5.05 1.1,0.04 2.54,1.22 2.46,2.69 -0.13,2.96 -0.01,8.51 0.26,11.11 0.99,10.78 6.1,12.48 16.77,13.7 9.95,0.81 19.54,1.6 68.27,3.77 l 6.65,0.29 c 1.86,0.08 1.89,-0.66 1.94,-1.76 l 6,-135.51 c 0.05,-1.11 0.08,-1.85 -1.76,-1.93 l -6.64,-0.3 c -48.74,-2.16 -58.34,-2.58 -68.33,-2.66 -11.12,0.25 -15.62,1.9 -17.87,10.68 -0.89,3.66 -0.99,5.87 -1.1,8.09 -0.05,1.11 -1.58,2.52 -2.69,2.47 -1.84,-0.08 -2.52,-1.59 -2.36,-5.28 0.44,-9.97 2.09,-30.62 2.17,-32.09 0.08,-1.85 0.25,-22.56 0.92,-37.33 0.15,-3.69 0.96,-5.14 2.81,-5.06 1.1,0.05 2.52,1.6 2.46,2.7 -0.13,2.96 -0.01,8.51 0.26,11.11 0.99,10.78 6.09,12.85 16.75,14.07 9.94,1.18 18.8,1.57 67.54,3.73 l 55.38,2.46 c 30.29,1.34 55.02,2.44 68.04,1.16 9.29,-1.06 15.23,-1.54 16.98,-7.75 0.87,-2.92 1.8,-6.95 1.93,-9.91 0.07,-1.84 1.59,-2.51 2.69,-2.46 1.85,0.08 2.5,1.95 2.36,5.28 -0.44,9.97 -2.47,30.6 -2.55,32.44 -0.06,1.48 0.12,22.21 -0.68,40.3 -0.16,3.69 -1.33,5.12 -2.81,5.05 -1.11,-0.05 -2.56,-0.85 -2.47,-2.7 0.13,-2.95 -0.29,-10 -0.82,-14.83 -1.06,-9.67 -6.91,-11.04 -16.09,-12.55 -12.87,-2.05 -36.86,-3.12 -67.14,-4.46 l -31.38,-1.39 c -1.48,-0.07 -1.88,0.65 -1.93,1.76 l -6.02,135.51 c -0.05,1.11 0.29,1.86 1.78,1.93 l 31.38,1.39 c 30.28,1.34 53.9,2.39 66.9,1.49 9.28,-0.7 15.6,-1.53 17.37,-8.11 0.86,-2.92 1.78,-6.58 1.91,-9.54 0.07,-1.84 1.59,-2.51 2.69,-2.47 1.85,0.09 2.52,1.6 2.36,5.29 -0.42,9.6 -2.47,30.6 -2.53,32.07 -0.08,1.85 0.1,22.58 -0.69,40.3 -0.15,3.69 -1.34,5.49 -2.82,5.42 -1.1,-0.05 -2.56,-0.85 -2.45,-3.07 0.11,-2.58 -0.3,-10 -0.84,-14.46 -1.04,-10.04 -6.91,-11.04 -16.09,-12.55 -12.87,-2.05 -37.58,-3.52 -67.87,-4.86 z m 99.28,105.03 c 16.85,-2.86 28.99,-6.72 33.86,-20.8 0.9,-2.46 2.24,-7.08 2.7,-9.25 0.31,-1.45 1.69,-2.66 3.15,-2.36 1.8,0.38 2.07,2.71 1.23,6.68 -2.75,13.02 -7.19,28.7 -7.88,31.96 -0.76,3.62 -3.34,21.2 -4.94,28.8 -0.62,2.89 -1.72,4.54 -3.53,4.16 -1.44,-0.3 -2.38,-1.25 -1.85,-3.79 l 0.62,-2.89 c 1.13,-5.42 0.12,-11.31 -6.03,-12.6 -5.42,-1.15 -13.4,-0.95 -21.61,0.34 l -52.99,7.7 c -1.97,0.34 -2.92,1.27 -3.23,2.72 l -15.5,73.41 c -0.38,1.81 -0.09,2.25 1.2,3.28 l 64.49,43.45 c 4.6,3.24 7.81,0.52 8.92,-1.13 1.04,-1.3 1.19,-2.02 2.64,-1.71 1.8,0.38 0.72,5.44 -0.2,11.66 -3.94,22.22 -8.9,45.72 -9.9,50.42 -0.77,3.62 -2.24,7.08 -4.05,6.7 -1.82,-0.38 -2.07,-2.7 -1.7,-4.51 0.68,-3.26 1.33,-8.03 0.87,-13.04 -0.72,-7.33 -2.86,-16.85 -27.9,-34.22 -42.53,-29.38 -158.69,-107.17 -170.5,-115.71 -6.17,-4.7 -10.28,-6.71 -9.61,-9.96 0.46,-2.17 2.59,-3.23 13.55,-5.07 z m -74.06,32.34 c 0.21,-1.09 -0.42,-1.6 -1.95,-1.55 l -90.52,11.87 c -5.08,0.81 -5.46,2.62 -1.14,5.42 l 77.6,49.25 c 1.38,0.67 2.1,0.82 2.4,-0.62 z m -137.24,184.19 c 6.75,13.31 29.38,61.31 52.64,110.75 21.01,45 47.16,105.45 48.71,109.62 8.96,22.89 10.18,26.93 8.97,30.03 -0.8,2.07 -2.64,1.75 -21.95,-5.73 l -171.9,-65.77 c -17.58,-6.81 -23.71,-8.39 -29.65,0.81 -2.02,3.18 -2.95,5.59 -3.5,6.97 -0.8,2.06 -3.05,2.78 -4.08,2.38 -1.73,-0.67 -1.13,-3.22 0.07,-6.32 4.79,-12.41 9.35,-22.14 10.69,-25.58 1.34,-3.45 6.25,-18.19 11.59,-31.98 1.33,-3.44 2.61,-5.72 4.34,-5.06 1.03,0.4 2.63,1.42 1.83,3.48 -0.94,2.42 -3.27,9.44 -4.36,15.36 -1.88,9.97 3.99,14.23 22.81,21.92 l 145.63,59.95 c -6.05,-13.04 -28.31,-58.92 -47.73,-100.91 -30.09,-65.56 -59.88,-127.83 -62.84,-134.53 -1.89,-4.3 -5.75,-11.74 -4.42,-15.18 0.94,-2.42 4.7,-2.94 16.41,1.6 l 167.86,65 c 26.54,10.27 34.87,12.31 39.87,5.53 3.11,-3.95 5.59,-9.33 6.52,-11.74 0.55,-1.38 1.97,-2.02 3.35,-1.48 2.07,0.8 1.76,2.66 0.55,5.76 -5.33,13.78 -11.31,26.14 -12.37,28.89 -1.08,2.76 -4.71,15.22 -11.38,32.46 -1.34,3.44 -2.83,5.25 -4.55,4.58 -1.38,-0.54 -2.01,-1.97 -1.49,-3.35 1.08,-2.76 3.39,-9.78 4.15,-15.83 1.15,-9.07 -5.03,-14.63 -28.88,-24.67 z m -88.26,307.12 c -42.73,-23.55 -50.51,-27.83 -59.41,-32.32 -10.07,-4.71 -14.86,-5.23 -20.76,1.65 -2.43,2.88 -3.49,4.82 -4.57,6.76 -0.53,0.97 -2.54,1.56 -3.51,1.02 -1.61,-0.89 -1.55,-2.54 0.23,-5.78 4.82,-8.74 15.64,-26.83 16.35,-28.13 0.89,-1.62 10.06,-19.78 15.22,-29.17 1.79,-3.23 3.16,-4.17 4.78,-3.28 0.97,0.54 1.73,2.22 1.01,3.52 -1.08,1.94 -2.72,5.68 -3.84,9.27 -2.1,6.87 0.86,11.45 9.88,17.27 8.39,5.46 16.15,9.75 58.89,33.29 l 48.55,26.76 c 26.55,14.63 48.42,26.26 60.45,31.21 8.63,3.49 14.35,5.37 18.67,0.58 2.07,-2.23 4.68,-5.44 6.12,-8.03 0.89,-1.61 2.54,-1.55 3.5,-1.01 1.62,0.89 1.39,2.86 -0.22,5.78 -4.82,8.74 -15.61,26.01 -16.5,27.62 -0.71,1.3 -9.91,20.29 -18.65,36.15 -1.78,3.23 -3.47,3.99 -4.75,3.28 -0.97,-0.54 -1.92,-1.9 -1.02,-3.52 1.43,-2.58 4.17,-9.09 5.84,-13.66 3.34,-9.13 -1.31,-12.95 -8.87,-18.38 -10.6,-7.54 -32.29,-19.49 -58.84,-34.12 z m -8.95,125.84 c 24.59,17.71 44.69,32.18 56.27,38.24 8.36,4.2 13.6,7.06 18.46,2.82 2.34,-1.97 5.3,-4.83 7.03,-7.23 1.09,-1.5 2.72,-1.24 3.62,-0.59 1.5,1.08 1.01,3.01 -0.92,5.71 -5.83,8.1 -18.19,23.35 -19.7,25.45 -1.51,2.1 -12.05,18.64 -21.35,31.54 -2.16,2.99 -3.92,3.55 -5.12,2.68 -0.9,-0.65 -1.66,-2.11 -0.58,-3.61 1.73,-2.4 4.15,-7.03 6.13,-11.06 4.63,-8.96 0.71,-13.62 -6.14,-19.92 -9.64,-8.76 -29.74,-23.23 -54.33,-40.94 l -24.89,-17.93 -0.87,1.2 c 5.94,23.4 24.46,121 25.12,139.69 0.49,17.66 1.22,28.67 -7.52,43.33 -3.72,6.43 -7.19,11.23 -12.59,18.72 l -9.71,13.5 c -3.25,4.5 -5,5.05 -6.21,4.19 -1.2,-0.87 -1.01,-3.02 0.29,-4.82 1.29,-1.79 5.79,-9.94 8.05,-18.78 3.99,-16.27 2.85,-21.65 -0.96,-58.1 -2.12,-17.92 -17.48,-112.33 -20.01,-124.63 -10.4,1.16 -86,15.05 -96.74,17.32 -19.52,3.71 -28.9,4.7 -41.48,12.04 -5.77,3.59 -11.36,8.21 -14.18,12.11 -1.51,2.1 -2.84,2.05 -4.04,1.18 -1.19,-0.86 -0.94,-2.49 1.02,-5.19 4.74,-6.6 17.87,-23.56 18.94,-25.06 4.54,-6.3 9.78,-14.83 13.66,-20.23 1.3,-1.8 2.77,-2.56 3.97,-1.7 0.9,0.65 1.45,2.41 0.66,4.13 -1.21,2.31 -0.56,4.59 2.73,6.97 4.2,3.02 15.77,0.88 28.67,-1.22 17.31,-2.56 97.72,-16.16 105.54,-16.91 l 0.87,-1.19 -15.31,-11.02 c -39.59,-28.51 -46.78,-33.7 -55.31,-38.93 -9.42,-5.88 -14.32,-6.67 -20.79,-0.85 -2.98,2.86 -4.05,4.36 -5.35,6.16 -0.86,1.2 -2.72,1.24 -3.61,0.59 -1.51,-1.08 -1.24,-2.71 0.91,-5.71 5.63,-7.8 17.68,-23.26 19.41,-25.66 1.07,-1.5 12.14,-18.13 20.78,-30.12 2.16,-3 3.61,-3.77 5.12,-2.69 0.89,0.65 1.24,2.71 0.58,3.61 -1.73,2.4 -4.67,7.11 -5.88,9.43 -5.06,9.56 -1.93,14.08 6.32,20.95 7.68,6.43 14.86,11.61 54.45,40.13 z m -217.01,186.38 c -36.3,-32.6 -42.9,-38.52 -50.56,-44.92 -8.74,-6.85 -13.27,-8.44 -20.58,-3.08 -3.03,2.26 -4.5,3.91 -5.99,5.56 -0.74,0.82 -2.83,0.93 -3.65,0.19 -1.37,-1.23 -0.94,-2.83 1.54,-5.57 6.67,-7.43 21.28,-22.61 22.28,-23.71 1.24,-1.37 14.27,-16.99 21.43,-24.97 2.47,-2.75 4.01,-3.35 5.38,-2.12 0.83,0.74 1.19,2.55 0.19,3.65 -1.47,1.65 -3.91,4.93 -5.84,8.17 -3.59,6.21 -1.75,11.35 5.73,19.06 6.94,7.22 13.54,13.14 49.84,45.74 l 41.25,37.05 c 22.55,20.25 41.22,36.52 51.83,44.06 7.61,5.35 12.76,8.48 18.04,4.79 2.53,-1.71 5.8,-4.24 7.78,-6.44 1.24,-1.37 2.83,-0.94 3.66,-0.19 1.36,1.23 0.69,3.1 -1.55,5.57 -6.66,7.43 -21.06,21.81 -22.3,23.19 -0.99,1.1 -14.25,17.51 -26.35,30.99 -2.47,2.75 -4.28,3.11 -5.38,2.12 -0.82,-0.74 -1.42,-2.28 -0.19,-3.66 1.98,-2.2 6.12,-7.91 8.78,-11.98 5.32,-8.14 1.66,-12.92 -4.48,-19.92 -8.63,-9.74 -27.06,-26.29 -49.61,-46.54 l -41.25,-37.04"
         style="fill:#231f20;fill-opacity:1;fill-rule:nonzero;stroke:none"
         id="path24"
         inkscape:connector-curvature="0" /><path
         d="m 2109.37,3957.62 c -9.04,9.79 -12.98,13.33 -15.35,12.31 -2.04,-0.88 -2.67,-3.16 -1.77,-19.27 l 11.42,-224.82 -0.68,-0.3 c -12.83,15.8 -101.75,125.21 -116.19,144.75 -9.82,13.48 -17.99,24.06 -19.88,28.46 -1.9,4.41 -0.69,8.16 0.9,10.05 3.2,3.79 9.65,6.56 12.37,7.74 1.7,0.73 3.25,1.8 2.37,3.84 -0.58,1.35 -2.38,1.78 -7.13,-0.26 -16.98,-7.31 -31.48,-14.74 -34.53,-16.07 -3.74,-1.6 -22.85,-8.62 -40.51,-16.21 -3.39,-1.46 -5.14,-3.02 -4.41,-4.71 0.88,-2.04 2.39,-1.8 4.08,-1.06 2.38,1.02 11.01,4.32 16.16,4.53 10.29,0.4 16.89,-2.8 30.06,-18.44 l 147.05,-175.35 c 16.72,-20.15 20.03,-23.17 23.42,-21.7 4.08,1.75 4.17,6.21 3.47,22.82 -1.37,36.82 -8.46,181.43 -10.26,219.28 l 0.68,0.31 147.9,-160.5 c 10.45,-11.18 14.39,-14.72 17.78,-13.26 3.74,1.6 3.68,6.4 1.7,35.32 -3.11,43.73 -15.27,166.44 -18.88,215.99 -1.58,21.45 -2.29,38.04 6.29,46.17 3.15,2.97 9.46,6.08 10.82,6.65 2.03,0.89 2.61,2.34 1.88,4.04 -0.58,1.36 -2.57,1.3 -5.63,0 -10.52,-4.54 -24.68,-11.84 -27.06,-12.86 -3.05,-1.32 -17.75,-6.43 -35.07,-13.88 -4.07,-1.74 -5.48,-3.15 -4.75,-4.86 0.59,-1.35 2.38,-1.78 4.08,-1.06 15.62,6.72 21.11,4.25 23.74,-1.86 1.89,-4.41 3.6,-9.32 5.61,-23.34 6.81,-48.57 17.93,-160.46 22.2,-195.64 l -1.35,-0.59 z m 371.95,-97.19 c 1.07,-5.07 3.82,-18.09 5.77,-30.9 1.18,-9.19 0.23,-15.43 -5.97,-18.24 -2.74,-1.35 -6.2,-2.84 -9.1,-3.45 -1.8,-0.38 -2.22,-1.97 -1.99,-3.05 0.38,-1.82 1.98,-2.24 5.59,-1.46 9.41,1.97 29.43,7.33 30.87,7.64 1.81,0.38 22.65,3.66 40.37,7.4 3.26,0.68 4.84,2.14 4.53,3.59 -0.23,1.08 -1.26,2.39 -3.06,2 -2.9,-0.6 -10.28,-1.42 -14.77,-1.6 -9.71,-0.55 -13.1,4.78 -15.74,13.67 -3.75,12.42 -6.5,25.45 -7.57,30.51 l -5.57,26.39 c -2.14,10.13 -5.65,19.59 -2.52,31.58 3.76,14.4 33.33,96.19 41.22,110.7 5.12,9.77 7.32,13.63 12.71,18.56 4.45,3.96 10.37,6.33 13.98,7.1 2.54,0.54 3.6,2.65 3.29,4.09 -0.22,1.09 -2.19,1.43 -4.35,0.97 -6.15,-1.3 -28.78,-6.84 -30.95,-7.29 -2.53,-0.53 -13.9,-2.18 -22.21,-3.94 -3.26,-0.68 -4.91,-1.79 -4.68,-2.86 0.3,-1.45 2.41,-2.53 5.46,-2.64 3.85,-0.32 5.83,-2.54 6.74,-6.88 0.84,-3.98 0.47,-9.35 -2.06,-17.05 -3.65,-11.35 -29.53,-85.58 -33.29,-99.97 l -78.1,83.62 c -3.01,3.51 -5.94,6.68 -6.86,11.01 -0.53,2.53 0.61,4.29 2.91,5.91 2.67,1.7 4.61,3.23 4.38,4.33 -0.31,1.44 -1.18,2.01 -4.8,1.25 -12.3,-2.6 -25.16,-6.08 -27.33,-6.53 -1.45,-0.3 -25.47,-4.62 -31.61,-5.91 -2.9,-0.62 -3.83,-1.58 -3.52,-3.02 0.3,-1.45 2.05,-2.58 3.86,-2.21 2.53,0.54 8.99,0.39 14.3,-1.5 6.62,-2.77 15.67,-8.04 25.71,-18.01 14.28,-13.97 71.75,-73.23 75.27,-77.4 6.53,-7.68 10,-13.38 13.51,-30.01 z m 192.66,70.33 c 0.95,-30.29 1.74,-55.04 0.3,-68.03 -1.18,-9.28 -1.74,-15.21 -7.97,-16.89 -2.93,-0.84 -6.97,-1.7 -9.93,-1.8 -1.84,-0.06 -2.54,-1.56 -2.5,-2.66 0.06,-1.85 1.93,-2.53 5.25,-2.42 5.17,0.17 12.92,0.78 19.56,1.35 6.65,0.21 12.55,0.78 13.29,0.8 1.47,0.04 12.58,-0.35 26.65,-1.01 14.06,-0.3 31.46,-0.85 45.5,-0.41 55.41,1.76 83.9,24.47 97.49,39.33 17.51,19.04 33.56,49.87 32.3,89.4 -1.19,37.31 -17.52,63.06 -34.3,78.78 -39.65,37.59 -99.03,32.74 -131.54,31.72 -19.21,-0.62 -39.87,-2.01 -43.57,-2.13 -1.85,-0.06 -22.93,0.01 -37.7,-0.46 -3.7,-0.1 -5.15,-0.9 -5.09,-2.74 0.03,-1.11 1.56,-2.54 2.67,-2.5 2.95,0.08 8.5,-0.1 11.1,-0.39 10.76,-1.15 12.77,-6.25 13.85,-16.95 1.06,-9.95 1.34,-18.81 2.88,-67.58 z m 25.55,127.28 c -0.12,3.69 0.94,5.2 3.86,6.41 2.92,1.21 13.23,2.64 19.51,2.84 38.79,1.23 74.75,-1.7 106.4,-31.77 13.72,-12.88 31.89,-37.81 33.15,-77.71 0.91,-28.81 -6.64,-59.01 -23.12,-75.43 -19,-19.08 -45.28,-29.9 -75.21,-30.86 -38.42,-1.21 -50.08,5.07 -54.33,10.86 -2.69,3.25 -3.79,14.67 -4.41,22.42 -0.55,5.9 -1.48,35.08 -2.53,68.33 z m 295.3,-206.21 c 58.16,64.2 114.35,127.55 170.83,193.08 1.71,1.64 2.37,3.79 2.56,5.26 0.26,1.82 -1.49,2.8 -6.25,3.44 l -90.11,12.03 c -10.27,1.37 -25.7,3.06 -56.33,8.28 -8.38,1.49 -10.32,3.6 -13.25,3.99 -1.84,0.25 -2.77,-1.12 -3.72,-5.47 -3.11,-9.28 -11.64,-36.84 -12.12,-40.51 -0.35,-2.56 -0.18,-4.08 1.29,-4.27 1.83,-0.25 3.76,0.23 5.13,4.9 2.07,7.19 9.45,17.75 21.59,22.1 10.99,4.13 29.99,1.22 46.48,-0.99 l 68.14,-9.08 c -53.57,-63.34 -110.44,-126.21 -168.14,-189.73 -4.82,-5.33 -5.48,-7.47 -5.67,-8.94 -0.29,-2.19 1.85,-2.86 5.52,-3.35 56.42,-7.53 110.81,-16.28 164.66,-23.47 7.33,-0.97 7.74,-0.67 10.6,6.78 3.23,7.4 10.07,25.14 11.39,35.03 0.78,5.86 0.21,7.05 -1.64,7.3 -1.83,0.24 -3.17,-1.44 -4.3,-4.27 -1.68,-4.25 -5.01,-12.39 -8.83,-15.98 -8.51,-7.8 -18.04,-12.12 -52.11,-7.57 z m 290.31,80.33 c 12.44,47.19 14.7,55.75 17.61,65.32 3.54,10.52 6.46,14.35 15.51,13.86 3.76,-0.23 5.91,-0.79 8.05,-1.35 1.07,-0.29 2.88,0.76 3.16,1.84 0.47,1.78 -0.77,2.87 -4.33,3.81 -9.66,2.56 -30.22,7.21 -31.64,7.59 -1.79,0.47 -21.25,6.38 -31.62,9.11 -3.58,0.94 -5.19,0.61 -5.67,-1.18 -0.28,-1.08 0.42,-2.78 1.84,-3.17 2.16,-0.56 5.99,-1.95 9.37,-3.6 6.41,-3.24 7.69,-8.53 5.68,-19.09 -1.84,-9.84 -4.11,-18.41 -16.56,-65.59 l -14.15,-53.6 c -7.73,-29.31 -14.41,-53.16 -19.14,-65.28 -3.43,-8.66 -6,-14.09 -12.46,-13.92 -3.05,0.04 -7.17,0.37 -10.03,1.13 -1.79,0.47 -2.88,-0.77 -3.16,-1.85 -0.47,-1.78 1.13,-2.98 4.34,-3.83 9.65,-2.54 29.59,-6.66 31.38,-7.13 1.44,-0.37 21.51,-6.82 39.02,-11.44 3.58,-0.95 5.3,-0.24 5.67,1.17 0.28,1.09 -0.06,2.7 -1.85,3.18 -2.85,0.74 -9.46,3.25 -13.9,5.2 -8.93,3.87 -8.49,9.87 -7.2,19.09 1.87,12.88 8.19,36.83 15.93,66.14 z m 70.57,-134.99 c -11.75,-12.39 -21.71,-20.34 -36.12,-16.55 -2.54,0.61 -7.14,2.07 -9.19,2.89 -1.38,0.54 -3.15,0.08 -3.71,-1.31 -0.68,-1.71 1.09,-3.22 4.87,-4.74 12.35,-4.94 27.85,-9.98 30.94,-11.21 3.43,-1.39 19.48,-9.03 26.68,-11.91 2.74,-1.11 4.74,-1.11 5.42,0.6 0.56,1.37 0.28,2.68 -2.12,3.65 l -2.74,1.09 c -5.15,2.07 -9.47,6.2 -7.13,12.02 2.07,5.16 6.67,11.67 12.31,17.76 l 35.87,39.77 c 1.38,1.45 2.69,1.71 4.05,1.16 l 69.63,-27.95 c 1.72,-0.69 1.93,-1.17 2.06,-2.81 l 0.25,-77.76 c 0.13,-5.64 -3.92,-6.8 -5.92,-6.8 -1.64,-0.13 -2.32,0.14 -2.88,-1.23 -0.69,-1.71 4.11,-3.63 9.81,-6.32 20.64,-9.09 42.94,-18.04 47.41,-19.82 3.42,-1.39 7.12,-2.07 7.81,-0.36 0.69,1.71 -1.09,3.22 -2.8,3.91 -3.09,1.25 -7.42,3.38 -11.31,6.54 -5.7,4.67 -12.42,11.76 -12.92,42.23 -0.77,51.68 -0.8,191.48 -1.34,206.03 -0.47,7.76 0.16,12.29 -2.93,13.53 -2.06,0.83 -4.12,-0.34 -11.75,-8.43 z m 68.07,43.57 c -1.03,0.41 -1.09,1.24 -0.2,2.47 l 60.2,68.64 c 3.51,3.77 5.22,3.07 5.16,-2.07 l -2.25,-91.89 c -0.21,-1.52 -0.48,-2.21 -1.86,-1.66 z m 249.66,-93.97 57.87,-4.35 c 1.65,-0.08 2.66,0.2 2.74,1.85 l 1.02,10.04 c 0.23,1.15 -0.55,2.02 -1.7,2.24 l -52.64,3.08 5.83,10.29 c 24.07,42.44 28.44,50.16 33.69,58.65 6.11,9.28 9.91,12.23 19.17,9.11 3.4,-1.51 7.76,-3.55 9.69,-4.64 0.97,-0.56 2.98,0 3.54,0.96 0.9,1.62 -0.34,3.16 -3.24,4.8 -8.68,4.93 -29.62,15.96 -30.89,16.68 -1.62,0.91 -19.57,11.94 -32.44,19.24 -3.22,1.82 -4.87,1.91 -5.78,0.3 -0.54,-0.97 0.01,-2.97 0.97,-3.52 2.58,-1.46 7.23,-4.52 9.28,-6.11 8.6,-6.58 7.65,-12 3.01,-21.69 -4.28,-9.04 -8.65,-16.75 -32.72,-59.2 l -11.85,-20.89 -37.78,2.3 c -0.82,0.04 -1.55,-1.25 -1.6,-2.07 l -1.16,-9.54 c 0.24,-1.82 1.39,-2.05 2.03,-2.41 l 31.4,-0.82 -8.37,-14.78 c -14.96,-26.38 -27.17,-47.91 -35.16,-58.25 -5.84,-7.32 -9.59,-12.41 -15.78,-10.61 -2.94,0.82 -6.84,2.19 -9.41,3.64 -1.61,0.91 -2.8,0.31 -3.35,-0.66 -0.9,-1.6 0.35,-3.15 3.24,-4.79 4.49,-2.56 10.96,-5.37 16.75,-8.66 6.29,-3.14 11.11,-5.87 12.4,-6.61 8.37,-4.73 17.82,-10.53 30.18,-17.96 12.17,-7.75 27.76,-17 48,-28.48 15.11,-8.58 16.62,-8.16 22.2,-2.82 6.81,6.76 18.04,22.07 19.68,24.96 1.65,2.9 1.4,4.72 0.11,5.45 -1.6,0.91 -3.16,-0.33 -4.57,-2.07 -4.07,-4.93 -10.79,-10.04 -16.7,-12.21 -11.3,-4.21 -22.84,3.19 -37.62,11.57 -22.19,12.57 -31.39,20.34 -33.32,27.39 -2.56,8.25 7.92,28.23 28.7,64.87 l 14.58,25.72"
         style="fill:#231f20;fill-opacity:1;fill-rule:nonzero;stroke:none"
         id="path26"
         inkscape:connector-curvature="0" /></g></g></svg>
