<?xml version="1.0" encoding="UTF-8" standalone="no"?>
<svg
   id="Layer_2"
   viewBox="0 0 965.78 247.97"
   version="1.1"
   sodipodi:docname="warsaw_skyline.svg"
   inkscape:version="1.3.2 (091e20ef0f, 2023-11-25, custom)"
   xmlns:inkscape="http://www.inkscape.org/namespaces/inkscape"
   xmlns:sodipodi="http://sodipodi.sourceforge.net/DTD/sodipodi-0.dtd"
   xmlns="http://www.w3.org/2000/svg"
   xmlns:svg="http://www.w3.org/2000/svg">
  <sodipodi:namedview
     id="namedview17"
     pagecolor="#ffffff"
     bordercolor="#000000"
     borderopacity="0.25"
     inkscape:showpageshadow="2"
     inkscape:pageopacity="0.0"
     inkscape:pagecheckerboard="0"
     inkscape:deskcolor="#d1d1d1"
     inkscape:zoom="0.6600882"
     inkscape:cx="340.86354"
     inkscape:cy="184.82379"
     inkscape:window-width="1920"
     inkscape:window-height="1003"
     inkscape:window-x="0"
     inkscape:window-y="0"
     inkscape:window-maximized="1"
     inkscape:current-layer="Layer_2" />
  <defs
     id="defs1">
    <style
       id="style1">.cls-1{fill:#53565a;}</style>
  </defs>
  <g
     id="Layer_2-2"
     style="fill:#f1d0f1;fill-opacity:1">
    <g
       id="g17"
       style="fill:#f1d0f1;fill-opacity:1">
      <polyline
         class="cls-1"
         points="864.95 235.75 488.88 235.75 495.09 237.68 341.77 237.68 341.94 240.97 866.1 240.97 864.95 235.75"
         id="polyline1"
         style="fill:#f1d0f1;fill-opacity:1" />
      <path
         class="cls-1"
         d="m965.78,247.85l-965.78.12s61.66-6.51,82.33-7.68c221.02-12.49,774.85-5.89,774.85-5.89l44.74,7.56,63.87,5.9Z"
         id="path1"
         style="fill:#f1d0f1;fill-opacity:1" />
      <path
         class="cls-1"
         d="m133.71,222.23h-2.03c-.11-.14-.22-.28-.33-.42-1.44-1.09-1.64-1.88-2.44-2.5-.79-.63-1.22-.63-2.18-.76,0,0-3.01.38-4.56-.88-1.55-1.26-3.6-3.1-4.14-5.4-.5-2.1.33-1.52.22-3.25,0,0,0,0,0,0,0-.02,0-.05,0-.08,0-.04,0-.08,0-.11-.01-.11-.02-.23-.04-.36,0,0,0,0,.01-.01,0,0,0-.01.02-.02,0,0,0-.01.02-.02.01-.01.02-.03.03-.05,0,0,0-.01.01-.02.23-.33.85-1.37.95-3.12,0,0,0-.01,0-.02h0c0-.12,0-.25,0-.37,0,0,0,0,0,0h0c0-.42-.02-.88-.09-1.38-.13-.94-.45-2.08-.94-3.21,0,0,0,0,0,0,0,0,0,0,0,0-.07-.16-.14-.32-.22-.47-.02-.04-.04-.08-.06-.13-.07-.14-.14-.28-.21-.41-.01-.02-.02-.04-.04-.07-.08-.16-.17-.31-.26-.46-.02-.04-.05-.08-.07-.11-.08-.12-.15-.25-.23-.37-.02-.03-.04-.07-.06-.1-.1-.15-.2-.29-.3-.43-.02-.03-.04-.06-.06-.08-.09-.12-.18-.23-.27-.34-.03-.03-.06-.07-.09-.1-.11-.13-.23-.26-.34-.38-.01-.01-.02-.02-.04-.04-.11-.11-.22-.22-.33-.32-.03-.03-.07-.06-.1-.09-.11-.1-.23-.2-.35-.29-.01,0-.02-.02-.04-.03-.13-.1-.26-.19-.39-.28-.04-.02-.07-.04-.11-.07-.11-.07-.23-.13-.34-.19-.03-.01-.06-.03-.09-.04-.14-.07-.28-.13-.43-.18-.03-.01-.07-.02-.1-.03-.12-.04-.24-.08-.36-.11-.04,0-.08-.02-.11-.03-.15-.03-.3-.06-.46-.07-.03,0-.05,0-.08,0-.13-.01-.27-.01-.4-.01-.04,0-.09,0-.13,0-.16,0-.33.02-.49.05,0,0,.22-3.95-.07-7.03,0,0,0-.01,0-.02-.01-.12-.02-.24-.04-.36,0-.01,0-.03,0-.04-.01-.11-.03-.22-.04-.32,0-.02,0-.04,0-.07-.01-.1-.03-.19-.04-.29,0-.03,0-.06-.01-.08-.01-.09-.03-.17-.04-.25,0-.03-.01-.06-.02-.09-.01-.08-.03-.15-.05-.23,0-.03-.01-.07-.02-.1-.02-.07-.03-.14-.05-.21,0-.03-.01-.06-.02-.09-.03-.1-.05-.19-.08-.28-.36-1.1-.73-2.8-1.02-4.58-.04-.27-.09-.55-.13-.82-.12-.82-.23-1.65-.3-2.42-.09-.9-.13-1.73-.13-2.4,0-.39.03-.72.07-.99.23-1.5.34-2.99.39-3.78,0-.07,0-.14.01-.2,0-.12.01-.21.01-.28,0-.06,0-.1,0-.1,0,0,.32.38.85.92.12.12.24.25.38.38.2.2.43.41.67.63.09.08.18.16.28.25.54.47,1.14.93,1.76,1.32.18.11.35.21.53.31.1.05.19.1.29.14.73.34,1.45.52,2.1.4,0,0,1.27.42,2.06-.11.36-.24.62-.68.62-1.43,0-.13-.01-.28-.03-.44,0-.03,0-.06,0-.09-.02-.14-.04-.3-.08-.45-.01-.05-.02-.11-.03-.16,0-.03-.01-.05-.02-.08,0,0,0,0,0,0-.65-2.84-3.21-7.69-6.95-10.78-1.31-1.08-2.67-2.13-4.13-3.01-1.02-.61-2.27-1.3-3.47-1.39-1.01-.08-1.72.6-1.94,1.55-.06.29-.08.55-.07.76,0,0,0,0,0,0-.21-.74-.11-.14-.11-.14,0,0,.03.28.11.7-.1-.03-.31-.12-.54-.36.21-.48.07-.59.07-.59,0,0-.09.15-.24.39-.16-.22-.32-.53-.46-.95-.06-.27-.13-.52-.17-.69-.03-.13-.05-.27-.07-.42,0,0,.14-.21.31-.45h0s0-.01.01-.02c.03-.04.06-.09.09-.13.02-.03.04-.06.06-.09.03-.04.05-.08.08-.11.02-.03.04-.06.06-.09.03-.04.05-.08.08-.11.01-.02.03-.04.04-.06.03-.05.06-.09.07-.12.03-.05.12-.18.23-.36.06-.09.12-.2.18-.32.03-.06.06-.12.09-.19.12-.27.23-.59.29-.95.02-.09.03-.18.04-.28.02-.19.02-.39,0-.6-.02-.21-.06-.43-.12-.65,0,0,0,0,0-.02,0,0,0-.01,0-.02,0,0,0-.02,0-.03,0-.01,0-.03,0-.04,0-.01,0-.03,0-.05,0-.02,0-.04,0-.06,0-.02,0-.03,0-.05,0-.03,0-.05,0-.08,0-.02,0-.04,0-.06,0-.03,0-.06,0-.09,0-.02,0-.05,0-.07,0-.03,0-.06-.01-.1,0-.02,0-.05-.01-.08-.08-.61-.27-1.42-.69-1.72,0,0-.21-.5-.46-.85,3.32.21,5.84.46,5.84.46-1.39-1.17-4.58-1.7-8.27-1.89-.25-.07-.53-.11-.81-.04-7.65-.27-16.98.82-16.98.82,0,0-.17-.87-.17-1.13s-.9-.34-1.41-.21c-.51.13-.34.94-.34.94l-.2.2c-.12-.1-.26-.17-.42-.19,0,0-.05-.02-.12-.02h0s-.05,0-.08,0c0,0-.02,0-.03,0-.02,0-.04,0-.06.02-.01,0-.02,0-.03.01-.02,0-.04.02-.06.04,0,0-.02.01-.02.02-.02.03-.05.06-.06.1,0,0-.42-.25-.63.21,0,0-.51-.38-.86.36,0,0-.66-.03-.58.57,0,0-.46-.18-.52.51,0,.05-.01.1-.02.16-.02.16-.05.33-.07.49,0,0,0,0,0,0-.05.31-.08.61-.01.87,0,0,0,0,0,0,0,.03.02.05.03.08.01.04.03.08.05.11.03.06.08.12.13.18.03.03.05.06.08.08.2.21.32.34.4.57.02.06.04.12.05.19.01.07.03.15.04.24.02.14.03.3.04.5.05,1.05-.68,5.11,1.37,9.94,0,0,.26,2.15,1.68,2.67,1.42.53,5.31,1.95,9.36,1.73,0,0,2.26-.53,3.1,1.05.07.13.14.25.22.38.02.03.05.07.07.1.07.1.14.2.21.3.02.03.04.05.06.08.09.12.18.24.28.36.12.15.24.31.36.46h0c.84,1.08,1.76,2.34,2.06,4.31.47,3.05-.84,3.26-1.79,5.26-.95,2-3.05,6.52-3.1,10.46l-.37,1.72c-.1.33-.23.63-.37.8-.47.58-1.79,1.58-1.89,3.21-.1,1.51.35,3.3.41,4.26,0,.07,0,.14,0,.21,0,.02,0,.04,0,.06,0,.02,0,.04,0,.05,0,.03,0,.06,0,.1,0,0,0,.01,0,.02,0,.01,0,.03,0,.04,0,.07,0,.14,0,.21,0,.02,0,.03,0,.05,0,.09,0,.17,0,.27,0,0,0,.01,0,.02,0,.1,0,.21,0,.31,0,0,0,.01,0,.02,0,.1,0,.2.01.3h0s0,.05,0,.07c0,.12,0,.24.01.36,0,0,0,0,0,.01h0c0,.08,0,.16,0,.23h0s0,.03,0,.05c0,.06,0,.12,0,.18,0,.02,0,.04,0,.06.01.34.03.58.03.63,0,0,0,.01,0,.01,0,0,0,0-.02,0,0,0-.01,0-.02,0-.02,0-.05,0-.08.01-.01,0-.03,0-.05,0-.01,0-.02,0-.04,0,0,0,0,0,0,0-.71.1-3.1.51-3.5,1.53,0,0,0,0,0,0,0,.02-.02.04-.02.07-.03.09-.05.18-.07.26,0,.02,0,.05-.01.07-.01.06-.02.11-.02.17,0,.02,0,.04,0,.06,0,.07,0,.13,0,.19h0c0,.06.02.12.03.17,0,0,0,.02,0,.02.01.04.03.08.05.12,0,0,0,.02.01.02.16.28.49.42.92.66.06.04.13.07.2.11,0,0-.34-.03-.68.06,0,0-.01,0-.02,0-.05.01-.09.03-.14.05,0,0-.01,0-.02,0-.1.04-.2.1-.28.17-.01,0-.02.02-.03.03-.03.03-.05.06-.07.09-.01.02-.02.03-.03.05-.02.03-.03.07-.05.1,0,.02-.02.04-.02.06-.01.04-.02.08-.03.13,0,.02,0,.04,0,.07,0,.07,0,.15,0,.23.16,1.21,1.58,1.68,1.16,2.79-.18.48-.71,1.46-1.46,2.43-.97,1.24-2.3,2.46-3.76,2.58l-2.31,2.03s-3.22-.63-4.21,1.54c-.37.81-.53,1.59-.65,2.3-.03.19-.06.38-.09.57h-1.81l-2.1,7.4v16.76h66.6v-16.76l-2.1-7.4Zm-54.97-70.5c.01-.09.04-.17.07-.25.17-.41.57-.74.85-1.11,0,0,0-.01.01-.02.07.35.14.64.18.73.13.33,1.41-.03,1.8-.14.39-.11.21-1.27.21-1.27,0,0,1.5-.29,7.84-.93,1.51-.15,3.33-.2,5.21-.18-.2.12-.38.25-.63.64-.49.76-.94,1.19-.93,2.09,0,0,0,0,0,0h0v.93s.06,0,.14-.01c0,0,0,0,0,0,.12.38.24.58.09.73-.11.11-.18.29-.22.51,0,0,0,0,0,0,0,0,0,0,0,0h0c-.04.22-.05.49-.03.77h0s0,.06,0,.1h0s0,.01,0,.02c.05.61.42.75.42.75,0,0-.2.25.2.62.11.21.29.38.55.36,0,0,.41.45.88.68h0c.33.24.5.26.63.17.02.1.07.34.13.66.01.08.03.16.04.25,0,.04.01.08.02.12.01.08.03.17.04.26,0,.04.01.09.02.13.02.1.03.19.05.29,0,.04.01.08.02.12.02.13.04.26.05.4,0,0,0,.01,0,.02.02.14.04.29.05.43,0,.02,0,.03,0,.05.01.12.02.23.03.34,0,.03,0,.07,0,.1,0,.09,0,.18.01.27,0,.04,0,.07,0,.1,0,.08,0,.15,0,.22-.01.23-.05.42-.11.52-.42.61-.89.93-1.26,1.12-.37.19-3.08-.56-4.72,0-1.63.56-6.91.2-7.42.03-.18-.06-.37-.4-.59-.9-.04-.09-.08-.18-.12-.28-.01-.02-.02-.05-.03-.07-.12-.28-.24-.6-.38-.94-.04-.09-.07-.18-.11-.28-.02-.06-.05-.11-.07-.17-.06-.15-.12-.3-.19-.45,0-.01-.01-.03-.02-.04-.06-.14-.12-.28-.19-.43-.02-.05-.04-.1-.07-.14-.05-.11-.11-.23-.16-.34-.02-.05-.05-.1-.07-.14-.08-.16-.16-.31-.24-.46-1.12-2.01-2.1-5.28-2.01-5.98Z"
         id="path2"
         style="fill:#f1d0f1;fill-opacity:1" />
      <path
         class="cls-1"
         d="m367.72,190.57c0,1.67,0,3.07,0,3.07h-1.47l1.47,2.24v42.49h75.48v-42.49l1.47-2.24h-1.47v-8.5l1.47-2.24h-8.52l-3.19-6.3-3.19,6.3c-.87,0-1.58,0-1.58,0v-73.51l1.47-2.24v-1.68h-3.2c0-4.28-2.5-5.88-3.45-6.26-.95.38-3.45,1.98-3.45,6.26h-3.74v-32.43h0s-3.88,0-3.88,0v-16.78c1.5-.77,1.31-2.77,1.31-2.77h0s-.12.01-.32.01c-.52,0-1.59-.07-2.57-.64-.68-.4-1.31-1.03-1.69-2.04-.08-.22-.15-.47-.21-.73-.08-.4-.13-.84-.14-1.33,0,0,.13-1.7-.77-2.43v-2.3c.07-.04.13-.09.2-.14.97-.75,1.63-2.31-1.05-3.91h1.9v-1.75h0s-1.57,0-1.57,0l-.22-5.28h.97v-1.34h-1.03l-.07-1.73h1.1s0,0,0,0v-1.34h-1.15l-.07-1.73h1.22v-1.34h-1.28l-.07-1.73h1.35v-1.34h-1.4l-.39-9.56h0c.16-.09.29-.22.38-.37,0-.01.01-.02.02-.03.03-.06.06-.13.08-.2,0-.02.01-.04.02-.06.02-.08.04-.17.04-.26,0-.1-.02-.19-.04-.28,0-.02-.01-.04-.02-.06-.03-.08-.06-.16-.11-.23,0,0,0,0,0,0-.05-.08-.12-.15-.19-.21,0,0-.01-.01-.02-.02-.07-.06-.15-.11-.24-.15l-.06-1.51h0c.1-.06.19-.15.26-.26,0-.01.01-.02.02-.03.02-.04.04-.08.05-.13,0-.02.01-.03.01-.05.01-.06.02-.11.02-.17,0,0,0,0,0,0,0,0,0,0,0,0,0-.07-.01-.13-.03-.19,0-.02,0-.03-.01-.05-.02-.05-.04-.11-.07-.15,0,0,0,0,0-.01-.04-.06-.08-.11-.13-.15,0,0,0,0,0,0-.05-.05-.11-.08-.17-.11,0,0,0,0,0,0l-.33-8.16-.33,8.16c-.06.03-.12.07-.17.12,0,0,0,0,0,0-.05.05-.09.1-.13.15,0,0,0,0,0,0-.03.05-.05.1-.07.16,0,.01,0,.03-.01.04-.02.06-.03.13-.03.19,0,.06,0,.12.02.18,0,.01,0,.03.01.04.01.05.03.09.06.13,0,0,0,.02.02.03.06.11.15.19.26.26,0,0,0,0,0,0l-.06,1.51s0,0,0,0c-.09.04-.16.09-.24.15,0,0-.01.01-.02.02-.07.06-.13.13-.19.21,0,0,0,0,0,0-.05.07-.08.15-.11.24,0,.02-.01.04-.02.06-.02.09-.04.18-.04.28,0,.09.01.18.04.26,0,.02.01.04.02.06.02.07.05.13.08.2,0,.01.01.02.02.03.09.15.22.28.38.37l-.39,9.56h-1.4v1.34h1.35l-.07,1.73h-1.28v1.34h1.22l-.07,1.73h-1.15v1.34h0s1.1,0,1.1,0l-.07,1.73h-1.03v1.34h.97l-.22,5.28h-1.57v1.75h1.9c-1.43.85-1.91,1.69-1.9,2.41,0,.09.01.18.03.26.11.59.55,1.08,1.02,1.38v2.3c-.89.72-.77,2.43-.77,2.43-.03,1.96-.73,3.12-1.59,3.8-.36.28-.75.48-1.13.62-.15.06-.3.1-.45.14-.15.04-.29.07-.43.09-.14.02-.27.04-.39.06-.12.01-.24.02-.34.03-.1,0-.2,0-.28,0-.2,0-.32-.01-.32-.01h0s-.15,1.53.82,2.43c.14.13.3.24.49.34v16.78s-3.88,0-3.88,0h0v32.43s-.96,0-2.36,0h-1.37c0-4.28-2.5-5.88-3.45-6.26-.95.38-3.45,1.98-3.45,6.26h-3.2v1.68l1.47,2.24v73.51s-.71,0-1.58,0l-3.19-6.3-3.19,6.3h-8.52l1.47,2.24s0,1.63,0,3.46c0,.65,0,1.33,0,1.97Z"
         id="path3"
         style="fill:#f1d0f1;fill-opacity:1" />
      <polygon
         class="cls-1"
         points="477.69 119.25 477.68 112.23 455.71 108.28 455.71 113.35 455.71 114.26 455.71 115.26 455.71 116.17 455.71 117.17 455.71 118.08 455.71 126.31 453.99 126.31 453.99 146.69 453.99 156.46 451.91 156.46 451.91 238.06 479.35 238.06 479.35 119.25 477.69 119.25"
         id="polygon3"
         style="fill:#f1d0f1;fill-opacity:1" />
      <polygon
         class="cls-1"
         points="506.1 60.77 506.1 65.92 502.57 65.92 499.05 65.92 499.05 60.77 486.27 60.77 486.27 237.7 502.57 237.7 518.88 237.7 518.88 60.77 506.1 60.77"
         id="polygon4"
         style="fill:#f1d0f1;fill-opacity:1" />
      <path
         class="cls-1"
         d="m828.25,232.89h-1.14c-.1-.27-.36-.47-.66-.47h-2.28c0-.38,0-.83,0-1.1h1.1c.13,0,.24-.11.24-.24s-.11-.24-.24-.24h-1.14c-.1-.27-.36-.47-.66-.47h-2.28c0-.1,0-.2,0-.31v-.79h1.1c.13,0,.24-.11.24-.24s-.11-.24-.24-.24h-1.14c-.1-.27-.36-.47-.66-.47h-2.28c0-.38,0-.83,0-1.1h1.1c.13,0,.24-.11.24-.24s-.11-.24-.24-.24h-1.14c-.1-.27-.36-.47-.66-.47h-2.28c0-.38,0-.83,0-1.1h1.1c.13,0,.24-.11.24-.24s-.11-.24-.24-.24h-1.14c-.1-.27-.36-.47-.66-.47h-7.85c0-1.54,0-5.28,0-7.46,0-.19-.07-.37-.21-.5l-.99-.99v-5.89c0-.19-.07-.37-.21-.5l-1.86-1.86v-28.35l1.69-1.69c.13-.13.21-.31.21-.5v-2.84c0-.39-.32-.71-.71-.71h-1.12c.35-.5.5-1.04.52-1.41.02-.23-.08-.45-.26-.6-.18-.15-.41-.2-.63-.14-.66.18-1.32.3-1.99.35v-2.3c0-.39-.32-.71-.71-.71h-1.2v-1.53c0-.13-.03-.25-.1-.36l-1.26-2.11-.44-67.2,3.34-9.54c.08-.22.04-.46-.09-.64-.13-.19-.35-.3-.58-.3h-1.81v-4.25l2.72-3.91h2.14c.39,0,.71-.32.71-.71v-1.96l2.99-3.89c.16-.21.19-.5.07-.74-.12-.24-.36-.39-.63-.39h-9.58v-2.36h.86c.19,0,.37-.07.5-.21l1.77-1.77c.2-.2.26-.51.15-.77-.11-.26-.37-.44-.65-.44h-2.7c.69-3.26,1.4-7.65,1.25-13.47v-6.95h1.96c.13,0,.24-.11.24-.24s-.11-.24-.24-.24h-1.95v-3.12c0-.13-.1-.24-.23-.24h0c-.13,0-.24.11-.24.23v3.12h-1.98c-.13,0-.24.11-.24.24s.11.24.24.24h1.98v6.84c-.47.35-.86.51-1.18.46-.51-.08-.88-.65-1.28-1.26l-.05-.07c.74-.89.74-2.07.35-2.8-.34-.63-.96-.93-1.65-.8-.93.17-1.52.76-1.61,1.62-.08.8.31,1.69.89,2.11-.63.75-1.18,1.84-1.76,2.98-.59,1.16-1.2,2.37-1.91,3.23l-1.49,1.81s0,.01,0,.02c0,.01-.02.03-.02.04,0,.01-.01.03-.01.04,0,.01,0,.03,0,.04,0,.02,0,.03,0,.05,0,0,0,.01,0,.02,0,0,0,.01.01.02,0,.01.01.03.02.04,0,.01.02.03.03.04,0,0,0,.01.01.02,0,0,.01,0,.02.01.01,0,.03.02.04.02.01,0,.03.01.04.01.01,0,.03,0,.04,0,.02,0,.03,0,.05,0,0,0,.01,0,.02,0l3.23-.93c.05,2.96.72,5.61,1.1,6.87h-4.67c-.29,0-.54.17-.65.44-.11.26-.05.57.15.77l1.77,1.77c.13.13.31.21.5.21h.86v2.36h-9.58c-.27,0-.52.15-.63.39s-.09.53.07.74l2.99,3.89v1.96c0,.39.32.71.71.71h2.14l2.72,3.91v4.25h-1.81c-.23,0-.44.11-.58.3-.13.19-.17.43-.09.64l3.34,9.54-.44,67.2-1.26,2.11c-.07.11-.1.23-.1.36v1.53h-1.2c-.39,0-.71.32-.71.71v2.3c-.67-.05-1.33-.17-1.99-.35-.22-.06-.46,0-.63.14-.18.15-.27.37-.26.6.03.37.18.9.52,1.41h-1.12c-.39,0-.71.32-.71.71v2.84c0,.19.07.37.21.5l1.69,1.69v28.35l-1.86,1.86c-.13.13-.21.31-.21.5v5.89l-.99.99c-.13.13-.21.31-.21.5,0,2.18,0,5.91,0,7.46h-7.85c-.31,0-.57.2-.66.47h-1.14c-.13,0-.24.11-.24.24s.11.24.24.24h1.1c0,.26,0,.71,0,1.1h-2.28c-.31,0-.57.2-.66.47h-1.14c-.13,0-.24.11-.24.24s.11.24.24.24h1.1c0,.27,0,.71,0,1.1h-2.27c-.4,0-.57.13-.65.47h-1.16c-.13,0-.24.11-.24.24s.11.24.24.24h1.11c0,.21,0,.45,0,.74,0,.13,0,.24,0,.35h-2.28c-.4,0-.57.19-.64.47h-1.16c-.13,0-.24.11-.24.24s.11.24.24.24h1.1c0,.1,0,.19,0,.29,0,.25,0,.54,0,.81h-2.28c-.31,0-.57.2-.66.47h-1.14c-.13,0-.24.11-.24.24s.11.24.24.24h1.1v1.81c0,.39.32.71.71.71h65.94c.39,0,.71-.32.71-.71v-1.81h1.1c.13,0,.24-.11.24-.24s-.11-.24-.24-.24Zm-33.32-183.29c.08-.45.09-.93,0-1.33.14.38.15.86,0,1.33Zm-2.31.06c.04.09.09.18.14.26-.05-.08-.1-.17-.14-.26Z"
         id="path4"
         style="fill:#f1d0f1;fill-opacity:1" />
      <g
         id="g6"
         style="fill:#f1d0f1;fill-opacity:1">
        <path
           class="cls-1"
           d="m194.85,189.99c0-.11.01-.22.01-.34h-.02c0,.12,0,.23.01.34h0s0,0,0,0Z"
           id="path5"
           style="fill:#f1d0f1;fill-opacity:1" />
        <path
           class="cls-1"
           d="m356.22,209.97h0v-5.47l1.31-1.15h-3.12v-1.85l.66-.86s-.42,0-.42,0c.21-.82,1.44-1.15,1.19-2.34-.06-.29-.19-.51-.36-.69-.04-.04-.09-.09-.13-.12-.09-.08-.2-.15-.3-.21-.05-.03-.11-.06-.16-.1-.16-.09-.33-.18-.5-.28-.27-.16-.52-.34-.68-.61.99-.86-.53-1.44-.53-1.44,0,0,1.06-.62,0-1.44,0,0,0-.01,0-.02.03-.09.06-.17.08-.25,0-.03.01-.05.02-.08.01-.05.03-.1.03-.15,0-.03,0-.05,0-.08,0-.04.01-.09.01-.13,0-.02,0-.05,0-.07,0-.04,0-.08,0-.12,0-.02,0-.04,0-.06,0-.04-.01-.08-.02-.11,0-.02,0-.03-.01-.04-.01-.04-.02-.08-.04-.13,0,0,0-.01,0-.02-.16-.44-.49-.86-.6-1.8,0,0,0,0,0,0-.01-.11-.02-.22-.03-.35h0c0-.11.01-.22.01-.34h-.02c0,.12,0,.23.01.34h0c0,.12-.02.24-.03.35,0,0,0,0,0,0-.11.94-.44,1.36-.6,1.8,0,0,0,.01,0,.02-.01.04-.03.08-.04.13,0,.01,0,.03-.01.04,0,.04-.02.08-.02.12,0,.02,0,.04,0,.06,0,.04,0,.08,0,.12,0,.02,0,.05,0,.07,0,.04,0,.08.01.13,0,.03,0,.05,0,.08,0,.05.02.1.03.16,0,.03.01.05.02.08.02.08.05.17.09.26-1.06.82,0,1.44,0,1.44,0,0-1.52.58-.53,1.44-.07.11-.14.2-.23.29-.57.55-1.54.69-1.85,1.52-.02.06-.04.13-.06.21-.12.6.12.98.43,1.31.3.33.66.62.77,1.03h-.42l.66.86v1.85h-3.12l1.32,1.15v1.82l-9.31-4.7h-6.08c-.92,0-1.87,0-2.79,0-.57,0-1.14,0-1.68,0h-4.4v-1.92h-1.59v1.92h-7.71c-1.17,0-2.37,0-3.54,0-.73,0-1.44,0-2.13,0h-5.59v-1.92h-1.59s0,1.92,0,1.92h-20.82v-6.38l.9-2.25s-1.95,0-1.95,0v-2.14l-.33-.88v-11.45l.33-.88v-1.07l-.48-.29-2.06-1.27c.15-.27.28-.57.41-.89.7-1.86.82-4.56-1.38-7.22-.8-.98-1.38-1.94-1.8-2.79-.01-.03-.02-.05-.03-.07-.1-.22-.19-.42-.28-.62-.08-.19-.15-.38-.22-.56-.09-.24-.16-.47-.22-.67-.14-.46-.21-.83-.25-1.07-.03-.19-.04-.29-.04-.29l.6-2.68h-.6l.6-2.68h-.6l.6-2.68h-.63c0-2.34-.3-3.95-.48-5.81-.08-.85-.15-1.75-.15-2.79,0,.63-.02,1.2-.06,1.74-.16,2.35-.57,4.1-.57,6.86h-.63l.6,2.68h-.6l.6,2.68h-.6l.6,2.68s-.02.18-.08.51c-.03.15-.07.33-.12.53-.04.17-.1.36-.16.56-.1.3-.22.63-.37.99-.42,1.02-1.08,2.24-2.11,3.49-2.04,2.48-2.08,4.99-1.51,6.83.03.1.06.19.09.28.11.29.22.57.35.82.03.06.06.12.09.18l-2.06,1.27-.48.29v1.07l.33.88v11.45l-.33.88v2.14s-1.94,0-1.94,0l.9,2.25v6.38h-20.82s0-1.92,0-1.92h-1.59v1.92h-5.59c-.68,0-1.4,0-2.13,0-1.17,0-2.37,0-3.54,0h-7.71v-1.92s-1.59,0-1.59,0v1.92h-4.4c-.54,0-1.1,0-1.68,0-.92,0-1.87,0-2.79,0h-6.08l-9.31,4.7v-1.82s1.32-1.15,1.32-1.15h-3.12v-1.85s.66-.86.66-.86h-.42c.21-.82,1.44-1.15,1.19-2.34-.02-.07-.03-.14-.06-.21-.28-.77-1.13-.95-1.71-1.4-.14-.11-.27-.24-.37-.41.99-.86-.53-1.44-.53-1.44,0,0,1.06-.62,0-1.44.04-.09.06-.18.09-.26,0-.03.01-.05.02-.08.01-.05.03-.11.03-.16,0-.03,0-.05,0-.08,0-.04.01-.09.01-.13,0-.02,0-.05,0-.07,0-.04,0-.08,0-.12,0-.02,0-.04,0-.06,0-.04-.01-.08-.02-.12,0-.01,0-.03-.01-.04-.01-.04-.02-.09-.04-.13,0,0,0-.01,0-.02-.16-.44-.49-.86-.6-1.8,0,0,0,0,0,0-.01-.11-.02-.22-.03-.35h0s0,0,0,0h0c0,.12-.02.24-.03.35,0,0,0,0,0,0-.11.94-.44,1.36-.6,1.8,0,0,0,.01,0,.02-.01.04-.03.09-.04.13,0,.01,0,.03-.01.04,0,.04-.02.08-.02.12,0,.02,0,.04,0,.06,0,.04,0,.08,0,.12,0,.02,0,.05,0,.07,0,.04,0,.08.01.13,0,.03,0,.05,0,.08,0,.05.02.1.03.16,0,.03,0,.05.02.08.02.08.05.17.09.26-.13.1-.23.2-.31.3-.07.1-.12.19-.14.27-.12.43.27.75.41.84.03.02.04.03.04.03,0,0-1.52.58-.53,1.44-.03.05-.07.1-.11.15-.31.38-.8.57-1.23.84-.05.03-.11.07-.16.1-.1.07-.2.15-.28.24-.04.04-.08.09-.12.14-.07.1-.14.21-.18.34-.02.06-.04.13-.06.21-.25,1.19.99,1.52,1.19,2.34,0,0-.42,0-.42,0l.66.86v1.85h-3.12l1.32,1.15v5.47h0s-3.81,1.93-3.81,1.93l1.32,1.15v26.71h169.97v-26.71l1.31-1.15-3.81-1.92Z"
           id="path6"
           style="fill:#f1d0f1;fill-opacity:1" />
      </g>
      <g
         id="g11"
         style="fill:#f1d0f1;fill-opacity:1">
        <polygon
           class="cls-1"
           points="715.27 207.89 715.27 207.89 715.27 205.57 715.27 205.57 713.14 205.57 713.14 205.57 713.14 207.89 713.14 207.89 715.27 207.89"
           id="polygon6"
           style="fill:#f1d0f1;fill-opacity:1" />
        <polygon
           class="cls-1"
           points="722.87 207.89 722.87 205.57 720.74 205.57 720.74 205.57 720.74 207.89 720.74 207.89 722.87 207.89"
           id="polygon7"
           style="fill:#f1d0f1;fill-opacity:1" />
        <polygon
           class="cls-1"
           points="730.47 207.89 730.47 207.89 730.47 205.57 730.47 205.57 728.33 205.57 728.33 205.57 728.33 207.89 728.33 207.89 730.47 207.89"
           id="polygon8"
           style="fill:#f1d0f1;fill-opacity:1" />
        <polygon
           class="cls-1"
           points="738.06 207.89 738.06 207.89 738.06 205.57 738.06 205.57 735.93 205.57 735.93 205.57 735.93 207.89 735.93 207.89 738.06 207.89"
           id="polygon9"
           style="fill:#f1d0f1;fill-opacity:1" />
        <polygon
           class="cls-1"
           points="745.66 207.89 745.66 207.89 745.66 205.57 745.66 205.57 743.52 205.57 743.52 205.57 743.52 207.89 743.52 207.89 745.66 207.89"
           id="polygon10"
           style="fill:#f1d0f1;fill-opacity:1" />
        <polygon
           class="cls-1"
           points="751.12 205.57 751.12 205.57 751.12 207.89 751.12 207.89 753.25 207.89 753.25 205.57 751.12 205.57"
           id="polygon11"
           style="fill:#f1d0f1;fill-opacity:1" />
        <path
           class="cls-1"
           d="m707.68,200.22l.88-1.08v-1.96l1.12-2.12v-5.37l2.71-2.27h-4.1v-4.8l1.63-2h-1.63v-.96h-3.54s0,.96,0,.96h-8.75v-.96h-3.54s0,.96,0,.96h-8.75v-.96h-3.54s0,.96,0,.96l-12.81-3.55v-2.72h-25.07v-6.04l1.67-2.05h-1.67s0-5.35,0-5.35h-29.54s0,5.35,0,5.35h-1.67l1.67,2.05v6.04h-25.07v2.72l-12.81,3.55s0-.96,0-.96h-3.54s0,.96,0,.96c0,0-8.75,0-8.75,0v-.96h-3.54s0,.96,0,.96c0,0-8.75,0-8.75,0v-.96h-3.54s0,.96,0,.96h-1.63l1.63,2v4.8h-4.1l2.71,2.27v5.37l1.12,2.12v1.96l.88,1.08-.09,7.66h-5.36v-2.32h-2.13v2.32h-5.46v-2.32h-2.13v2.32h-5.46v-2.32h-2.13v2.32h-5.46v-2.32h-2.13v2.32h-5.46v-2.32h-2.13v2.32h-5.46v-2.32h-2.13v40.5h8.02c.74-7.35,6.4-10.18,10.76-10.18s10.02,2.82,10.76,10.18h192.37c.74-7.35,6.4-10.18,10.76-10.18s10.02,2.82,10.76,10.18h8.02v-38.18h-45.48s-.09-7.66-.09-7.66Z"
           id="path11"
           style="fill:#f1d0f1;fill-opacity:1" />
      </g>
      <g
         id="g16"
         style="fill:#f1d0f1;fill-opacity:1">
        <path
           class="cls-1"
           d="m858.63,237.63s0,0,0,0c0,0,0,0,0,0Z"
           id="path12"
           style="fill:#f1d0f1;fill-opacity:1" />
        <path
           class="cls-1"
           d="m817.48,173.29c.27.32,1.16.38,1.36-.11.25-.6-.73-.95-1.01-1.31-.02.47-.22,1.17-.68,1.38-.27-.13-.57-.36-.73-.61-.26-.4-.18-.23-.15-.69.01-.26.24-.69.08-.85.26,0,.51,0,.77-.07.15-.56.01-1.23.06-1.81-.43.26-2.01-.46-1.89-1.03,1.02-.46,1.47.1,2.36.29.76.16.97-.02,1.55-.7,1.15.18,1.19,1.54,2.12,1.97.75-.94,1-3.77.58-5.05,0,0-.01-.02-.02-.03-.18-.3-.34-.62-.56-.89-.11-.13-.24-.25-.39-.34-.16-.08-.33-.12-.51-.12.18,0,.35.03.51.11.16.08.29.2.41.33.16.19.29.4.42.61-.39-.75-1.13-1.24-.77-2.19.14-.38.54-.55.63-.95.1-.49-.23-.89-.12-1.42.99-.23,2.74-.6,3.39.42.01.02.02.04.03.05.04-.08.07-.16.1-.24.16-.53.19-1.53,0-2.05-.58,0-.46.6-.97.7-.44.09-.71-.15-.97-.46-.35-.42-.31-1.28-.84-1.54.86,0,1.48-.57,1.76-1.42-.32-.05-.63-.09-.95-.12-.24-1.03.09-1.35.77-1.98-.15-.27-.33-.52-.55-.81-.18-.12-.36-.23-.54-.35-.05-.09-.1-.18-.14-.27-.23-.02-.45-.08-.64-.23-.5-.41-.45-1.49-.26-2.11.08-.01.16-.03.24-.05-.03-.25,0-.5.14-.72.15-.23.47-.49.8-.68.45-.46,1.09-.75,1.69-.65.64.1.6.38,1.11-.11.52-.5.58-.61.87-.34.3-.32.61-.6.97-.69.47-.12,1.18.13,1.71.06.72-.08,1.11-.44,1.74-.62.53-.15,1.06.02,1.61-.04.38-.68.04-1.61-.19-2.28.15.42,1.12.18,2.07-.2-.03-.06-.06-.11-.1-.17l-.08-.15c-.39.25-.78.4-1.45.15-.54-.21-.84-.6-1.24-.88-.91.36-2.41.18-2.89-.61-.2-.33-.19-.74-.41-1.07-.18-.28-.41-.3-.62-.53-.54-.59-.73-.87-.09-1.45.1-.09.36-.04.49-.09-.43-.27-.7-.65-.81-1.16-.44-.66-.37-1.35.19-2.05.67-.76,1.25-.55,1.87-.49-.36-.1-.71-.28-1.08-.64-.25-.24-.48-.53-.7-.85-.25-.02-.5-.06-.73-.15-1.05-.38-1.37-.98-1.38-2.07,0-.17.01-.33.04-.49-.83-1.04-1.63-2.39-.81-3.49.34-.23.69-.47,1.03-.7.02-.04.05-.09.08-.13.33-.51.6-.78.7-1.41.17-1.02.04-.86,1.03-.59.34.09.63.12.89.08.4-.29.8-.58,1.21-.86.16-.39.4-.73.71-1.01.28-.27.59-.44.92-.57.34-.66.17-.7,1.1-.67.79.03,1.06.01,1.47-.69.35-.59.68-.78,1.08-1.36.64-.94,1.49-1.26,2.59-1.02.16.41.07.88.05,1.34.19.05.4.12.62.21.31.13.61.29.89.43.33-.07.64-.18.89-.35.38-.26.49-.6.79-.91.39-.41.5-.21.95-.4.43-.18.52-.3,1.02-.36.36-.04.62,0,.97-.07.38-.08.6-.28,1.11-.27.12,0,.24,0,.36.01.36-.14.7-.31,1.04-.5.15-.52.48-1.01.83-1.41.57-.64.5-.42,1.06-.19.14.06.36.14.62.22.45-.2.91-.37,1.4-.46.31,0,.62-.02.93-.05.03-.23.06-.47.27-.67.37-.34.76-.37,1.07-.76.43-.53.94-1.12,1.62-1.34.27.65.59.51,1.14.72.37.14.61.5.95.56.03-.18.07-.35.14-.51.72.19,2.04,1.02,1.59,1.88-.23.44-.65.34-.62.92.03.62.83.9,1.34.95-.06.53-1.28,1.02-.47,1.63.36.27.73-.3.89.34.04.16-.04.37-.16.57.07.01.13.02.2.03.95.16,1.2.29,1.32,1.27.16,1.36-.17,2.76-.04,4.12.77-.38,2.48-1.33,2.76-2.18.25-.75-.38-1.32-.44-2.03.73-.25,1.47-.32,2.24-.31.7,0,1.45.31,2.15.23,1.57-.18,2.76-1.51,4.09-2.21.27,1.49,1.55-.12,2.12-.41.65-.33,2.1-.95,2.23.35.97-.07,2.28-1.11,3.14-1.49.64.81.37,1.4.02,2.34-.38,1-.71,1.37-.62,2.49,1.96.55,2.08-2.87,4.25-2.47.79.15.77.9,1.05,1.58.4.98.73,1.26.87.55.4,0,1.02-.13,1.4-.02.41.13.51.47.84.71.79.58,1.87-.05,2.61.5.4.29.32.6.33,1.05.02.7-.11.8.33,1.22.28.27.57.19.72.67.1.32.06,1.25,0,1.58-.1.54-.42.5-.63.92-.21.4.09.86-.14,1.24-.55.91-1.86.05-2.69.07-1.06.03-1.36.32-2.14.95-.17.14-.38.27-.59.35,0,0,0,.02-.01.03-.16.47-.47.86-.73,1.25-.14.2-.24.41-.36.62-.07.13-.15.26-.24.38.9-.57,1.8-.52,2.87-.48.5.02.69.27,1.07.32.64.09.65-.21,1.16-.34,1.27-.31,2,.45,3.05.98.42.21,1,.61,1.47.37.34-.17.39-.75.74-.92.45-.22,2.34.57,2.62,1.04.66,1.1-.95,1.36-1.29,1.85-.24.34.06,1.3-.04,1.71-.12.48-.44,1.44-.66,1.84-.28.5-.73.84-1.39,1.03-.48.14-1.01-.03-1.31.48-.28.47-.26,2.7.14,3.07-.38.03-.46-.28-.76-.35-.38-.09-.83.1-1.19-.01-.54-.17-.71-.97-1.37-.66-.15.07-.75.79-.72.99.06.42.4.29.72.42.76.3,1.49.45,2.25.64.44.11.72.38,1.2.34.46-.04.82-.46,1.31-.41.67.06.62.4,1.12.76.72.51.31.13.89-.02.52-.14,1.35-.89,1.88-.64.38.17,1.08,1.24,1.08,1.63.96.12,1.68-1.16,2.55-1.02.61.1.64.73.85,1.24.28.67.47,1.06,1.38.88.34-.07.71-.44,1.05-.4.32.04.34.34.58.47.48.27,1.4.17,1.77.67.4.55-.15,1.64-.22,2.04-.14.84-.25,2.14,0,2.99.21.68.6.96.66,1.75.76.23,1.69-.11,2,.94.13.45-.07.78-.24,1.19-.07.17-.03.48-.15.62-.11.12-.43.03-.55.14-1.12,1.06,0,4.24-1.8,4.43-.45.05-.95,0-1.38-.1-.71-.16-.59-.2-1.38.21-.43.23-.98.35-1.39.63-.55.39-.57.82-1.19.98-.63.17-1.77.02-2.4-.05-.49-.05-.33-.52-.83,0-.32.34.01.86-.62,1.05-1.12.34-.84-1.47-.83-2.06.01-.71.12-.77-.38-1.13-.67-.47-1.54,0-2.19-.27-.17-.07-.29-.16-.4-.26-.37.07-.73.16-1.04.33-.34.19-.65.47-.93.77-.29.3-.55.62-.85.94-.07.08-.15.16-.22.23-.07.07-.14.15-.21.22-.14.15-.27.31-.39.48-.03.04-.06.08-.1.13.31.11.57.33.83.33.36,0,.56-.42,1.01-.42.9,0,1.52,1.07,1.99,1.7-.37.27-1.18.67-.96,1.25.2.54,2.29.72,2.82.82.64.12,1.6.21,2.23.04.58-.15,1-.61,1.62-.69.42-.06,1.32.03,1.6.44.21.3.21,1.12.38,1.52.2.46.48.73.72,1.12.11.18.37.1.37.4,0,.47-.68.56-.72,1.03.77.61,3.37,1.7,1.89,2.74-.63.45-1.41.66-2.19.78,0,.37-.24.65-.41.93.57.04,1.14-.41,1.68-.18-.15.47-.48.73-.88.89.76-.03,1.6.61,2.31.74.92.16,2.56-1.19,3.27-.7.23.16.33.88.26,1.19-.18.85-1.83,1.37-2.65,1.22-.58-.11-.3-.45-1.07-.15-.61.24-1.15.74-1.82.8-.13-.44,0-.86-.09-1.31-1.17-.62-1.7,1.28-2,1.96.63.22,3.22-.32,3.42.32-.71.47-1.61.44-2.42.44-.35,0-.69-.07-1.03.06-.26.1-.42.47-.69.57-.32.12-.68-.04-.97.13-.17.09-.25.34-.4.45-.42.3-1.01.77-1.54.48-.5-.26-.46-.88-.72-1.3-.25,0-.49-.02-.73-.02-.31-.01-.62,0-.91.13-.03.01-.06.03-.09.04-.19.25-.37.49-.7.49-.08,0-.15-.02-.21-.06-.2.08-.41.13-.63.15,0,.07-.02.15-.05.25-.12.4-1,1.14-1.3,1.28-.96.48-1.64-.02-2.42-.51-.68-.42-.49-.5-1.4-.09-.68.3-1.22.83-2.03.68-.43-.08-.8-.53-1.24-.64-.51-.13-1.03.08-1.54-.02-.21-.51-.26-1.14-.33-1.74-.27-.19-.53-.37-.81-.53-.52-.32-1.09-.54-1.66-.6-.28-.01-.57,0-.85.08-.28.08-.55.18-.81.33-.52.28-1,.67-1.46,1.09-.23.21-.45.43-.67.65-.21.22-.45.47-.72.69-.27.22-.56.41-.87.56-.31.16-.62.28-.93.38-.16.05-.31.1-.46.15-.15.05-.29.09-.43.15-.29.11-.57.23-.87.35-.3.12-.6.25-.91.35-.31.11-.66.2-.96.27-.19.04-.38.09-.56.14-.15.37-.31.74-.5,1.11-.05.1-.1.19-.16.28l-.14.25c-.09.16-.17.33-.25.5-.21.46-.38.94-.53,1.44-.06.39-.12.79-.19,1.19-.1.56-.24,1.11-.41,1.64l-.07.28c-.11.4-.22.8-.35,1.19l-.1.3-.05.14-.04.12c0,.05-.02.11-.02.17l-.11.66-.1.66c-.08.47-.18.93-.32,1.38-.07.23-.15.45-.23.67-.04.11-.09.22-.13.33l-.07.16-.08.17c-.21.45-.47.85-.7,1.23-.04.06-.07.11-.1.17,0,.03-.01.05-.02.08-.11.37-.23.69-.31,1-.02.08-.04.15-.05.22l-.05.26c-.04.18-.08.36-.12.54,0,.03-.02.07-.02.1.03.07.06.16.1.27.06.18.12.41.14.64,0,.06,0,.12,0,.17v.13s0,.24,0,.24v.95s.02.48.02.48c0,.18,0,.36-.02.54-.05.72-.28,1.36-.33,1.91-.01.14-.09.28-.09.42v.21l.07.22c.01.31.06.64.06.99v.13s.02.09.01.15c0,.11-.02,27.65-.03,27.76-.03.21-.08-.17-.14,0-.08.25-.14-.18-.19,0,.02.18.05-.17.08,0,.03.18.06-.04.1.12.04.16.09-.38.13.12h-.25s.05-.5.08,0h.26c0-.5,0-.18,0-.12,0,.06.01-.06,0,.06,0,.03,0-.44,0,.06h-.04s-.02-.15-.03-.12c-.02.05-.05-.12-.09-.06-.08.13-.21-.11-.35-.03-.06.04-.14.09-.2.11-.06.02-.11-.39-.17.11h-1.6c-.02-.5-.04-.08-.06-.12-.02.07-.04-.14-.07-.06-.05.15-.11-.22-.23-.03-.06.09-.14,0-.26.11-.13.11-.31-.39-.56.11h-.33c-.13,0-.22-.16-.26-.12-.02.02-.03-.07-.04-.06.01-.02.03.14.05.09,0-.02.02.09.02.09h-1.5c0-.5.03.5.05,0h-1.26c.04-3.49-.07-31.53.1-34.94.02-.43.05-.96.08-1.39.01-.21.03-.48.05-.69l.06-.66c.02-.23.03-.49.05-.72-.05-.07-.1-.16-.14-.23-.05-.08-.09-.16-.13-.23-.23-.27-.45-.53-.68-.79-.22-.24-.43-.48-.65-.72-.22-.24-.45-.48-.68-.74-.11-.13-.23-.26-.34-.4-.1-.13-.24-.31-.34-.48-.2-.34-.33-.65-.46-.9l-.12-.23-.12-.24c-.07-.16-.15-.32-.21-.48-.13-.32-.24-.64-.36-.95-.1-.27-.2-.53-.3-.79l-.3-.39c-.14-.19-.29-.37-.45-.56-.25-.31-.52-.63-.76-.98-.16-.16-.31-.33-.46-.5l-.09-.11-.08-.1c-.05-.06-.1-.12-.16-.19-.11-.13-.22-.25-.34-.38-.12-.13-.24-.27-.36-.41-.12-.14-.25-.31-.35-.46-.1-.16-.21-.31-.3-.47l-.14-.24-.13-.24c-.26-.49-.48-.99-.67-1.5-.11-.08-.22-.15-.34-.23-.2-.12-.42-.25-.63-.39-.21-.14-.41-.28-.61-.42-.2-.14-.4-.28-.6-.41-.05-.03-.1-.07-.15-.09-.05-.03-.09-.05-.14-.08l-.15-.07-.16-.06c-.43-.16-.89-.25-1.36-.29-.47-.04-.94-.02-1.39.08-.23.06-.46.13-.71.18-.12.03-.25.05-.38.07-.06,0-.13.01-.19.02h-.18c-.21.03-.42.11-.63.21-.21.1-.44.23-.7.3-.49.15-1.01.17-1.51.13-.35-.03-.7-.07-1.04-.12-.02.13-.07.27-.19.4-.41.45-1.57.26-2.09.49-.51.22-.53.46-1.19.4-.55-.05-1.03-.63-1.57-.51-.33.07-.57.86-1.03.94-.51.09-.69-.31-1.06-.51-1.02-.55-1.91-1.5-2.05-2.75-.11-.98.83-.78.7-1.56-.19-1.11-2.62-1.16-3.36-.99-.53.13-.49.31-1.02.07-.34-.16-.77-.75-.78-1.12.18-.08.32-.21.4-.39-.27-.69-1.96-.84-2.6-1.16.26-.41,2.85-.3,2.85-.3.54-.06,1.18-.14,1.8-.28-.22-.13-.44-.27-.66-.4-.55-.34-1.17-.56-1.8-.74-.27-.07-.53-.14-.8-.17-.16.94-.64,1.73-1.85,1.63-.16-.09-.32-.18-.49-.27-.46.04-.85.24-1.18.59-.71.34-1.32.47-1.76-.25-.38-.61-1.42-2.53-1.27-3.19.22-.97,2.45-.25,2.13-1.2Zm63.86-9.17c.16-.32.36-.64.58-.93.21-.28.42-.58.68-.85.27-.27.57-.47.85-.68.14-.1.28-.21.42-.32.07-.06.13-.12.19-.18l.2-.19c.26-.25.53-.47.73-.76.02-.02.03-.04.04-.06-.32.3-.64.56-1.06.56-.71,0-1.85-.95-2.53-.61-.4.2-1.14,1.91-1.14,2.35,0,.69.41,1.36.97,1.83.03-.05.05-.11.08-.16Zm-50.04-39.65c-.28.83-.1.55-1.04.94-.18.08-.38.16-.58.27-.11,1.01.13,1.86.18,2.86.04.94-.47,1.35-1,2.04,0,.08.02.16.04.23.38.65,1.83.52,2.37.56.64.06.84.28,1.41.38.93.17,2.58-.15,3.14-.94.13-.18.19-.37.21-.56-.88-.11-1.78-.38-2.18-1.09-.35-.63-.05-1.4-.36-2.05-.34-.72-1.61-1.51-1.14-2.46.12-.25.45-.32.67-.51.11-.09.21-.2.31-.31-.36-.02-.71-.06-1-.07-.09,0-.6-.08-.71-.03-.53.23-.16.24-.32.72Zm37.39,57.94c.09-.17.17-.35.25-.52.07-.16.13-.33.18-.52.03-.1.06-.21.09-.31-.36.24-.69.5-.97.78-.14.13-.25.28-.36.42-.05.07-.1.15-.15.22-.03.05-.06.12-.09.19-.06.16-.1.35-.17.58-.04.11-.08.24-.14.37-.05.11-.1.19-.15.26.34-.41.72-.75,1.11-1.07.1-.08.21-.16.31-.25.03-.06.06-.12.09-.17Zm-20.5,1.19l.19.42c.06.13.13.25.2.38.15.25.33.54.48.84.27.53.59,1.04.96,1.53.73.97,1.59,1.86,2.5,2.69.41.37.85.7,1.32,1.03-.11-.32-.22-.64-.31-.97-.26-.9-.45-1.83-.51-2.79-.02-.24-.01-.48-.02-.72v-.68s.01-.77.01-.77c-.07-.15-.14-.3-.21-.45-.16-.38-.31-.77-.43-1.17-.03-.1-.06-.2-.09-.3l-.08-.29-.15-.58c-.05-.2-.1-.4-.14-.61-.02-.11-.04-.21-.05-.33,0-.05-.01-.12-.02-.18,0-.06,0-.12,0-.18,0-.23.03-.43.03-.6,0-.17-.01-.28-.06-.47-.02-.1-.05-.21-.07-.32-.02-.11-.03-.23-.04-.34-.02-.22-.02-.44,0-.65,0-.09,0-.19.01-.28-.38.09-.76.19-1.08.23-.05.46.07.92-.37,1.26-.89-.14-1.26-.51-1.98-1.01.16.37.38.96.35,1.36-.09,1.04-.69.79-1.36,1.11-.03.01-.05.02-.07.04l.05.2c.08.29.17.58.28.87l.32.89c.1.29.21.57.33.85Zm16.48-12.24c-.43.08-.86.11-1.3.09.01.05.02.09.04.14.02.05.03.13.05.19.01.07.03.14.04.2.02.14.03.27.04.4.02.26.01.52,0,.76,0,.14,0,.28,0,.41.28-.37.59-.72.89-1.05l.5-.53.49-.54c.16-.17.33-.34.51-.5,0-.01.02-.03.03-.04-.4.24-.84.39-1.3.46Zm-6.2-2c-.12.51-.13,1.27-.32,1.86.01.05.02.09.03.14,0,0,0,.01,0,.02.06.16.12.33.17.5.11.38.21.75.31,1.12.1.37.19.75.27,1.12l.02.09c.1.2.21.4.31.61.05.11.1.22.15.33.1-.35.19-.7.26-1.06.05-.22.09-.44.13-.67.04-.23.07-.47.12-.71.05-.24.11-.5.19-.74.07-.22.15-.44.21-.66.08-.27.14-.54.18-.81v-.29c-.65-.41-1.31-.79-2.04-.86Zm4.64,21.35c.09-.55.26-1.02.37-1.45-.08-.34-.15-.69-.2-1.04-.07-.46-.1-.93-.12-1.39,0-.23-.01-.46,0-.69v-.66s0-.16,0-.16v-.09s0-.08,0-.12c0-.16.05-.32.08-.45,0,0,0,0,0-.01,0-.02-.01-.04-.02-.06l-.1-.33-.11-.34c-.16-.5-.27-.99-.37-1.47l-.15-.7c-.04-.2-.1-.42-.14-.64-.09.13-.18.26-.27.4-.04.16-.09.32-.14.47-.14.42-.3.83-.46,1.22-.09.23-.18.45-.26.67v1.28s.01.66.01.66c0,.23-.01.46-.03.68-.03.45-.07.88-.1,1.29,0,.09,0,.18-.01.26.06.55.09,1.11.11,1.65l.02.61c0,.09,0,.22,0,.33,0,.11,0,.23-.02.34-.03.32-.08.63-.14.93,0,.07,0,.15,0,.22,0,.09.01.17.02.27l.03.3c.05.4.23.81.29,1.22s.28.83.28,1.26h0s-.13,0-.12,0c.18-.3.3-.58.49-.84.07-.1.12-.21.19-.31l.13-.56c.07-.26.14-.51.22-.73.04-.11.07-.22.1-.33l.1-.35c.07-.23.13-.45.19-.66.03-.11.05-.21.07-.31.02-.1.03-.19.05-.34Zm-9.06-9.43c0,.2,0,.42.02.64v.21c.05.19.09.38.14.57.11.43.24.85.4,1.24.08.2.17.39.26.58.11.21.22.45.31.67.19.45.34.87.52,1.26.08.17.21.42.3.62.05.1.09.19.14.28.02.04.05.08.06.11.02.03-.05.06-.02.1l.05.17v-.13c0-.74.07-1.48.04-2.21-.07-.84-.1-1.68-.18-2.52-.05-.11-.07-.22-.12-.33-.13-.3-.26-.59-.41-.88-.1-.14-.19-.28-.28-.43-.47.01-.86-.23-1.17-.59-.04.23-.07.45-.06.66Zm3.78.23s-.01-.1-.02-.15c-.04.25-.07.49-.1.74.04-.2.08-.39.12-.59Zm-.46-3.11c.1-.36.2-.69.25-1.04-.06-.2-.1-.4-.16-.6-.03-.11-.06-.22-.1-.33-.01.35-.08.7-.09,1.05,0,.42-.06.83-.06,1.25v.03c.5-.12.12-.24.15-.37Zm6.04,2.21c-.02-.1-.03-.2-.05-.31-.01-.05-.02-.11-.03-.16.02.15.05.31.09.46Zm-.84-6.76c0-.17,0-.33.01-.48-.02.18-.04.35-.06.52.01.16.03.31.04.47.01.19.03.39.04.59,0-.01.01-.03.02-.04,0-.1-.01-.2-.02-.3-.01-.24-.03-.48-.03-.75Zm3.02-.19c.27-.39.47-.8.62-1.25-.02.03-.05.05-.07.08-.11.13-.25.28-.4.41-.09.15-.19.3-.29.45-.12.17-.22.33-.32.5-.2.34-.37.7-.54,1.07.37-.41.72-.82,1.01-1.25Zm-1.18,2.97c-.16.19-.32.38-.46.58l-.3.41c.03.1.06.21.09.32.02-.03.04-.06.06-.1l.36-.58.19-.29c.06-.09.11-.18.17-.27.08-.15.16-.3.24-.45-.12.13-.23.26-.34.39Zm4.73-5.73c-.2.1-.39.2-.59.3,0,0,0,0,0,.01-.29.38-.58.72-.82,1.07-.12.18-.23.35-.32.54-.11.21-.22.42-.33.62-.11.2-.23.41-.35.61l-.18.3-.09.15s-.05.08-.07.12c-.18.33-.28.75-.43,1.21-.15.47-.36.91-.59,1.33-.06.11-.12.21-.18.31l-.17.29-.35.59c-.12.2-.25.4-.39.6-.04.06-.08.12-.13.18.03.09.06.19.09.28.06.22.12.45.17.68.1.46.16.92.2,1.38.02.23.03.46.04.69,0,.25,0,.42.02.66,0,.12,0,.25,0,.38,0,.07-.01.14-.02.21,0,.04-.01.07-.02.11l-.02.09c-.04.17-.05.37-.08.6-.01.09-.02.17-.04.27.19.63.33,1.29.41,1.95,0,.03,0,.06,0,.08v-.03c.09-.2.18-.4.25-.6.03-.07.05-.14.07-.21,0-.14.02-.29.04-.44,0-.06.02-.12.03-.19.01-.06.02-.12.05-.2.04-.15.09-.28.15-.39.08-.16.17-.3.26-.43.06-.21.12-.43.17-.64.22-.85.42-1.72.64-2.59.11-.44.23-.87.35-1.31.12-.43.24-.84.3-1.23.01-.1.02-.2.03-.29,0-.1,0-.19,0-.31v-.67c0-.44.02-.9,0-1.32,0-.22-.02-.45-.02-.68,0-.12,0-.24.01-.36,0-.13.02-.24.05-.39.13-.57.45-.99.76-1.35.16-.18.33-.35.48-.49.15-.15.3-.31.44-.47.29-.32.56-.66.81-1.01.12-.16.24-.33.35-.5-.35.13-.68.28-1,.46Zm-27.81-29.07c-.38-.98-1.01-.95-1.63-.62.29.29.56.62.78.96.24.34.47.69.69,1.04.24-.41.34-.9.15-1.38Zm28.82,37.22c.23-.34.49-.67.72-.98.23-.32.46-.66.71-.99.03-.04.06-.08.09-.12.33-1.22,2.1-2.2,2.78-2.97.31-.35.91-1.35.76-1.83-.27-.9-1.46-.79-2.27-.93-.64-.11-1.27-.09-1.87-.32-.05-.08-.1-.15-.16-.21-.15.24-.31.47-.47.7-.26.37-.54.74-.84,1.09-.15.17-.31.35-.47.51-.16.17-.31.31-.44.47-.27.31-.48.64-.54.95-.01.07-.02.18-.03.27,0,.1,0,.2,0,.3,0,.21.02.43.03.65.03.47.02.91.02,1.35v.67c0,.1.01.24,0,.36,0,.13-.02.25-.03.37-.06.49-.19.94-.3,1.37-.11.42-.22.85-.32,1.28,0,.01,0,.02,0,.03.67-.64,1.44-1.06,2.15-1.49.06-.04.12-.07.18-.11.1-.15.19-.3.29-.45Zm-15.55,13.47c-.19-.17-.38-.33-.57-.48-.23-.18-.5-.37-.75-.56-.01,0-.02-.02-.03-.02.17.15.34.3.5.47.13.14.27.28.39.43.06.07.12.15.18.23l.16.21c.16.21.32.43.49.66-.12-.31-.25-.63-.37-.94Zm-27.27-32.15c-.09.21-.25.48-.46.75.21-.04.39-.04.64-.06,1.46-.15,1.39-1.64.28-2.42-.08-.06-.17-.12-.25-.17-.11.56.02,1.36-.21,1.91Zm12.28-16.23c.15.01.29,0,.44-.04-.02-.04-.04-.08-.07-.11-.11-.17-.24-.33-.35-.5-.1-.17-.22-.35-.23-.55.01.2.13.38.24.54.11.17.24.32.36.49.03.04.05.08.07.12.37-.1.72-.35.97-.67-.23-.38-.47-.76-.72-1.13-.22-.36-.48-.68-.77-.98-.46.29-.89.71-1.18.97-.37.33-.68.55-.98.67.74.55,1.55,1.13,2.21,1.19Zm46.58,15.18c-.29.06-.54.24-.77.44-.01.02-.02.05-.03.07-.07.16-.16.33-.26.48-.21.31-.48.56-.74.8l-.19.19c-.06.06-.13.13-.2.19-.14.12-.28.24-.42.35-.28.22-.57.43-.8.67-.23.25-.42.55-.64.84-.21.28-.38.58-.53.9-.03.07-.07.14-.1.22.39.26.82.42,1.22.43.96.03,1.48-.59,2.25-.85.02-.11.06-.21.1-.32.09-.21.22-.39.35-.56l.38-.47c.12-.15.22-.32.33-.48.21-.34.43-.7.75-1,.3-.29.62-.54.94-.79.1-.08.2-.16.3-.24-.64-.42-1.05-1.08-1.94-.88Zm4.45,19.08c.33-1.16,1.23-.29,1.71-.81.47-.5-.19-.92-.39-1.24-.33-.55-.08-.88-.22-1.48-.2-.88-1.67-1.02-2.4-.56-.74.46-.99,1.55-1.34,2.29-.37.77-1.43,1.43-1.54,2.23-.23,1.58,2.28,1.23,3.03,1.6,1.02.5.12,1.13.16,2,.52.15,1.52-.21,1.69.25.17-.01.33-.04.49-.09-.42-.5-.53-1.79-.73-2.23-.27-.61-.68-1.25-.47-1.98Zm-18.15.3c-.67.78-1.22,1.67-1.76,2.58.07-.05.14-.1.22-.16.14-.1.28-.21.43-.32.08-.06.14-.1.2-.15.06-.05.13-.1.19-.15.25-.21.48-.45.71-.71.19-.22.39-.45.58-.67-.17-.12-.37-.27-.57-.42Zm-26.36,3.69c-.14.16-.31.28-.5.37.12.08.24.17.37.25l.38.23c-.08-.28-.17-.57-.26-.85Zm-11.63-39.58c.04.06.07.12.11.19.45-.18.87-.39,1.18-.56-.11-.11-.22-.24-.34-.38-.44.15-.75.39-1.04.6l.09.16Zm48.93-12.11c-.59-.07-1.11-.68-1.74-.31-.33.19-.45.66-.75.9-.18.14-.66.4-.86.52-.36.21-1.04.27-1.13.77-.13.72.54.52,1.04.52.65,0,.97.26,1.55.33.43.05.68-.12.98-.34.16-.32.32-.64.49-.95.26-.48.52-.96.77-1.44-.11.02-.23.02-.34,0Zm.51-.04c-.17.33-.33.66-.5.99.24-.33.47-.65.61-1.02-.04.01-.07.02-.11.03Zm5.05,33.01c.07-.08.15-.16.23-.23.07-.07.15-.14.22-.22.29-.3.57-.62.87-.92.3-.3.64-.6,1.04-.81.2-.11.42-.18.63-.23.1-.03.2-.05.29-.07-.21-.23-.43-.43-.89-.48-1.05-.11-1.89.1-2.92-.33-.01,0-.02-.01-.04-.02-.13.11-.26.22-.39.33-.31.26-.62.51-.89.79-.27.27-.46.6-.67.95-.1.17-.21.35-.34.52l-.37.48c-.12.16-.22.31-.28.47,0,.02-.01.04-.02.05.42-.03.44.18.88.41.59.3,1.31.15,1.97.15.09-.11.17-.22.26-.33.13-.17.27-.33.42-.49Zm11.42,13.7c-.61.14-1.3.13-1.81.25-1.35.3-1.41.76-1.8-1.06-.89.19-.14,2.91,1.12,2.83.92-.06,2.5-1.02,2.49-2.01Zm-6.48,4.63c.21.01.43.03.64.04-.13-.15-.31-.26-.6-.3-.41-.06-.65.1-.85.32.27-.07.55-.08.81-.06Zm-24.58,2.91c.29-.09.58-.2.87-.31.3-.11.6-.23.91-.34.15-.05.32-.1.48-.15.15-.04.3-.09.45-.13.59-.18,1.12-.41,1.58-.77.24-.18.44-.38.68-.61.23-.22.47-.45.71-.66.49-.43,1.02-.83,1.63-1.14.3-.16.63-.27.96-.36.34-.08.69-.1,1.04-.07.7.08,1.33.37,1.89.73.14.09.28.19.42.28-.16-.79-.51-1.39-1.56-1.39-1.34,0-2.57.57-3.94.39-.79-.1-1.19-.38-1.83-.86-.2.25-.4.49-.61.74-.24.27-.48.54-.76.79-.07.06-.14.12-.22.18-.07.06-.16.12-.22.17-.13.1-.27.21-.41.32-.14.11-.29.22-.45.33-.08.05-.16.11-.25.15-.09.05-.18.1-.25.13-.21.11-.42.22-.61.34,0,.01-.02.03-.03.04-.21.33-.45.62-.66.89v.02c-.06.09-.11.19-.16.28-.2.38-.36.78-.52,1.19.3-.06.56-.12.84-.21Zm-31.95-.51c.48.02.96-.02,1.39-.17.22-.07.41-.19.63-.31.22-.12.47-.23.75-.27l.19-.02c.06,0,.11-.01.17-.02.11-.02.23-.04.34-.07.23-.06.46-.14.7-.21.5-.14,1.02-.17,1.52-.15.51.02,1.01.1,1.51.26l.19.07.18.08c.06.03.12.06.18.09.06.03.11.06.16.1.21.13.42.26.63.39.21.13.41.26.61.39.06.04.13.08.2.12-.15-.16-.3-.3-.45-.43-.11-.1-.23-.19-.35-.26l-.42-.27c-1.14-.77-2.1-1.72-3.02-2.67-.07-.07-.14-.14-.21-.21-.72-.02-.95,1.48-2.05,1.28-.68-.12-1.45-.94-2.13-1.21-1.12-.45-1.21-.61-2.2-.04-.68.39-1.57.51-1.16,1.59.2.52,1.38,1.18,1.56,1.87.36.03.72.07,1.07.08Zm-14.67-8.42c.64.16,1.29.37,1.87.71.3.17.6.35.9.51.36-.09.7-.2,1.01-.34.86-.38,2.39-.97,1.87-2.07-.28-.59-1.12-1.44-1.81-1.62-.69-.18-1.22.17-1.89.16-1.47-.02-2.76-.48-2.71,1.51,0,.32,0,.66-.05.99.28.03.55.09.82.16Z"
           id="path13"
           style="fill:#f1d0f1;fill-opacity:1" />
        <path
           class="cls-1"
           d="m816.34,171.1c-.16,0-.33-.02-.49-.02.27-.07.42-.05.49.02Z"
           id="path14"
           style="fill:#f1d0f1;fill-opacity:1" />
        <path
           class="cls-1"
           d="m822.02,156.68s.03-.03.05-.05c.07.01.12.03.18.06-.07,0-.15,0-.23-.01Z"
           id="path15"
           style="fill:#f1d0f1;fill-opacity:1" />
        <path
           class="cls-1"
           d="m820.99,157.97c-.55.62-2.37,1.2-2.51,0-.12-1.03.54-.4,1.02-.75.24-.18.42-1.17.57-1.47.82-1.53.67.6,1.54.85.14.04.28.07.41.08-.44.41-.65.85-1.03,1.29Z"
           id="path16"
           style="fill:#f1d0f1;fill-opacity:1" />
      </g>
      <path
         class="cls-1"
         d="m195.14,92.57s0,0,0-.01c-.01-.01-.04-.03-.07-.04,0,0,0,0,.01,0-.03,0-.06-.02-.09-.03-.01,0-.02-.01-.04-.02,0,0,0,0,0,0-.33-.14-.88-.42-1.09-.57-.06-.05-.11-.09-.12-.14-.03-.1-.07-.2-.1-.29-.22-.66-.42-1.22-.71-1.81-.09-.18-.18-.36-.28-.55-.37-.66-.46-.78-.89-1.29-.1-.12-.26-.27-.41-.37-.63-.44-1.85-1.13-2.65-1.33-.08-.03-.17-.05-.26-.07,0,0,0,0,0,0,0,0,0,0,0-.01,0,0,.02-.02.02-.03.03-.03.07-.09.09-.12.01-.01.01-.03.02-.05,0-.01,0-.03,0-.04,0-.02,0-.03,0-.05,0-.02-.02-.03-.02-.05-.03-.08-.06-.13-.08-.19,0,0,0-.02,0-.03,0,0,0-.02,0-.03,0-.03,0-.05-.01-.08,0,0,0-.01,0-.02,0-.02-.02-.04-.03-.05-.01-.01-.03-.02-.04-.03-.02-.02-.08-.03-.11-.04-.03,0-.05,0-.08-.01-.04,0-.08-.02-.13-.02.03-.24.14-1.33.14-1.34,0-.01,0-.02,0-.03s0-.02,0-.03c0-.01,0-.02,0-.04-.02-.06-.25.07-.31-.61h0s0-.08.02-.1c0,0,0,0,0,0,0,0,0,0,0-.02.01-.02.09-.3.1-.32,0,0,0-.02,0-.03v-.03s0-.02,0-.02c0,0,0-.02,0-.03,0-.02-.01-.04-.02-.06,0,0,0,0,0,0,0-.03-.01-.04-.01-.05,0,0,.01,0,.01,0,0,0,.02-.02.03-.07,0-.01-.01-.04-.03-.06,0,0,0,0,0,0-.02-.09-.11-.13-.1-.16,0,0,0-.01,0-.01,0,0,0,0,.01-.01.02-.02.03,0,.03-.03,0,0-.01-.02-.03-.03-.02-.02-.06-.04-.09-.06-.03-.01-.06-.03-.07-.03-.02,0-.1-.04-.13-.04-.03,0,.02,0-.01,0-.03,0,.04-.06,0-.06-.04,0,0,.01-.04.02-.02,0-.05,0-.07.01-.01,0-.23.17-.23.17,0,.01.03.03.03.03,0,.03-.03.09-.06.14-.06.08-.09.23-.02.21,0,0,0,0,0,0-.01.03-.02.07-.03.09,0,0,0,.02,0,.03,0,0,0,.01,0,.02,0,0,0,.02,0,.03,0,0,0,.02,0,.03.01.02.09.3.1.31,0,0,0,.01.01.02,0,0,0,0,0,0,0,.02.01.08.01.1h0c-.01.67-.27.56-.28.62,0,.02,0,.03,0,.04,0,0,0,.02,0,.03,0,.02,0,.03,0,.04,0,.01.12,1.13.15,1.36-.03,0-.06,0-.09.01-.05,0-.1.02-.14.03-.03,0-.07.02-.09.03-.03.01-.05.02-.06.03,0,0-.02.03-.03.04,0,0,0,0,0,.01,0,.03,0,.06,0,.09,0,0,0,.02,0,.03,0,0,0,.02,0,.03-.01.09-.03.1-.06.18,0,.02-.01.04-.02.05,0,.01,0,.03,0,.04,0,.02,0,.03,0,.05,0,.02,0,.03.02.05.02.03.06.08.09.11,0,0,.01.02.02.03,0,0,0,0,0,.01,0,0,0,.02,0,.03-.77.14-1.86.67-2.47,1.06-.14.09-.27.21-.4.32-.43.37-.72.76-1.14,1.37-.13.19-.24.38-.35.57-.37.64-.65,1.3-.87,1.94-.03.09-.04.13-.07.22-.01.03-.07.12-.13.16-.19.14-.73.38-1.12.55,0,0,0,0,0,0-.06.01-.15.05-.17.07,0,0,0,.01,0,.02,0,.02,0,.04,0,.06,0,0,.01.01.02.02.08.06.18.12.28.19-.03.11-.06.26-.08.28,0,0,0,.01,0,.02,0,.02,0,.05.01.06,0,0,0,.01.02.02.07.07.23.2.33.28.18.32.34.65.5.98,1.06,2.26,1.61,4.55,1.98,6.98.12.83.22,1.67.31,2.53-.14.02-.27.04-.38.05-.04.02-.15.29-.17.32,0,0,0,0,0,.01,0,.02,0,.04,0,.05,0,0,0,0,.01.01.05.05.16.16.22.22.08,0,.17-.01.25-.02.17.26.35.79.38,1.1,0,.03.03.07.07.1.08.07.2.15.24.16.23.11.61.27.88.47.05.03.1.08.14.12.08.09.18.17.25.26.34.41.47.83.53,1.05-.03,0-.04.01-.04.01,0,0,0,.01-.08.11-.07.1-.09.4.04.38,0,0,.01,0,.02,0-.05.07-.11.14-.14.2-.01.03-.02.05-.03.06,0,.02-.01.03-.01.05,0,.02,0,.04,0,.05,0,.02.02.03.05.05.04.04.41.63.47.66.02.01.03.02.05.03,0,0,.01,0,.02.02.04.03.07.3.07.33,0,0,0,0,0,0,0,.01.06.02.15.03-.01.03-.02.07-.02.09h0s0,.02,0,.02c0,.02.06.05.09.07,0,.01,0,.03,0,.04,0,0,0,.01,0,.02,0,0,0,.01,0,.02-.02.06-.04.14-.08.2,0,.01-.02.03-.02.04,0,0,0,.02,0,.03,0,.01,0,.02,0,.03,0,0,.01.02.03.03.03.02.08.06.11.08.01,0,.02.01.03.02,0,0,0,0,.01.01.02.01.05.04.08.07,0,0,0,0,0,0,0,0,0,0,0,.01,0,0,0,0,0,0,0,0,.11.1.12.11,0,0,0,0,0,0,0,0,.02,0,.02,0,.07.06.19.08.26.12,0,0,0,0,0,.01,0,0-.02.01-.02.03,0,.01,0,.03,0,.06-.7-.09-1.35-.15-1.96-.17-1.15-.05-2.15.01-3.05.15-.76.12-1.44.29-2.06.49-.61.2-1.17.44-1.69.69-.2.1-.4.2-.59.3-1.57.81-2.89,1.72-4.61,2.19-.47.13-.98.22-1.52.27-.49.04-1.01.05-1.58.02-.13,0-.26-.02-.39-.03,0-.64,0-1.15,0-1.19,0-.05-.08-.1-.23-.14h0s0,0,0,0c0,0,0,0,0,0,0,0,.03-.02.03-.02,0,0,0,0,0-.01.01-.04.05-.34.05-.35,0,0,0,0,0-.02,0-.01,0-.02,0-.03,0,0,0,0,0,0,0-.05,0-.1.03-.13,0,0,.01-.01.02-.02,0-.02.02-.03.03-.05.05-.06.11-.15.14-.21.01-.03.03-.05.03-.08,0-.02,0-.05,0-.08,0-.03,0-.05,0-.07,0-.03-.02-.06-.03-.1-.04-.16-.07-.17-.1-.34,0-.02,0-.03,0-.05,0-.02,0-.03,0-.05,0-.05,0-.1-.01-.15,0,0,0-.01,0-.02-.01-.03-.03-.06-.04-.07-.02-.02-.06-.04-.09-.06-.02-.01-.05-.02-.08-.03,0-.02.01-.04.02-.06,0-.02,0-.03,0-.05,0,0,0-.02,0-.03,0-.07-.01-.14-.02-.17-.03-.02-.07-.04-.11-.07-.02,0-.04-.02-.07-.03.07-1.4.31-6.9.31-6.92,0-.02,0-.04,0-.08,0-.02,0-.04,0-.06,0-.02-.01-.05-.02-.09-.04-.14-.6-.91-.62-2.4h0s.02-.18.03-.21c0,0,0-.01,0-.02,0-.01.01-.02.02-.03.03-.04.2-.65.22-.69.01-.02.02-.04.02-.06,0-.02,0-.03,0-.06,0-.02,0-.03,0-.05,0-.02-.01-.04-.02-.07-.01-.06-.04-.13-.06-.2,0,0,0,0,0,0,.15.05.1-.24-.02-.42-.05-.11-.13-.26-.14-.34,0,0,.07-.03.07-.06-.01-.01-.48-.37-.51-.38-.04-.01-.1-.02-.15-.03-.07-.01,0-.03-.09-.04-.09,0,.07.12,0,.12-.08,0,.04-.02-.03,0-.05,0-.24.08-.28.09-.03,0-.09.04-.15.07-.08.04-.16.09-.21.12-.03.02-.05.04-.06.05,0,.05.04.03.08.07,0,0,.02.02.02.03,0,0,0,.02,0,.03.01.07-.17.14-.22.35,0,0,0,0,0,0-.05.06-.08.11-.07.14.01.11.06.15.06.15,0,0,.01,0,.02-.01,0,.02,0,.05-.02.11,0,0,0,0,0,0-.02.05-.03.1-.04.14,0,.02-.02.04-.02.06,0,.02,0,.03,0,.05,0,.02,0,.04,0,.06,0,.02.01.04.02.06.02.04.19.65.22.69,0,.01.01.02.02.03,0,0,0,.01.01.02.02.03.03.18.03.22h0c-.14,1.53-.65,2.25-.68,2.39,0,.03-.01.05-.02.08,0,.02-.01.05-.01.07,0,.02,0,.05,0,.07,0,.02.22,5.5.3,6.91-.02,0-.05.02-.07.03-.02.01-.05.02-.07.03-.03.07-.04.14-.04.21,0,0,0,.02,0,.03,0,.01,0,.02,0,.04,0,.02.01.04.02.06-.03.01-.05.02-.07.04-.02.02-.05.03-.07.05-.01.01-.04.06-.05.09,0,.01,0,.02,0,.03,0,.05,0,.1-.02.15,0,.02,0,.04,0,.05,0,.02,0,.03-.01.05-.03.11-.07.19-.13.34-.01.03-.02.06-.04.09,0,.02-.01.05-.01.08s0,.06,0,.08c0,.03.01.06.03.09.03.06.09.15.14.21.01.02.02.03.03.05,0,0,.01.02.01.02.02.03.03.09.03.14,0,0,0,.02,0,.03v.02s.02.16.05.32c0,0,0,0,0,0,0,0,0,0,0,0,0,0,0,0,0,0,0,0,0,0,0,0,0,0,0,0,0,0,0,0,.01.01.02.01,0,0,0,0,0,0,0,0,.01,0,.02,0-.13.04-.21.09-.21.14,0,.04,0,.48,0,1.07-.29.04-.57.07-.84.08-.57.04-1.09.03-1.58-.02-.55-.05-1.05-.15-1.52-.27-1.71-.47-3.04-1.38-4.61-2.19-.19-.1-.39-.2-.59-.3-.53-.25-1.08-.49-1.69-.69-.62-.21-1.3-.38-2.06-.49-.9-.14-1.9-.19-3.05-.15-.61.02-1.26.08-1.96.17,0-.03,0-.05,0-.06,0-.01-.01-.02-.02-.03,0,0-.01-.01,0-.01.07-.04.19-.06.26-.12,0,0,.02,0,.02,0,0,0,0,0,0,0,.02-.01.12-.11.12-.11,0,0,0,0,0,0,0,0,0,0,0,0,0,0,0,0,0,0,.03-.03.06-.06.08-.07,0,0,0,0,.01-.01,0,0,.02-.01.03-.02.04-.02.09-.06.11-.08.01-.01.02-.02.03-.03,0,0,0-.02,0-.03,0-.01,0-.02,0-.03,0-.01-.01-.02-.02-.04-.03-.06-.06-.13-.08-.2,0,0,0-.01,0-.02,0,0,0-.01,0-.02,0-.01,0-.03,0-.04.03-.02.09-.05.09-.07,0,0,0,0,0-.01h0s0-.07-.02-.1c.09-.01.14-.02.15-.03,0,0,0,0,0,0,0-.03.03-.3.07-.33,0,0,.01,0,.02-.02.01-.01.03-.02.05-.03.05-.04.42-.62.47-.66.02-.02.04-.03.05-.05,0-.02,0-.03,0-.05,0-.02,0-.03-.01-.05,0-.02-.02-.04-.03-.06-.03-.06-.09-.13-.14-.2,0,0,.01,0,.02,0,.13.02.11-.28.04-.38-.08-.1-.08-.11-.08-.11,0,0-.02,0-.04-.01.06-.22.19-.64.53-1.05.08-.09.17-.17.25-.26.04-.04.09-.09.14-.12.27-.2.65-.36.88-.47.04-.02.16-.09.24-.16.04-.03.07-.07.07-.1.02-.3.2-.83.38-1.1.08,0,.17.02.25.02.07-.06.17-.17.22-.22,0,0,.01,0,.01-.01.01-.01,0-.03,0-.05,0,0,0,0,0-.01-.02-.02-.13-.3-.17-.32-.11-.02-.24-.03-.38-.05.09-.86.19-1.71.31-2.53.36-2.43.91-4.73,1.98-6.98.15-.33.32-.65.5-.98.1-.08.26-.21.33-.28,0,0,0,0,.02-.02.02-.01,0-.04,0-.06,0,0,0-.01,0-.02-.02-.02-.05-.17-.08-.28.1-.07.2-.13.28-.19,0,0,.01-.01.02-.02.02-.01,0-.04,0-.06,0,0,0-.01,0-.02-.02-.03-.11-.06-.17-.07,0,0,0,0,0,0-.39-.17-.93-.41-1.12-.55-.05-.04-.11-.13-.13-.16-.03-.09-.03-.13-.07-.22-.21-.64-.5-1.3-.87-1.94-.11-.19-.22-.38-.35-.57-.41-.62-.71-1-1.14-1.37-.13-.11-.26-.23-.4-.32-.61-.39-1.7-.93-2.47-1.06,0-.01,0-.03,0-.03,0,0,0,0,0-.01.01,0,.02-.02.02-.03.03-.03.07-.08.09-.11.01-.02.02-.03.02-.05,0-.01,0-.03,0-.05,0-.01,0-.03,0-.04,0-.02,0-.03-.02-.05-.03-.09-.05-.09-.06-.18,0,0,0-.02,0-.03,0,0,0-.02,0-.03,0-.03,0-.06,0-.09,0,0,0,0,0-.01,0-.01-.02-.03-.03-.04-.01-.01-.03-.02-.06-.03-.02,0-.06-.02-.09-.03-.04,0-.09-.02-.14-.03-.03,0-.06,0-.09-.01.03-.24.15-1.35.15-1.36,0,0,0-.02,0-.04,0,0,0-.02,0-.03,0-.01,0-.02,0-.04-.02-.06-.27.05-.28-.62h0s0-.08.01-.1c0,0,0,0,0,0,0,0,0,0,.01-.02.01-.02.09-.3.1-.31,0-.01,0-.02,0-.03,0,0,0-.02,0-.03,0,0,0-.01,0-.02,0,0,0-.02,0-.03,0-.03-.02-.06-.03-.09,0,0,0,0,0,0,.07.02.04-.12-.02-.21-.02-.05-.05-.11-.06-.14,0,0,.03-.02.03-.03,0,0-.22-.17-.23-.17-.02,0-.05,0-.07-.01-.03,0,0-.01-.04-.02-.04,0,.03.06,0,.06-.04,0,.02,0-.01,0-.02,0-.11.03-.13.04-.01,0-.04.02-.07.03-.04.02-.07.04-.09.06-.02,0-.03.02-.03.03,0,.02.02.01.03.03,0,0,0,.01.01.01,0,0,0,0,0,.01,0,.03-.08.07-.1.16,0,0,0,0,0,0-.02.03-.03.05-.03.06,0,.05.03.07.03.07,0,0,0,0,.01,0,0,0,0,.02-.01.05,0,0,0,0,0,0,0,.02-.01.05-.02.06,0,0,0,.02,0,.03,0,0,0,.02,0,.02v.03s0,.02,0,.03c.01.02.09.3.1.32,0,0,0,.01,0,.02,0,0,0,0,0,0,0,.02.02.08.02.1h0c-.06.69-.3.55-.31.61,0,.01,0,.02,0,.04,0,.01,0,.02,0,.03s0,.02,0,.03c0,.01.11,1.11.14,1.34-.05,0-.09.01-.13.02-.03,0-.05,0-.08.01-.03.01-.09.03-.11.04-.02.01-.03.02-.04.03,0,0-.02.03-.03.05,0,0,0,.01,0,.02,0,.03,0,.06-.01.08,0,.01,0,.02,0,.03,0,.01,0,.02,0,.03-.02.06-.04.1-.08.19,0,.02-.02.03-.02.05,0,.01,0,.03,0,.05,0,.01,0,.03,0,.04,0,.02,0,.03.02.05.02.03.06.09.09.12,0,0,.02.02.02.03,0,0,0,0,0,.01,0,0,0,0,0,0-.1.02-.19.04-.26.07-.8.2-2.02.89-2.65,1.33-.14.1-.3.25-.41.37-.43.51-.52.63-.89,1.29-.11.19-.2.37-.28.55-.29.59-.48,1.15-.71,1.81-.03.09-.06.19-.1.29-.01.05-.06.09-.12.14-.21.15-.76.43-1.09.57,0,0,0,0,0,0-.01,0-.02.01-.04.02-.03.01-.06.03-.09.03,0,0,0,0,.01,0-.03.02-.05.03-.07.04,0,0,0,0,0,.01,0,.02-.02.03,0,.05,0,0,.02,0,.02.01.1.06.21.11.37.2-.04.1-.09.23-.11.29,0,0,0,.01,0,.01,0,.02-.02.04,0,.05,0,0,.01,0,.02.02.1.07.17.2.33.31.02,0,.04,0,.06,0,.13.24.25.49.36.73,1.06,2.26,1.6,4.56,1.97,6.99.12.84.22,1.7.32,2.57-.13.02-.25.03-.37.05-.03.07-.18.29-.2.35,0,0,0,0,0,.01,0,.01-.01.03,0,.04,0,0,0,0,.02.01.07.05.08.14.19.22.11-.01.23-.03.35-.04.31.24.48.78.52,1.17,0,.03.02.06.06.1.06.07.15.15.18.16.27.1.63.29.86.45.05.03.1.07.14.11.1.07.19.15.27.23.29.27.43.58.52.85,0,0,0,0,0,0,0,0,0,.01.01.02,0,0,0,.02,0,.02,0,.02,0,.04,0,.05,0,.01-.02.02-.03.03-.02,0-.04.01-.07.02-.16.06-.23.24-.21.35.02.11.08.14.08.14,0,0,.03,0,.05-.01,0,.01-.01.04-.05.09-.04.05-.07.11-.1.14-.01.02-.03.04-.04.06,0,.02-.02.03-.02.05,0,.02,0,.04,0,.06,0,.02.02.04.04.06.04.04.41.63.47.66.02.01.03.02.05.03,0,0,.01.01.02.02.04.03.07.29.07.32,0,0,0,0,0,0,0,0,0,0,0,0,0,.01.05.03.15.04,0,.03-.01.07,0,.08,0,0,0,0,0,0,0,0,0,0,0,.01.01.02.11.05.13.06,0,.02,0,.04,0,.05,0,0,0,.01,0,.02,0,0,0,.01,0,.02-.03.04-.06.14-.1.2,0,.01-.02.02-.03.03,0,0,0,.02,0,.03,0,.01,0,.02,0,.03,0,.01.01.02.02.04.03.02.08.06.11.08,0,0,.02.01.03.02,0,0,0,0,.01,0,.02.01.05.04.09.07,0,0,0,0,0,0,0,0,0,0,0,.01,0,0,0,0,0,0,0,0,.07.05.13.1,0,0,0,0,0,0,0,0,.02,0,.04,0,.09.06.2.1.2.12,0,0,0,0,0,.01,0,0-.01.03-.02.04-.02.03-.2,2.21-.2,2.23,0,.01,0,.03,0,.04,0,.02,0,.03,0,.04,0,.02,0,.03.01.05.02.09.34.08.42,1.03,0,.03-.01.11-.02.13,0,0,0,0,0,0,0,0,0,.02-.02.02-.01.02-.12.4-.13.43,0,.01-.01.02-.01.04,0,0,0,.02,0,.03,0,.01,0,.02,0,.03,0,.01.01.03.01.04,0,.02.02.06.03.09t0,0s.02.06.02.07c0,0-.01,0-.01,0,0,0-.03.03-.04.09,0,.02.02.05.05.09,0,0,0,0,0,0,.03.13.14.17.13.22,0,0,0,.01,0,.02,0,0,0,.01-.01.02-.02.03-.04.01-.04.05,0,0,.01.02.03.03.03.02.08.05.13.08.04.02.08.04.1.04.03,0,.14.05.17.05.04,0-.03,0,.02,0,.04,0-.06.08,0,.08.05,0,0-.02.05-.02.03,0,.07-.01.09-.02.02,0,.31-.23.32-.24,0-.02-.04-.03-.04-.04,0-.05.05-.13.08-.2.08-.11.12-.31.02-.28,0,0,0,0,0,0,.01-.04.03-.09.04-.13,0-.02,0-.03,0-.04,0,0,0-.02,0-.03,0-.02,0-.03,0-.03,0-.01,0-.02-.01-.04-.01-.03-.12-.4-.14-.43,0,0,0-.01-.01-.02,0,0,0,0,0,0-.01-.02-.02-.11-.02-.13h0c.01-.91.36-.95.38-1.03,0-.02.01-.04.01-.05,0-.01,0-.02,0-.04,0-.02,0-.03,0-.05,0,0-.07-.77-.13-1.41.66-.1,1.28-.17,1.85-.2,1.09-.06,2.02-.01,2.84.12.69.11,1.3.28,1.86.48.54.2,1.04.44,1.5.7.18.1.35.2.53.3,1.41.84,2.66,1.79,4.54,2.3.52.14,1.09.25,1.72.32.57.06,1.19.08,1.87.06.36-.01.75-.04,1.15-.08.02.54.05,1.09.1,1.52-.41-.29-.85-.52-1.32-.67-.26-.08-.51-.11-.78-.14h-.34s0,.01,0,.01c0,0-.24.02-.61.08-.19.03-.41.08-.65.17,0,0,0,0,0,0-.18.04-.3.05-.29.05,0,0-.21.03-.42.03-.21,0-.42,0-.42,0-.7-.06-1.35-.21-1.97-.46-.65-.26-1.26-.63-1.82-1.11-.14-.12-.28-.25-.41-.38-.03-.08-.08-.18-.17-.31,0-.01-.02-.03-.03-.04-.04-.05-.09-.11-.14-.17-.01,0-.03,0-.04-.01-.38-.64-.98-1.65-1.01-1.56,0,.22.06.51.13.77-.56-.51-1.19-.93-1.88-1.21-.49-.2-1.01-.32-1.55-.34h0c-.47,0-.97.07-1.42.22-.63.21-1.1.57-1.41,1.05-.25.39-.4.86-.45,1.38h0s0,.06,0,.15c0,.09,0,.21.02.37.03.3.14.73.42,1.09.14.18.32.33.51.43.19.1.38.16.54.18.16.03.3.03.39.03.09,0,.15,0,.15,0h0s.04,0,.1-.02c.06-.01.15-.01.25-.06.2-.06.44-.2.64-.39.19-.19.34-.43.41-.63.04-.09.05-.19.06-.25.01-.06.02-.1.02-.1h0s0-.04,0-.08c0-.05,0-.11,0-.18,0-.15-.04-.34-.13-.54-.08-.2-.26-.38-.42-.47-.16-.08-.28-.1-.28-.1h0s-.07-.01-.15-.02c-.08,0-.16-.01-.16-.01,0,0-.19,0-.4.06-.1.04-.2.09-.27.15-.07.05-.1.09-.1.09,0,0-.06.06-.11.14-.01.01-.02.03-.03.05,0,0,0,.01-.01.02,0,0,0,0,0,.01-.03.05-.06.12-.09.2l-.44.95c-.12-.2-.18-.44-.2-.63-.03-.23-.01-.4-.01-.4h0c.04-.42.16-.78.36-1.08.24-.36.61-.63,1.11-.78.36-.11.75-.16,1.13-.16h0c.48.02.93.14,1.36.32.54.22,1.03.56,1.48.94-.43-.13-.87-.26-1.17-.25-.01,0-.02,0-.03,0,0,0,0,0,0,0-.05,0-.06.04-.02.07.03.03.11.07.22.11.72.2,1.42.94,1.91,1.3.13.09.27.18.43.25.06.03.12.05.19.07.1.1.21.2.32.29.62.52,1.29.93,2.01,1.22.68.27,1.41.44,2.17.5,0,0,0,0,.02,0-.21.25-.35.53-.43.77-.06.19-.1.35-.11.47-.02.11-.03.18-.03.18h0s0,.41,0,.41c0,0,.02.17.08.41.09.24.23.56.51.78.12.13.28.2.42.28.15.06.29.1.41.14.25.03.41.05.41.05,0,0,0,0,0,0,0,0,.04,0,.1,0,.06,0,.15,0,.24-.04.2-.05.42-.19.6-.36.17-.18.3-.4.36-.58.04-.09.04-.17.06-.23,0-.06.02-.09.02-.09h0s0-.03,0-.07c0-.04,0-.1,0-.17-.01-.13-.04-.31-.12-.49-.07-.18-.24-.35-.39-.43-.15-.07-.26-.09-.26-.09,0,0,0,0,0,0,0,0-.07-.01-.13-.02-.07,0-.14,0-.14,0,0,0-.16,0-.34.05-.18.06-.33.19-.33.19,0,0-.05.05-.11.12-.01.02-.02.03-.04.05,0,0-.01.01-.02.02,0,0,0,.01-.01.02-.01.03-.03.05-.04.08h0s-.05.11-.05.11c0,0,0,0,0,0l-.37.86c-.08-.11-.14-.24-.18-.34-.03-.17-.06-.28-.06-.28v-.29s0,0,0,0c0,0,0-.05.02-.15.01-.09.04-.22.09-.37.1-.29.31-.64.65-.86.34-.23.77-.35,1.09-.4.33-.06.56-.07.56-.07h0s.26,0,.26,0c.23.03.44.05.66.13.29.1.58.23.85.4-.33.2-.5.52-.62,1.03-.22.88-.03,2.35.06,3.48.08,1.13.8,2.37.8,2.37,0-.02.06-.04.16-.06,0,.04.01.08.02.12v8.96c0,25.26,0,22.69.01,47.72v11.35c-.15.01-.24.03-.26.05h0s0,0,0,0c0,0,0,0,0,0,0,0,0,0,0,0,0,.06-.04.36-.09.4,0,0-.02.01-.03.02-.02.01-.04.03-.06.04-.08.05-.56.76-.62.8-.03.02-.04.04-.05.07,0,.02,0,.04,0,.06,0,.02,0,.05.02.07.02.02.04.05.06.07.05.06.11.15.17.23.02.03.03.05.03.06-.03,0-.06-.01-.07-.01,0,0-.14.05-.17.18-.03.13,0,.33.21.39.08.03.16.05.25.06,0,0,.01.01.02.02,0,.03.03.11,0,.14,0,0,.02,0,.03,0,0,.12-.04.23-.08.26-.01,0-.02.02-.03.03-.02.02-.05.05-.08.07-.09.07-.77,9.34-.78,9.37,0,.03,0,.06,0,.09,0,.04.02.06.03.09,0,.04.03.07.05.11.05.11.09.19.13.26,0,0,0,0,0,0,0,0,0,.01.01.02.02.04.05.07.07.1,0,0,0,0,0,0,0,0,0,0,0,0,0,0-.01.01-.02.02-.02.01-.03.03-.05.04,0,0,0,0,0,0,0,0,0,0,0,0-.02.02-.03.04-.04.06,0,.01-.01.03-.01.04,0,0,0,.02,0,.03,0,.06,0,.12.06.18-.06,0-.11.02-.15.03,0,0,0,0,0,0,0,0-.01,0-.02,0-.03,0-.05.02-.06.03,0,0,0,0,0,0,0,0,0,0,0,0,0,0,0,0,0,0,0,0,0,0,0,0-.07.23-.11.44-.12.45,0,0,0,.02,0,.03,0,.01,0,.03.01.04-.01.08-.03.15-.07.19-.01.01-.03.02-.04.03-.03.02-.06.05-.09.07-.11.08-.27.21-.36.29-.04.04-.06.08-.07.12,0,.03-.01.07-.01.11s.01.08.03.11c.02.04.06.08.09.12.14.21.25.32.32.47.01.02.02.05.02.07,0,.02.01.05.02.07.02.07.03.14.04.21,0,.01,0,.02.02.04.03.04.07.1.11.12-.34,5.64-.74,10.37-1.44,22.56,0,.22-.03.65-.05,1.23,0,.06,0,.13,0,.21,0,.03.01.07.02.1-.01,0-.03,0-.04-.01,0,.02,0,.03,0,.04,0,.01,0,.02.01.05.02,0,.03.01.05.02.07.23.23.47.59.66.03.02.03.04.02.06-.02.02-.05.05-.1.08-.18.12-.55.28-.67.45-.02.03-.04.07-.07.13-.02.04-.04.1-.06.15-.04.1-.06.21-.08.32-.53.13-.88.28-.98.44-.01.01-.02.02-.03.03-.03.02-.05.05-.05.07-.11.82-.39,3.16-.4,3.19,0,0,0,.01,0,.02,0,.02,0,.04,0,.05.03.07.07.11.13.17.07.07.16.13.26.19.07.04.15.08.23.11.15.07.33.13.52.19.17.05.36.1.55.14.58.13,1.27.23,2.02.3.78.07,1.62.11,2.48.12.3,0,.6,0,.9,0,.56,0,1.12-.03,1.65-.07.41-.03.81-.07,1.19-.11.34-.04.66-.09.96-.14.42-.07.8-.16,1.11-.26.18-.06.35-.12.49-.18.15-.07.27-.14.36-.22.01,0,.02-.02.03-.03.08-.08.12-.11.14-.2,0-.01,0-.05,0-.07,0-.01,0-.02,0-.02-.02-.03-.33-2.88-.4-3.14,0-.02-.03-.04-.05-.06,0,0,0,0,0,0-.02-.2-.4-.38-1.03-.53-.03-.12-.07-.24-.11-.35-.03-.05-.05-.11-.07-.15-.03-.06-.06-.1-.08-.12-.14-.12-.41-.3-.52-.44-.03-.03-.05-.07-.05-.1,0-.03,0-.06.03-.08.21-.16.37-.38.47-.6,0,0,0,0,0,0,0,0,0-.02.01-.04,0-.01.01-.02.02-.03.03-.06.05-.12.06-.17.02-.08.03-.15.03-.21-.01-.57-.04-.95-.05-1.17-.65-12.23-1.06-16.93-1.38-22.62,0,0,.01,0,.01,0,.03-.02.09-.07.11-.1,0-.01.02-.02.02-.03,0-.07.01-.14.03-.21,0-.02.01-.04.01-.07,0-.03.01-.05.02-.07.06-.23.14-.24.24-.46.03-.06.05-.1.07-.13.01-.03.02-.06.02-.1,0-.05,0-.08-.01-.12-.02-.04-.04-.07-.09-.11-.09-.08-.24-.21-.35-.29-.03-.02-.06-.04-.09-.07-.01,0-.03-.02-.04-.03-.04-.04-.06-.1-.07-.17,0,0,0,0,0,0,0-.01.01-.03.01-.04,0-.01,0-.02,0-.02,0,0-.09-.42-.12-.48,0,0-.02,0-.03-.01,0,0-.07-.02-.08-.03,0,0,0,0,0,0-.02,0-.05-.01-.09-.02-.02,0-.03,0-.04-.01,0,0,0,0,0,0,0,0,.01,0,.02,0,.04-.03.07-.1.07-.18,0-.01,0-.02,0-.03,0-.02,0-.03-.01-.05-.01-.03-.03-.06-.05-.09,0,0,0,0,0,0-.04-.04-.06-.07-.07-.08,0,0,0,0,0-.01.01-.02.02-.03.03-.05,0,0,.02-.02.03-.03,0,0,0,0,0,0,.03-.06.06-.14.11-.23.02-.04.04-.08.05-.11.01-.03.02-.05.02-.08,0-.04,0-.07,0-.1-.01-.03-.71-8.96-.79-9.38,0-.03-.05-.04-.07-.05-.01-.01-.03-.01-.03-.03-.09-.22-.06-.37,0-.47.08-.02.13-.03.13-.03,0,0,.1-.01.2-.13.1-.12.36-.53-.14-.46,0,0-.01,0-.02,0,.07-.08.14-.17.18-.24.02-.03.03-.05.04-.08,0-.02.01-.03.02-.06,0-.03,0-.05,0-.07,0-.02-.03-.04-.06-.07-.06-.05-.54-.75-.62-.8-.02-.01-.04-.03-.06-.04,0,0-.02-.01-.03-.02-.06-.04-.09-.36-.09-.4h0s-.1-.04-.26-.06v-11.35c0-25.04,0-22.47,0-47.72,0-2.94,0-5.94,0-9,0-.02,0-.04,0-.06.06.02.1.03.12.05,0,0,.46-.64.64-1.29.18-.65.12-2.11.24-3.18.12-1.07-.04-1.57-.2-2.06-.06-.17-.32-.3-.68-.4.21-.11.42-.21.64-.28.22-.07.44-.1.66-.13h.26s0,0,0,0c0,0,.23.02.56.07.33.06.76.17,1.09.41.35.22.55.57.65.86.04.15.08.28.09.37.01.09.02.15.02.15h0s0,.29,0,.29c0,0-.02.11-.06.28-.04.1-.1.23-.18.34l-.37-.86s0,0,0,0l-.05-.11h0s-.03-.06-.04-.08c0,0,0-.01-.01-.02,0,0-.01-.01-.02-.02-.01-.02-.02-.04-.04-.05-.05-.07-.1-.13-.11-.12,0,0-.14-.14-.33-.19-.18-.05-.34-.05-.34-.05,0,0-.07,0-.14,0-.07.01-.13.02-.13.02,0,0-.01,0-.01,0,0,0-.11.03-.26.09-.14.08-.32.25-.39.43-.09.18-.11.36-.12.49,0,.07,0,.12,0,.17,0,.04,0,.06,0,.06h0s0,.04.02.1c.01.06.02.14.06.23.06.18.19.4.36.58.18.17.4.32.6.36.09.04.19.03.24.04.06,0,.09,0,.09,0,0,0,0,0,0,0,0,0,.17-.02.41-.05.12-.04.26-.08.41-.14.14-.08.3-.15.42-.28.27-.22.42-.55.51-.78.06-.25.08-.41.08-.41v-.4s0,0,0,0c0,0-.01-.07-.03-.18-.01-.11-.05-.28-.11-.47-.08-.23-.22-.52-.43-.77.01,0,.02,0,.02,0,.76-.06,1.49-.23,2.17-.5.72-.29,1.39-.7,2.01-1.22.11-.09.22-.19.32-.29.06-.02.13-.04.19-.07.16-.07.3-.16.43-.25.49-.36,1.19-1.1,1.91-1.3.12-.04.19-.08.22-.11.03-.04.03-.06-.02-.07,0,0,0,0,0,0,0,0-.02,0-.03,0-.3,0-.74.12-1.17.25.45-.39.95-.72,1.48-.94.43-.18.88-.29,1.36-.32h0c.38,0,.77.05,1.13.16.5.15.87.42,1.11.78.2.3.32.66.36,1.07h0s.01.17-.01.4c-.02.19-.08.43-.2.63l-.44-.95c-.04-.08-.06-.14-.09-.2,0,0,0,0,0-.01,0,0,0-.01-.01-.02-.01-.02-.02-.03-.03-.05-.05-.08-.11-.14-.11-.14,0,0-.04-.04-.1-.09-.07-.06-.16-.11-.27-.15-.21-.07-.4-.06-.4-.06,0,0-.08,0-.16.01-.07,0-.15.02-.15.02h0s-.12.03-.28.11c-.16.09-.35.27-.43.47-.09.2-.12.39-.13.54,0,.07,0,.14,0,.18,0,.05,0,.07,0,.07h0s0,.04.02.11c.01.06.02.15.06.25.07.2.21.44.41.63.2.19.44.33.64.39.1.04.19.04.25.06.06.01.1.02.1.02h0s.05,0,.15,0c.09,0,.23,0,.39-.03.16-.02.35-.09.54-.18.19-.1.37-.25.51-.43.28-.36.39-.79.42-1.09.02-.16.02-.28.02-.37,0-.09,0-.14,0-.14h0c-.05-.53-.2-1-.45-1.39-.31-.48-.78-.84-1.41-1.05-.45-.15-.94-.22-1.42-.22h0c-.55.02-1.06.15-1.55.34-.69.28-1.32.7-1.88,1.21.07-.26.13-.55.13-.77-.03-.09-.62.91-1.01,1.56-.01,0-.03,0-.04.01-.06.06-.1.12-.14.17-.01.01-.02.03-.03.04-.09.13-.15.23-.17.31-.13.13-.27.26-.41.38-.56.48-1.17.85-1.82,1.11-.62.25-1.27.4-1.97.46,0,0-.21,0-.42,0-.21,0-.42-.03-.42-.03,0,0-.12-.01-.29-.05,0,0,0,0,0,0-.24-.08-.46-.13-.65-.17-.37-.07-.61-.08-.61-.08h-.35c-.26.02-.52.05-.78.13-.28.09-.56.21-.82.35.02-.35.04-.76.05-1.17.24.02.47.03.69.04.68.02,1.3,0,1.87-.06.63-.07,1.2-.17,1.72-.32,1.89-.51,3.14-1.46,4.54-2.3.17-.1.35-.2.53-.3.47-.26.96-.49,1.5-.7.55-.21,1.17-.37,1.86-.48.82-.13,1.75-.18,2.84-.12.57.03,1.19.1,1.85.2-.06.64-.13,1.4-.13,1.41,0,.01,0,.03,0,.05,0,.01,0,.03,0,.04,0,.02,0,.03.01.05.02.09.37.12.38,1.03h0s-.01.11-.02.13c0,0,0,0,0,0,0,0,0,.02-.01.02-.02.02-.12.4-.14.43,0,.01-.01.02-.01.04,0,0,0,.02,0,.03,0,.01,0,.02,0,.03,0,.01,0,.02,0,.04,0,.04.03.08.04.13,0,0,0,0,0,0-.1-.03-.06.16.02.28.03.07.08.15.08.2,0,0-.04.02-.04.04,0,0,.3.23.32.24.02,0,.06.01.09.02.05,0,0,.02.05.02.06,0-.04-.08,0-.08.05,0-.02.01.02,0,.03,0,.15-.05.17-.05.02,0,.06-.02.1-.04.05-.03.1-.05.13-.08.02-.01.03-.03.03-.03,0-.03-.02-.02-.04-.05,0,0,0-.01-.01-.02,0,0,0-.02,0-.02,0-.05.1-.09.13-.22,0,0,0,0,0,0,.03-.04.05-.07.05-.09,0-.07-.04-.09-.04-.09,0,0,0,0-.01,0,0-.01,0-.03.02-.07h0s.02-.06.03-.09c0-.01,0-.03.01-.04,0-.01,0-.02,0-.03,0-.01,0-.02,0-.03,0-.01,0-.03-.01-.04-.01-.03-.12-.4-.13-.43,0,0-.01-.01-.02-.02,0,0,0,0,0,0-.01-.02-.02-.1-.02-.13.08-.94.4-.94.42-1.03,0-.02,0-.03.01-.05,0-.01,0-.03,0-.04,0-.02,0-.03,0-.04,0-.02-.18-2.2-.2-2.23,0-.01-.02-.03-.02-.04,0,0,0,0,0-.01,0-.02.11-.06.2-.12.02,0,.04,0,.04,0,0,0,0,0,0,0,.07-.05.13-.1.13-.1,0,0,0,0,0,0,0,0,0-.01,0-.01,0,0,0,0,0,0,.04-.03.07-.06.09-.07,0,0,0,0,.01,0,0,0,.02-.01.03-.02.04-.02.09-.06.11-.08.01-.01.02-.02.02-.04,0-.01,0-.02,0-.03,0-.01,0-.02-.01-.03,0-.01-.02-.02-.03-.03-.04-.06-.08-.16-.1-.2,0,0,0-.01,0-.02,0,0,0-.01,0-.02,0-.02,0-.04,0-.05.02-.01.12-.04.13-.06,0,0,0,0,0-.01,0,0,0,0,0,0,0-.01,0-.05,0-.08.1-.01.15-.02.15-.04,0,0,0,0,0,0,0,0,0,0,0,0,0-.03.03-.29.07-.32,0,0,.01-.01.02-.02.01-.01.03-.02.05-.03.06-.04.42-.62.47-.66.02-.02.03-.04.04-.06,0-.02,0-.04,0-.06,0-.02,0-.04-.02-.05-.01-.02-.03-.04-.04-.06-.03-.04-.07-.09-.1-.15-.04-.05-.05-.08-.05-.09.02,0,.04,0,.05.01,0,0,.06-.03.08-.14.03-.11-.05-.29-.21-.35-.02,0-.05-.02-.07-.02-.01-.01-.02-.02-.03-.03,0-.01,0-.03,0-.05,0,0,0-.02,0-.02,0,0,0-.02.01-.02,0,0,0,0,0,0,.09-.27.22-.58.52-.85.09-.08.18-.15.27-.23.04-.04.1-.07.14-.11.23-.16.59-.35.86-.45.04-.02.13-.09.18-.16.03-.04.05-.07.06-.1.04-.39.21-.93.52-1.17.12.01.24.03.35.04.11-.08.13-.17.19-.22,0,0,.01,0,.02-.01.01-.01,0-.03,0-.04,0,0,0,0,0,0-.02-.06-.17-.28-.2-.35-.12-.02-.24-.03-.37-.05.09-.88.19-1.73.32-2.57.36-2.43.91-4.73,1.97-6.99.11-.24.24-.49.36-.73.02,0,.04,0,.06,0,.17-.11.23-.24.33-.31,0,0,.02-.01.02-.02.02-.02,0-.04,0-.05,0,0,0,0,0-.01-.02-.05-.07-.18-.11-.29.16-.09.27-.14.37-.2,0,0,.02,0,.02-.01.02-.02,0-.03,0-.05Zm-43.03,1.21l2.19-.46c-.07.16-.14.31-.21.48-.83,1.97-1.47,4.6-1.88,7.19-.14.89-.25,1.78-.34,2.64-.52-.06-1.03-.11-1.19-.12h-.11c.01-.33.02-.65.04-.96.06-1.1.16-2.13.28-3.1.3-2.29.76-4.2,1.23-5.67Zm-5.93,9.72s-.02,0-.03,0h-.01c-.19.01-.84.08-1.5.16-.08-.87-.2-1.77-.34-2.67-.41-2.6-1.05-5.22-1.88-7.2-.05-.12-.1-.24-.16-.36l2.51.36c.46,1.48.92,3.38,1.22,5.67.16,1.24.27,2.59.31,4.05-.04,0-.08,0-.11,0Zm.77,0c-.05-1.37-.15-2.67-.29-3.87-.27-2.27-.68-4.23-1.13-5.83h5.81c-.45,1.6-.87,3.56-1.14,5.83-.11.94-.2,1.93-.26,2.97-.02.3-.03.6-.04.91-1.09,0-1.87,0-2.96,0Zm4.81,11.27s0,0,0,0l.04-.08.03-.05h0s.01-.02.02-.04c0-.02.02-.03.02-.04,0,0,0-.01.01-.02.01-.02.02-.02.02-.03,0,0,.04-.05.11-.07.07-.02.17-.02.17-.02,0,0,.18.02.19.02h0s.03.02.09.03c.04.03.1.07.14.17.05.09.07.21.07.3,0,.09,0,.14,0,.14h0s0,.08-.05.19c-.03.11-.13.25-.24.37-.12.11-.27.2-.38.23-.11.03-.19.04-.19.04h0s-.04,0-.11,0c-.07,0-.16,0-.27-.02-.08-.01-.17-.04-.26-.08l.58-1.06Zm11.44,4.24s0,0,0,0l.04-.06.02-.05h0s0-.01,0-.02c.01-.03.03-.06.04-.06.02-.02.02-.04.02-.03,0,0,.04-.03.1-.06.06-.02.15-.02.15-.02,0,0,.17.02.17.02,0,0,0,0,0,0,0,0,.03.02.08.03.04.03.09.06.12.15.04.08.06.19.07.27,0,.09,0,.13,0,.13h0s-.01.08-.04.18c-.03.11-.11.24-.22.35-.11.1-.23.18-.33.2-.1.03-.16.02-.16.03,0,0,0,0,0,0,0,0-.12-.01-.29-.03-.08-.03-.18-.05-.28-.1,0,0,0,0-.01,0l.51-.93Zm9.97,1.01c-.1.04-.2.07-.28.1-.17.02-.29.03-.29.03,0,0,0,0,0,0,0,0-.06,0-.16-.03-.1-.02-.22-.1-.33-.2-.1-.11-.18-.25-.22-.35-.03-.11-.04-.18-.04-.18h0s0-.05,0-.13c0-.08.02-.19.07-.27.03-.09.09-.12.12-.15.05-.01.08-.03.08-.03,0,0,0,0,0,0,0,0,.17-.02.17-.02,0,0,.09,0,.15.02.05.02.09.06.1.06,0,0,0,0,.02.03.01,0,.03.03.04.06,0,0,0,.01,0,.02h0s.02.05.02.05l.04.06s0,0,0,0l.51.93s0,0-.01,0Zm11.27-4.03c-.11.02-.2.02-.27.02-.07,0-.11,0-.11,0h0s-.08,0-.19-.04c-.11-.03-.25-.12-.38-.23-.11-.12-.21-.26-.24-.37-.04-.11-.04-.19-.05-.19h0s0-.05,0-.15c0-.09.03-.21.07-.3.04-.1.1-.14.14-.17.05-.02.09-.03.09-.03h0s.19-.03.19-.02c0,0,.1,0,.17.02.06.02.11.07.11.07,0,0,0,.01.02.03,0,0,0,.01.01.02,0,.01.01.02.02.04,0,.01.01.03.02.04h0s.03.05.03.05l.04.08s0,0,0,0l.58,1.06c-.09.04-.18.07-.26.08Zm.82-12.41h-.06c-.16,0-.67.06-1.19.12-.08-.86-.2-1.75-.34-2.64-.41-2.6-1.05-5.22-1.88-7.19-.07-.16-.14-.32-.21-.48l2.19.46c.47,1.48.93,3.38,1.23,5.67.13.97.23,2,.28,3.1.02.31.03.63.04.96h-.05Zm3.95-3.87c-.14,1.2-.24,2.5-.29,3.87-1.09,0-1.87,0-2.96,0-.01-.3-.02-.61-.04-.91-.06-1.04-.15-2.03-.26-2.97-.27-2.27-.69-4.22-1.14-5.83h5.81c-.45,1.61-.86,3.56-1.13,5.83Zm4.24-5.85c-.83,1.98-1.47,4.6-1.88,7.2-.14.91-.25,1.8-.34,2.67-.67-.08-1.32-.15-1.51-.16h-.01s-.02,0-.03,0c-.04,0-.08,0-.11,0,.04-1.45.15-2.81.31-4.05.3-2.29.75-4.19,1.22-5.67l2.51-.36c-.05.12-.11.23-.16.36Z"
         id="path17"
         style="fill:#f1d0f1;fill-opacity:1" />
    </g>
  </g>
</svg>
